<svg width="58" height="58" viewBox="0 0 58 58" fill="none" xmlns="http://www.w3.org/2000/svg">
<path d="M24 2.88675C27.094 1.10042 30.906 1.10042 34 2.88675L49.1147 11.6132C52.2087 13.3996 54.1147 16.7008 54.1147 20.2735V37.7265C54.1147 41.2992 52.2087 44.6004 49.1147 46.3868L34 55.1132C30.906 56.8996 27.094 56.8996 24 55.1132L8.88526 46.3868C5.79125 44.6004 3.88526 41.2992 3.88526 37.7265V20.2735C3.88526 16.7008 5.79125 13.3996 8.88526 11.6132L24 2.88675Z" fill="#2CCC71"/>
<circle cx="16.5" cy="40.5" r="4.5" fill="url(#paint0_linear)" fill-opacity="0.5"/>
<circle cx="29.5" cy="29.5" r="17.5" fill="url(#paint1_linear)" fill-opacity="0.5"/>
<path d="M26 21H31.446C31.6156 21 31.7824 21.0431 31.9308 21.1254C32.0791 21.2076 32.2041 21.3262 32.294 21.47L35.75 27H40.158C40.2448 26.9999 40.3302 27.0225 40.4056 27.0654C40.4811 27.1084 40.5441 27.1702 40.5884 27.2449C40.6327 27.3196 40.6568 27.4045 40.6583 27.4913C40.6598 27.5781 40.6387 27.6638 40.597 27.74L36.637 35H36C35.4819 35.0004 34.966 34.9339 34.465 34.802L37.63 29H20.4L21.448 34.824C20.9743 34.9412 20.488 35.0003 20 35H19.455L18.215 28.179C18.1888 28.035 18.1945 27.8871 18.2318 27.7456C18.269 27.6041 18.3368 27.4724 18.4305 27.36C18.5241 27.2476 18.6413 27.1571 18.7737 27.0949C18.9062 27.0326 19.0507 27.0003 19.197 27H20V22C20 21.7348 20.1054 21.4804 20.2929 21.2929C20.4804 21.1054 20.7348 21 21 21H22V18H26V21ZM22 27H33.392L30.892 23H22V27ZM20 37C21.4763 37.002 22.9011 36.4578 24 35.472C25.0989 36.4578 26.5237 37.002 28 37C29.4763 37.002 30.9011 36.4578 32 35.472C33.0989 36.4578 34.5237 37.002 36 37H38V39H36C34.5956 39.0023 33.2157 38.6331 32 37.93C30.7843 38.6331 29.4044 39.0023 28 39C26.5956 39.0023 25.2157 38.6331 24 37.93C22.7843 38.6331 21.4044 39.0023 20 39H18V37H20Z" fill="white"/>
<defs>
<linearGradient id="paint0_linear" x1="13.7679" y1="37.0446" x2="19.2321" y2="43.7946" gradientUnits="userSpaceOnUse">
<stop stop-color="#6FF9F0"/>
<stop offset="1" stop-color="#2B9358"/>
</linearGradient>
<linearGradient id="paint1_linear" x1="18.875" y1="16.0625" x2="40.125" y2="42.3125" gradientUnits="userSpaceOnUse">
<stop stop-color="#6FF9F0"/>
<stop offset="1" stop-color="#2B9358"/>
</linearGradient>
</defs>
</svg>
