<svg width="226" height="71" viewBox="0 0 226 71" fill="none" xmlns="http://www.w3.org/2000/svg">
<mask id="path-1-outside-1" maskUnits="userSpaceOnUse" x="0" y="0" width="226" height="39" fill="black">
<rect fill="white" width="226" height="39"/>
<path d="M211.421 1.00111C211.181 0.99257 210.941 1.03337 210.717 1.12098C210.493 1.20858 210.289 1.34118 210.117 1.51071C209.957 1.68041 209.833 1.88099 209.752 2.10033C209.671 2.31967 209.636 2.55323 209.647 2.78691V27.6836C209.625 27.9237 209.656 28.1656 209.737 28.3924C209.818 28.6191 209.948 28.8251 210.118 28.9956C210.287 29.166 210.492 29.2969 210.717 29.3788C210.942 29.4607 211.182 29.4915 211.421 29.4693C211.653 29.4806 211.885 29.4445 212.103 29.3631C212.321 29.2817 212.52 29.1568 212.689 28.9959C212.857 28.8231 212.989 28.6176 213.076 28.3921C213.163 28.1665 213.203 27.9254 213.195 27.6836V22.1054L215.005 20.5023L221.886 29.0702C222.033 29.2789 222.229 29.448 222.456 29.5624C222.684 29.6769 222.936 29.7332 223.19 29.7264C223.614 29.7188 224.023 29.5644 224.348 29.289C224.554 29.1302 224.72 28.9252 224.833 28.6903C224.946 28.4554 225.003 28.1972 225 27.9361C225.007 27.5343 224.865 27.1443 224.601 26.8425L217.576 18.1664L224.24 12.1891C224.424 12.0409 224.572 11.8524 224.673 11.6379C224.773 11.4233 224.824 11.1885 224.821 10.9513C224.811 10.5291 224.643 10.1263 224.35 9.82392C224.209 9.65109 224.034 9.51 223.835 9.40983C223.636 9.30965 223.419 9.25262 223.197 9.24241C222.975 9.23221 222.753 9.26905 222.546 9.35058C222.34 9.43211 222.152 9.55651 221.996 9.71568L213.197 17.6253V2.78911C213.203 2.553 213.161 2.3182 213.074 2.09889C212.987 1.87957 212.857 1.68033 212.691 1.51332C212.525 1.34632 212.327 1.21504 212.109 1.12737C211.891 1.03971 211.658 0.997502 211.423 1.00338L211.421 1.00111ZM128.904 3.1882C128.664 3.18009 128.424 3.22132 128.2 3.3093C127.976 3.39729 127.772 3.53024 127.601 3.70007C127.431 3.87183 127.298 4.07707 127.211 4.3029C127.124 4.52873 127.084 4.77028 127.095 5.01232V22.3985C127.061 23.653 127.348 24.8953 127.928 26.0061C128.436 27.0551 129.227 27.9394 130.21 28.5584C131.188 29.1686 132.32 29.4818 133.47 29.4603H134.121C134.675 29.4939 135.219 29.3114 135.642 28.9508C135.839 28.795 135.997 28.5954 136.104 28.3676C136.211 28.1399 136.264 27.8903 136.258 27.6385C136.258 27.1594 136.091 26.6954 135.788 26.3263C135.655 26.1663 135.489 26.0377 135.301 25.9496C135.113 25.8615 134.909 25.8162 134.701 25.8167H133.47C133.089 25.8226 132.712 25.7361 132.372 25.5646C132.032 25.3931 131.737 25.1416 131.514 24.8313C130.964 24.1412 130.681 23.2736 130.719 22.3895V13.4021H133.797C134.248 13.4203 134.689 13.2637 135.029 12.9647C135.176 12.8239 135.294 12.6544 135.375 12.4665C135.456 12.2785 135.498 12.076 135.499 11.8712C135.502 11.6551 135.461 11.4407 135.381 11.2406C135.3 11.0404 135.18 10.8584 135.029 10.7055C134.689 10.4065 134.248 10.2499 133.797 10.2681H130.719V5.01907C130.73 4.77683 130.69 4.53497 130.603 4.30889C130.516 4.08281 130.383 3.87749 130.213 3.70592C130.043 3.53435 129.839 3.40029 129.614 3.31233C129.39 3.22437 129.15 3.18444 128.909 3.19501L128.904 3.1882ZM10.9984 9.38423C9.18692 9.35031 7.39918 9.8033 5.81954 10.6965C4.32573 11.5261 3.09563 12.7643 2.27141 14.2679C1.39561 15.8742 0.958175 17.6853 1.00359 19.517C0.95753 21.324 1.35531 23.1147 2.16166 24.7299C2.90784 26.2397 4.06865 27.5023 5.50632 28.3679C6.944 29.2335 8.59819 29.6659 10.2726 29.6136C11.7383 29.6387 13.1814 29.248 14.4368 28.4863C15.6863 27.7262 16.7116 26.6444 17.407 25.3522V27.1379C17.4445 28.5138 17.1461 29.878 16.5379 31.1108C16.0031 32.1436 15.2024 33.0126 14.2195 33.627C13.241 34.197 12.1264 34.487 10.9962 34.4658C9.84282 34.4869 8.698 34.2634 7.63618 33.8097C6.65388 33.3887 5.80266 32.7086 5.17222 31.8413C5.0024 31.6046 4.77927 31.4116 4.52113 31.2784C4.263 31.1451 3.97718 31.0754 3.68709 31.0747C3.32408 31.0776 2.97071 31.1925 2.67462 31.4039C2.44822 31.5404 2.25972 31.7323 2.12659 31.9617C1.99346 32.191 1.92 32.4506 1.91304 32.7161C1.9088 33.0959 2.05183 33.4623 2.31174 33.7375C3.30043 35.0337 4.5946 36.0613 6.07715 36.7273C7.60067 37.4211 9.25692 37.7697 10.929 37.7487C12.7456 37.7824 14.5367 37.3145 16.1078 36.3958C17.6212 35.4981 18.8608 34.1996 19.6918 32.6418C20.5428 31.026 20.9787 29.2215 20.9596 27.3927V19.5192C20.9932 17.6844 20.5434 15.8733 19.6559 14.2702C18.8215 12.7743 17.5939 11.5387 16.1078 10.6988C14.5501 9.81384 12.7869 9.36101 10.9984 9.3865V9.38423ZM43.0145 9.38423C41.224 9.37318 39.4625 9.83999 37.9096 10.7371C36.4093 11.6037 35.1707 12.8637 34.3256 14.3829C33.4473 15.9496 32.9974 17.7227 33.0219 19.5215C32.9947 21.3224 33.4054 23.1027 34.2181 24.7073C34.98 26.1936 36.132 27.4413 37.5489 28.3149C38.9678 29.2167 40.6153 29.6865 42.2932 29.6678H51.2308C51.6915 29.6629 52.1327 29.4796 52.4628 29.1559C52.6271 28.9957 52.7569 28.8031 52.844 28.5901C52.9311 28.3771 52.9737 28.1484 52.969 27.9181V19.535C52.9753 17.7333 52.5119 15.9615 51.625 14.3965C50.7799 12.8773 49.5413 11.6172 48.041 10.7506C46.5152 9.8555 44.7805 9.38477 43.0145 9.3865V9.38423ZM67.7865 9.38423C67.5577 9.37951 67.3304 9.42234 67.1188 9.51001C66.9072 9.59769 66.7159 9.72829 66.5567 9.89376C66.3909 10.0534 66.2602 10.2463 66.173 10.4599C66.0859 10.6734 66.0441 10.9031 66.0505 11.1339V36.1388C66.0354 36.3868 66.0729 36.6351 66.1603 36.8674C66.2477 37.0997 66.3832 37.3105 66.5577 37.4862C66.7322 37.6618 66.9417 37.7982 67.1725 37.8862C67.4032 37.9742 67.6499 38.0119 67.8962 37.9967C68.1367 38.0069 68.3766 37.9668 68.601 37.8791C68.8253 37.7915 69.0293 37.658 69.1999 37.4871C69.3845 37.3163 69.5291 37.1063 69.6232 36.8723C69.7173 36.6384 69.7587 36.3863 69.7442 36.1343V26.2992C70.5652 27.3453 71.6196 28.1819 72.8219 28.7411C74.184 29.3842 75.6822 29.6807 77.1848 29.6044C78.6873 29.5281 80.1483 29.0814 81.4392 28.3036C82.8561 27.4301 84.0081 26.1823 84.77 24.6961C85.5941 23.0942 86.017 21.314 86.002 19.5102C86.0265 17.7115 85.5767 15.9384 84.6983 14.3717C83.8391 12.8504 82.5877 11.5907 81.0763 10.7258C79.5344 9.83336 77.7858 9.36666 76.0072 9.37294H67.7865V9.38423ZM106.007 9.38423C104.773 9.37921 103.548 9.58897 102.385 10.0043C101.325 10.3784 100.378 11.0187 99.6323 11.8644C98.9206 12.7065 98.546 13.7852 98.5818 14.8902C98.5818 17.8417 100.9 19.774 105.526 20.6489C106.86 20.845 108.149 21.277 109.334 21.925C109.66 22.1159 109.934 22.3863 110.129 22.7113C110.325 23.0363 110.437 23.4055 110.454 23.7852C110.454 24.1735 110.346 24.5541 110.141 24.8831C109.936 25.2122 109.643 25.4764 109.296 25.6453C108.316 26.1655 107.214 26.4049 106.108 26.3375C105.104 26.346 104.108 26.16 103.174 25.7896C102.386 25.5155 101.677 25.0509 101.108 24.4368C100.934 24.2406 100.723 24.0816 100.487 23.9689C100.25 23.8562 99.9943 23.7922 99.7331 23.7807C99.2673 23.81 98.823 23.9885 98.4653 24.2902C98.2341 24.4455 98.0462 24.6578 97.9196 24.9068C97.793 25.1559 97.7317 25.4334 97.7418 25.713C97.7346 25.9239 97.773 26.1339 97.8542 26.3285C97.9354 26.5232 98.0575 26.6978 98.2122 26.8403C99.1766 27.7661 100.343 28.4525 101.617 28.8447C103.107 29.3644 104.675 29.6237 106.251 29.6114C107.689 29.6484 109.118 29.3874 110.451 28.8447C111.533 28.3999 112.465 27.6537 113.139 26.6938C113.727 25.7824 114.039 24.7184 114.035 23.6319C114.048 22.9321 113.905 22.2382 113.617 21.6012C113.329 20.9641 112.904 20.3999 112.371 19.9499C110.714 18.7729 108.802 18.0108 106.794 17.7267C105.791 17.5622 104.808 17.2932 103.861 16.924C103.331 16.7534 102.856 16.4419 102.486 16.0222C102.227 15.6631 102.099 15.2251 102.123 14.782C102.121 14.4433 102.22 14.1117 102.407 13.8303C102.595 13.5489 102.862 13.3306 103.174 13.2037C104.033 12.7952 104.976 12.5952 105.927 12.6198C106.762 12.6147 107.593 12.7379 108.391 12.985C109.101 13.2411 109.754 13.6374 110.31 14.1507C110.534 14.3737 110.8 14.5498 111.093 14.6686C111.385 14.7874 111.698 14.8467 112.013 14.8429C112.374 14.8646 112.732 14.7621 113.027 14.552C113.21 14.425 113.36 14.2571 113.467 14.0614C113.574 13.8658 113.635 13.6478 113.643 13.4247C113.609 12.996 113.445 12.5883 113.173 12.2567C112.368 11.3206 111.348 10.5956 110.203 10.1441C108.867 9.61847 107.442 9.36111 106.007 9.3865V9.38423ZM157.285 9.38423C155.494 9.37289 153.732 9.8397 152.178 10.7371C150.678 11.6036 149.439 12.8636 148.594 14.3829C147.716 15.9496 147.266 17.7227 147.29 19.5215C147.263 21.3224 147.674 23.1027 148.486 24.7073C149.248 26.1936 150.4 27.4413 151.817 28.3149C153.236 29.2167 154.884 29.6865 156.562 29.6678H165.506C165.967 29.6629 166.408 29.4796 166.738 29.1559C166.902 28.9957 167.032 28.8031 167.119 28.5901C167.206 28.3771 167.249 28.1484 167.244 27.9181V19.535C167.25 17.7333 166.787 15.9615 165.9 14.3965C165.055 12.8773 163.816 11.6172 162.316 10.7506C160.789 9.85472 159.053 9.38397 157.285 9.3865V9.38423ZM189.12 9.38423C187.343 9.3549 185.592 9.80824 184.051 10.6965C182.565 11.5413 181.347 12.792 180.538 14.3041C179.696 15.9085 179.272 17.7024 179.309 19.517C179.27 21.3278 179.707 23.1168 180.576 24.7029C181.423 26.2109 182.662 27.458 184.16 28.3104C185.731 29.2008 187.51 29.6538 189.312 29.6226C191.72 29.7045 194.062 28.8271 195.831 27.1808C195.966 27.0553 196.075 26.9031 196.15 26.7336C196.224 26.5641 196.264 26.3809 196.265 26.1955C196.25 25.9402 196.18 25.6911 196.062 25.4649C195.943 25.2386 195.778 25.0404 195.578 24.8832C195.307 24.673 194.976 24.5574 194.635 24.554C194.144 24.5745 193.673 24.7531 193.291 25.0636C192.162 25.9629 190.745 26.4167 189.308 26.3398C188.13 26.3611 186.968 26.0586 185.948 25.4649C184.98 24.8919 184.19 24.0588 183.665 23.0592C183.115 21.9647 182.842 20.7502 182.87 19.5238C182.786 17.7056 183.409 15.9259 184.608 14.5633C185.185 13.9402 185.887 13.4486 186.668 13.1215C187.449 12.7944 188.29 12.6395 189.135 12.6671C189.967 12.6657 190.791 12.8265 191.561 13.1406C192.321 13.4616 193.001 13.9474 193.553 14.5633C193.722 14.775 193.938 14.9443 194.183 15.0581C194.428 15.1719 194.696 15.2271 194.966 15.2194C195.263 15.225 195.555 15.1359 195.799 14.9647C196.034 14.8243 196.23 14.6269 196.369 14.3905C196.507 14.1541 196.585 13.8863 196.595 13.6118C196.584 13.2639 196.456 12.93 196.232 12.6648C195.366 11.6167 194.278 10.7779 193.047 10.2104C191.816 9.64295 190.473 9.36139 189.12 9.3865V9.38423ZM10.9984 12.6648C12.1557 12.6467 13.2956 12.9494 14.2934 13.5397C15.2635 14.1261 16.0535 14.9712 16.5759 15.9816C17.1354 17.0742 17.4214 18.2878 17.4092 19.517C17.426 20.7466 17.1397 21.9613 16.5759 23.0523C16.0518 24.052 15.2614 24.8851 14.2934 25.4582C13.2956 26.0485 12.1557 26.3511 10.9984 26.333C9.82983 26.351 8.67841 26.0486 7.66756 25.4582C6.69957 24.8851 5.90918 24.052 5.38498 23.0523C4.80504 21.9674 4.51774 20.7485 4.55172 19.517C4.52198 18.2859 4.80902 17.068 5.38498 15.9816C5.90747 14.9712 6.69748 14.1261 7.66756 13.5397C8.67863 12.95 9.83004 12.6484 10.9984 12.6671V12.6648ZM43.0145 12.6648C44.1622 12.6612 45.2891 12.973 46.2737 13.5667C47.2448 14.1625 48.0434 15.0046 48.5898 16.0086C49.1451 17.0899 49.431 18.2908 49.4231 19.5079C49.4396 20.7261 49.1532 21.9291 48.5898 23.0073C48.0434 24.0113 47.2448 24.8533 46.2737 25.4492C45.2754 26.0225 44.1459 26.3241 42.9966 26.3241C41.8472 26.3241 40.7177 26.0225 39.7195 25.4492C38.7475 24.8536 37.9481 24.0116 37.4011 23.0073C36.8211 21.9354 36.5336 20.728 36.5678 19.5079C36.5422 18.2888 36.8292 17.0836 37.4011 16.0086C37.9481 15.0043 38.7475 14.1622 39.7195 13.5667C40.7153 12.9689 41.8551 12.6578 43.0145 12.6671V12.6648ZM76.0072 12.6648C77.1549 12.6611 78.2819 12.9729 79.2664 13.5667C80.2383 14.1622 81.0378 15.0043 81.5848 16.0086C82.168 17.0806 82.4674 18.2857 82.4539 19.5079C82.4762 20.7312 82.1763 21.9385 81.5848 23.0073C81.0378 24.0116 80.2383 24.8536 79.2664 25.4492C78.2681 26.0225 77.1386 26.3241 75.9893 26.3241C74.8399 26.3241 73.7105 26.0225 72.7122 25.4492C71.7421 24.8628 70.9521 24.0176 70.4297 23.0073C69.8497 21.9354 69.5621 20.728 69.5964 19.5079C69.5708 18.2888 69.8578 17.0836 70.4297 16.0086C70.9522 14.9983 71.7422 14.1532 72.7122 13.5667C73.708 12.9689 74.8478 12.6578 76.0072 12.6671V12.6648ZM157.285 12.6648C158.433 12.6612 159.56 12.973 160.544 13.5667C161.515 14.1625 162.314 15.0046 162.86 16.0086C163.416 17.0899 163.702 18.2908 163.694 19.5079C163.71 20.7261 163.424 21.9291 162.86 23.0073C162.314 24.0113 161.515 24.8533 160.544 25.4492C159.546 26.0225 158.416 26.3241 157.267 26.3241C156.118 26.3241 154.988 26.0225 153.99 25.4492C153.018 24.8536 152.219 24.0116 151.672 23.0073C151.092 21.9354 150.804 20.728 150.838 19.5079C150.813 18.2888 151.1 17.0836 151.672 16.0086C152.219 15.0043 153.018 14.1622 153.99 13.5667C154.986 12.9689 156.126 12.6578 157.285 12.6671V12.6648Z"/>
</mask>
<path d="M211.421 1.00111C211.181 0.99257 210.941 1.03337 210.717 1.12098C210.493 1.20858 210.289 1.34118 210.117 1.51071C209.957 1.68041 209.833 1.88099 209.752 2.10033C209.671 2.31967 209.636 2.55323 209.647 2.78691V27.6836C209.625 27.9237 209.656 28.1656 209.737 28.3924C209.818 28.6191 209.948 28.8251 210.118 28.9956C210.287 29.166 210.492 29.2969 210.717 29.3788C210.942 29.4607 211.182 29.4915 211.421 29.4693C211.653 29.4806 211.885 29.4445 212.103 29.3631C212.321 29.2817 212.52 29.1568 212.689 28.9959C212.857 28.8231 212.989 28.6176 213.076 28.3921C213.163 28.1665 213.203 27.9254 213.195 27.6836V22.1054L215.005 20.5023L221.886 29.0702C222.033 29.2789 222.229 29.448 222.456 29.5624C222.684 29.6769 222.936 29.7332 223.19 29.7264C223.614 29.7188 224.023 29.5644 224.348 29.289C224.554 29.1302 224.72 28.9252 224.833 28.6903C224.946 28.4554 225.003 28.1972 225 27.9361C225.007 27.5343 224.865 27.1443 224.601 26.8425L217.576 18.1664L224.24 12.1891C224.424 12.0409 224.572 11.8524 224.673 11.6379C224.773 11.4233 224.824 11.1885 224.821 10.9513C224.811 10.5291 224.643 10.1263 224.35 9.82392C224.209 9.65109 224.034 9.51 223.835 9.40983C223.636 9.30965 223.419 9.25262 223.197 9.24241C222.975 9.23221 222.753 9.26905 222.546 9.35058C222.34 9.43211 222.152 9.55651 221.996 9.71568L213.197 17.6253V2.78911C213.203 2.553 213.161 2.3182 213.074 2.09889C212.987 1.87957 212.857 1.68033 212.691 1.51332C212.525 1.34632 212.327 1.21504 212.109 1.12737C211.891 1.03971 211.658 0.997502 211.423 1.00338L211.421 1.00111ZM128.904 3.1882C128.664 3.18009 128.424 3.22132 128.2 3.3093C127.976 3.39729 127.772 3.53024 127.601 3.70007C127.431 3.87183 127.298 4.07707 127.211 4.3029C127.124 4.52873 127.084 4.77028 127.095 5.01232V22.3985C127.061 23.653 127.348 24.8953 127.928 26.0061C128.436 27.0551 129.227 27.9394 130.21 28.5584C131.188 29.1686 132.32 29.4818 133.47 29.4603H134.121C134.675 29.4939 135.219 29.3114 135.642 28.9508C135.839 28.795 135.997 28.5954 136.104 28.3676C136.211 28.1399 136.264 27.8903 136.258 27.6385C136.258 27.1594 136.091 26.6954 135.788 26.3263C135.655 26.1663 135.489 26.0377 135.301 25.9496C135.113 25.8615 134.909 25.8162 134.701 25.8167H133.47C133.089 25.8226 132.712 25.7361 132.372 25.5646C132.032 25.3931 131.737 25.1416 131.514 24.8313C130.964 24.1412 130.681 23.2736 130.719 22.3895V13.4021H133.797C134.248 13.4203 134.689 13.2637 135.029 12.9647C135.176 12.8239 135.294 12.6544 135.375 12.4665C135.456 12.2785 135.498 12.076 135.499 11.8712C135.502 11.6551 135.461 11.4407 135.381 11.2406C135.3 11.0404 135.18 10.8584 135.029 10.7055C134.689 10.4065 134.248 10.2499 133.797 10.2681H130.719V5.01907C130.73 4.77683 130.69 4.53497 130.603 4.30889C130.516 4.08281 130.383 3.87749 130.213 3.70592C130.043 3.53435 129.839 3.40029 129.614 3.31233C129.39 3.22437 129.15 3.18444 128.909 3.19501L128.904 3.1882ZM10.9984 9.38423C9.18692 9.35031 7.39918 9.8033 5.81954 10.6965C4.32573 11.5261 3.09563 12.7643 2.27141 14.2679C1.39561 15.8742 0.958175 17.6853 1.00359 19.517C0.95753 21.324 1.35531 23.1147 2.16166 24.7299C2.90784 26.2397 4.06865 27.5023 5.50632 28.3679C6.944 29.2335 8.59819 29.6659 10.2726 29.6136C11.7383 29.6387 13.1814 29.248 14.4368 28.4863C15.6863 27.7262 16.7116 26.6444 17.407 25.3522V27.1379C17.4445 28.5138 17.1461 29.878 16.5379 31.1108C16.0031 32.1436 15.2024 33.0126 14.2195 33.627C13.241 34.197 12.1264 34.487 10.9962 34.4658C9.84282 34.4869 8.698 34.2634 7.63618 33.8097C6.65388 33.3887 5.80266 32.7086 5.17222 31.8413C5.0024 31.6046 4.77927 31.4116 4.52113 31.2784C4.263 31.1451 3.97718 31.0754 3.68709 31.0747C3.32408 31.0776 2.97071 31.1925 2.67462 31.4039C2.44822 31.5404 2.25972 31.7323 2.12659 31.9617C1.99346 32.191 1.92 32.4506 1.91304 32.7161C1.9088 33.0959 2.05183 33.4623 2.31174 33.7375C3.30043 35.0337 4.5946 36.0613 6.07715 36.7273C7.60067 37.4211 9.25692 37.7697 10.929 37.7487C12.7456 37.7824 14.5367 37.3145 16.1078 36.3958C17.6212 35.4981 18.8608 34.1996 19.6918 32.6418C20.5428 31.026 20.9787 29.2215 20.9596 27.3927V19.5192C20.9932 17.6844 20.5434 15.8733 19.6559 14.2702C18.8215 12.7743 17.5939 11.5387 16.1078 10.6988C14.5501 9.81384 12.7869 9.36101 10.9984 9.3865V9.38423ZM43.0145 9.38423C41.224 9.37318 39.4625 9.83999 37.9096 10.7371C36.4093 11.6037 35.1707 12.8637 34.3256 14.3829C33.4473 15.9496 32.9974 17.7227 33.0219 19.5215C32.9947 21.3224 33.4054 23.1027 34.2181 24.7073C34.98 26.1936 36.132 27.4413 37.5489 28.3149C38.9678 29.2167 40.6153 29.6865 42.2932 29.6678H51.2308C51.6915 29.6629 52.1327 29.4796 52.4628 29.1559C52.6271 28.9957 52.7569 28.8031 52.844 28.5901C52.9311 28.3771 52.9737 28.1484 52.969 27.9181V19.535C52.9753 17.7333 52.5119 15.9615 51.625 14.3965C50.7799 12.8773 49.5413 11.6172 48.041 10.7506C46.5152 9.8555 44.7805 9.38477 43.0145 9.3865V9.38423ZM67.7865 9.38423C67.5577 9.37951 67.3304 9.42234 67.1188 9.51001C66.9072 9.59769 66.7159 9.72829 66.5567 9.89376C66.3909 10.0534 66.2602 10.2463 66.173 10.4599C66.0859 10.6734 66.0441 10.9031 66.0505 11.1339V36.1388C66.0354 36.3868 66.0729 36.6351 66.1603 36.8674C66.2477 37.0997 66.3832 37.3105 66.5577 37.4862C66.7322 37.6618 66.9417 37.7982 67.1725 37.8862C67.4032 37.9742 67.6499 38.0119 67.8962 37.9967C68.1367 38.0069 68.3766 37.9668 68.601 37.8791C68.8253 37.7915 69.0293 37.658 69.1999 37.4871C69.3845 37.3163 69.5291 37.1063 69.6232 36.8723C69.7173 36.6384 69.7587 36.3863 69.7442 36.1343V26.2992C70.5652 27.3453 71.6196 28.1819 72.8219 28.7411C74.184 29.3842 75.6822 29.6807 77.1848 29.6044C78.6873 29.5281 80.1483 29.0814 81.4392 28.3036C82.8561 27.4301 84.0081 26.1823 84.77 24.6961C85.5941 23.0942 86.017 21.314 86.002 19.5102C86.0265 17.7115 85.5767 15.9384 84.6983 14.3717C83.8391 12.8504 82.5877 11.5907 81.0763 10.7258C79.5344 9.83336 77.7858 9.36666 76.0072 9.37294H67.7865V9.38423ZM106.007 9.38423C104.773 9.37921 103.548 9.58897 102.385 10.0043C101.325 10.3784 100.378 11.0187 99.6323 11.8644C98.9206 12.7065 98.546 13.7852 98.5818 14.8902C98.5818 17.8417 100.9 19.774 105.526 20.6489C106.86 20.845 108.149 21.277 109.334 21.925C109.66 22.1159 109.934 22.3863 110.129 22.7113C110.325 23.0363 110.437 23.4055 110.454 23.7852C110.454 24.1735 110.346 24.5541 110.141 24.8831C109.936 25.2122 109.643 25.4764 109.296 25.6453C108.316 26.1655 107.214 26.4049 106.108 26.3375C105.104 26.346 104.108 26.16 103.174 25.7896C102.386 25.5155 101.677 25.0509 101.108 24.4368C100.934 24.2406 100.723 24.0816 100.487 23.9689C100.25 23.8562 99.9943 23.7922 99.7331 23.7807C99.2673 23.81 98.823 23.9885 98.4653 24.2902C98.2341 24.4455 98.0462 24.6578 97.9196 24.9068C97.793 25.1559 97.7317 25.4334 97.7418 25.713C97.7346 25.9239 97.773 26.1339 97.8542 26.3285C97.9354 26.5232 98.0575 26.6978 98.2122 26.8403C99.1766 27.7661 100.343 28.4525 101.617 28.8447C103.107 29.3644 104.675 29.6237 106.251 29.6114C107.689 29.6484 109.118 29.3874 110.451 28.8447C111.533 28.3999 112.465 27.6537 113.139 26.6938C113.727 25.7824 114.039 24.7184 114.035 23.6319C114.048 22.9321 113.905 22.2382 113.617 21.6012C113.329 20.9641 112.904 20.3999 112.371 19.9499C110.714 18.7729 108.802 18.0108 106.794 17.7267C105.791 17.5622 104.808 17.2932 103.861 16.924C103.331 16.7534 102.856 16.4419 102.486 16.0222C102.227 15.6631 102.099 15.2251 102.123 14.782C102.121 14.4433 102.22 14.1117 102.407 13.8303C102.595 13.5489 102.862 13.3306 103.174 13.2037C104.033 12.7952 104.976 12.5952 105.927 12.6198C106.762 12.6147 107.593 12.7379 108.391 12.985C109.101 13.2411 109.754 13.6374 110.31 14.1507C110.534 14.3737 110.8 14.5498 111.093 14.6686C111.385 14.7874 111.698 14.8467 112.013 14.8429C112.374 14.8646 112.732 14.7621 113.027 14.552C113.21 14.425 113.36 14.2571 113.467 14.0614C113.574 13.8658 113.635 13.6478 113.643 13.4247C113.609 12.996 113.445 12.5883 113.173 12.2567C112.368 11.3206 111.348 10.5956 110.203 10.1441C108.867 9.61847 107.442 9.36111 106.007 9.3865V9.38423ZM157.285 9.38423C155.494 9.37289 153.732 9.8397 152.178 10.7371C150.678 11.6036 149.439 12.8636 148.594 14.3829C147.716 15.9496 147.266 17.7227 147.29 19.5215C147.263 21.3224 147.674 23.1027 148.486 24.7073C149.248 26.1936 150.4 27.4413 151.817 28.3149C153.236 29.2167 154.884 29.6865 156.562 29.6678H165.506C165.967 29.6629 166.408 29.4796 166.738 29.1559C166.902 28.9957 167.032 28.8031 167.119 28.5901C167.206 28.3771 167.249 28.1484 167.244 27.9181V19.535C167.25 17.7333 166.787 15.9615 165.9 14.3965C165.055 12.8773 163.816 11.6172 162.316 10.7506C160.789 9.85472 159.053 9.38397 157.285 9.3865V9.38423ZM189.12 9.38423C187.343 9.3549 185.592 9.80824 184.051 10.6965C182.565 11.5413 181.347 12.792 180.538 14.3041C179.696 15.9085 179.272 17.7024 179.309 19.517C179.27 21.3278 179.707 23.1168 180.576 24.7029C181.423 26.2109 182.662 27.458 184.16 28.3104C185.731 29.2008 187.51 29.6538 189.312 29.6226C191.72 29.7045 194.062 28.8271 195.831 27.1808C195.966 27.0553 196.075 26.9031 196.15 26.7336C196.224 26.5641 196.264 26.3809 196.265 26.1955C196.25 25.9402 196.18 25.6911 196.062 25.4649C195.943 25.2386 195.778 25.0404 195.578 24.8832C195.307 24.673 194.976 24.5574 194.635 24.554C194.144 24.5745 193.673 24.7531 193.291 25.0636C192.162 25.9629 190.745 26.4167 189.308 26.3398C188.13 26.3611 186.968 26.0586 185.948 25.4649C184.98 24.8919 184.19 24.0588 183.665 23.0592C183.115 21.9647 182.842 20.7502 182.87 19.5238C182.786 17.7056 183.409 15.9259 184.608 14.5633C185.185 13.9402 185.887 13.4486 186.668 13.1215C187.449 12.7944 188.29 12.6395 189.135 12.6671C189.967 12.6657 190.791 12.8265 191.561 13.1406C192.321 13.4616 193.001 13.9474 193.553 14.5633C193.722 14.775 193.938 14.9443 194.183 15.0581C194.428 15.1719 194.696 15.2271 194.966 15.2194C195.263 15.225 195.555 15.1359 195.799 14.9647C196.034 14.8243 196.23 14.6269 196.369 14.3905C196.507 14.1541 196.585 13.8863 196.595 13.6118C196.584 13.2639 196.456 12.93 196.232 12.6648C195.366 11.6167 194.278 10.7779 193.047 10.2104C191.816 9.64295 190.473 9.36139 189.12 9.3865V9.38423ZM10.9984 12.6648C12.1557 12.6467 13.2956 12.9494 14.2934 13.5397C15.2635 14.1261 16.0535 14.9712 16.5759 15.9816C17.1354 17.0742 17.4214 18.2878 17.4092 19.517C17.426 20.7466 17.1397 21.9613 16.5759 23.0523C16.0518 24.052 15.2614 24.8851 14.2934 25.4582C13.2956 26.0485 12.1557 26.3511 10.9984 26.333C9.82983 26.351 8.67841 26.0486 7.66756 25.4582C6.69957 24.8851 5.90918 24.052 5.38498 23.0523C4.80504 21.9674 4.51774 20.7485 4.55172 19.517C4.52198 18.2859 4.80902 17.068 5.38498 15.9816C5.90747 14.9712 6.69748 14.1261 7.66756 13.5397C8.67863 12.95 9.83004 12.6484 10.9984 12.6671V12.6648ZM43.0145 12.6648C44.1622 12.6612 45.2891 12.973 46.2737 13.5667C47.2448 14.1625 48.0434 15.0046 48.5898 16.0086C49.1451 17.0899 49.431 18.2908 49.4231 19.5079C49.4396 20.7261 49.1532 21.9291 48.5898 23.0073C48.0434 24.0113 47.2448 24.8533 46.2737 25.4492C45.2754 26.0225 44.1459 26.3241 42.9966 26.3241C41.8472 26.3241 40.7177 26.0225 39.7195 25.4492C38.7475 24.8536 37.9481 24.0116 37.4011 23.0073C36.8211 21.9354 36.5336 20.728 36.5678 19.5079C36.5422 18.2888 36.8292 17.0836 37.4011 16.0086C37.9481 15.0043 38.7475 14.1622 39.7195 13.5667C40.7153 12.9689 41.8551 12.6578 43.0145 12.6671V12.6648ZM76.0072 12.6648C77.1549 12.6611 78.2819 12.9729 79.2664 13.5667C80.2383 14.1622 81.0378 15.0043 81.5848 16.0086C82.168 17.0806 82.4674 18.2857 82.4539 19.5079C82.4762 20.7312 82.1763 21.9385 81.5848 23.0073C81.0378 24.0116 80.2383 24.8536 79.2664 25.4492C78.2681 26.0225 77.1386 26.3241 75.9893 26.3241C74.8399 26.3241 73.7105 26.0225 72.7122 25.4492C71.7421 24.8628 70.9521 24.0176 70.4297 23.0073C69.8497 21.9354 69.5621 20.728 69.5964 19.5079C69.5708 18.2888 69.8578 17.0836 70.4297 16.0086C70.9522 14.9983 71.7422 14.1532 72.7122 13.5667C73.708 12.9689 74.8478 12.6578 76.0072 12.6671V12.6648ZM157.285 12.6648C158.433 12.6612 159.56 12.973 160.544 13.5667C161.515 14.1625 162.314 15.0046 162.86 16.0086C163.416 17.0899 163.702 18.2908 163.694 19.5079C163.71 20.7261 163.424 21.9291 162.86 23.0073C162.314 24.0113 161.515 24.8533 160.544 25.4492C159.546 26.0225 158.416 26.3241 157.267 26.3241C156.118 26.3241 154.988 26.0225 153.99 25.4492C153.018 24.8536 152.219 24.0116 151.672 23.0073C151.092 21.9354 150.804 20.728 150.838 19.5079C150.813 18.2888 151.1 17.0836 151.672 16.0086C152.219 15.0043 153.018 14.1622 153.99 13.5667C154.986 12.9689 156.126 12.6578 157.285 12.6671V12.6648Z" fill="#7C60FF"/>
<path d="M211.421 1.00111C211.181 0.99257 210.941 1.03337 210.717 1.12098C210.493 1.20858 210.289 1.34118 210.117 1.51071C209.957 1.68041 209.833 1.88099 209.752 2.10033C209.671 2.31967 209.636 2.55323 209.647 2.78691V27.6836C209.625 27.9237 209.656 28.1656 209.737 28.3924C209.818 28.6191 209.948 28.8251 210.118 28.9956C210.287 29.166 210.492 29.2969 210.717 29.3788C210.942 29.4607 211.182 29.4915 211.421 29.4693C211.653 29.4806 211.885 29.4445 212.103 29.3631C212.321 29.2817 212.52 29.1568 212.689 28.9959C212.857 28.8231 212.989 28.6176 213.076 28.3921C213.163 28.1665 213.203 27.9254 213.195 27.6836V22.1054L215.005 20.5023L221.886 29.0702C222.033 29.2789 222.229 29.448 222.456 29.5624C222.684 29.6769 222.936 29.7332 223.19 29.7264C223.614 29.7188 224.023 29.5644 224.348 29.289C224.554 29.1302 224.72 28.9252 224.833 28.6903C224.946 28.4554 225.003 28.1972 225 27.9361C225.007 27.5343 224.865 27.1443 224.601 26.8425L217.576 18.1664L224.24 12.1891C224.424 12.0409 224.572 11.8524 224.673 11.6379C224.773 11.4233 224.824 11.1885 224.821 10.9513C224.811 10.5291 224.643 10.1263 224.35 9.82392C224.209 9.65109 224.034 9.51 223.835 9.40983C223.636 9.30965 223.419 9.25262 223.197 9.24241C222.975 9.23221 222.753 9.26905 222.546 9.35058C222.34 9.43211 222.152 9.55651 221.996 9.71568L213.197 17.6253V2.78911C213.203 2.553 213.161 2.3182 213.074 2.09889C212.987 1.87957 212.857 1.68033 212.691 1.51332C212.525 1.34632 212.327 1.21504 212.109 1.12737C211.891 1.03971 211.658 0.997502 211.423 1.00338L211.421 1.00111ZM128.904 3.1882C128.664 3.18009 128.424 3.22132 128.2 3.3093C127.976 3.39729 127.772 3.53024 127.601 3.70007C127.431 3.87183 127.298 4.07707 127.211 4.3029C127.124 4.52873 127.084 4.77028 127.095 5.01232V22.3985C127.061 23.653 127.348 24.8953 127.928 26.0061C128.436 27.0551 129.227 27.9394 130.21 28.5584C131.188 29.1686 132.32 29.4818 133.47 29.4603H134.121C134.675 29.4939 135.219 29.3114 135.642 28.9508C135.839 28.795 135.997 28.5954 136.104 28.3676C136.211 28.1399 136.264 27.8903 136.258 27.6385C136.258 27.1594 136.091 26.6954 135.788 26.3263C135.655 26.1663 135.489 26.0377 135.301 25.9496C135.113 25.8615 134.909 25.8162 134.701 25.8167H133.47C133.089 25.8226 132.712 25.7361 132.372 25.5646C132.032 25.3931 131.737 25.1416 131.514 24.8313C130.964 24.1412 130.681 23.2736 130.719 22.3895V13.4021H133.797C134.248 13.4203 134.689 13.2637 135.029 12.9647C135.176 12.8239 135.294 12.6544 135.375 12.4665C135.456 12.2785 135.498 12.076 135.499 11.8712C135.502 11.6551 135.461 11.4407 135.381 11.2406C135.3 11.0404 135.18 10.8584 135.029 10.7055C134.689 10.4065 134.248 10.2499 133.797 10.2681H130.719V5.01907C130.73 4.77683 130.69 4.53497 130.603 4.30889C130.516 4.08281 130.383 3.87749 130.213 3.70592C130.043 3.53435 129.839 3.40029 129.614 3.31233C129.39 3.22437 129.15 3.18444 128.909 3.19501L128.904 3.1882ZM10.9984 9.38423C9.18692 9.35031 7.39918 9.8033 5.81954 10.6965C4.32573 11.5261 3.09563 12.7643 2.27141 14.2679C1.39561 15.8742 0.958175 17.6853 1.00359 19.517C0.95753 21.324 1.35531 23.1147 2.16166 24.7299C2.90784 26.2397 4.06865 27.5023 5.50632 28.3679C6.944 29.2335 8.59819 29.6659 10.2726 29.6136C11.7383 29.6387 13.1814 29.248 14.4368 28.4863C15.6863 27.7262 16.7116 26.6444 17.407 25.3522V27.1379C17.4445 28.5138 17.1461 29.878 16.5379 31.1108C16.0031 32.1436 15.2024 33.0126 14.2195 33.627C13.241 34.197 12.1264 34.487 10.9962 34.4658C9.84282 34.4869 8.698 34.2634 7.63618 33.8097C6.65388 33.3887 5.80266 32.7086 5.17222 31.8413C5.0024 31.6046 4.77927 31.4116 4.52113 31.2784C4.263 31.1451 3.97718 31.0754 3.68709 31.0747C3.32408 31.0776 2.97071 31.1925 2.67462 31.4039C2.44822 31.5404 2.25972 31.7323 2.12659 31.9617C1.99346 32.191 1.92 32.4506 1.91304 32.7161C1.9088 33.0959 2.05183 33.4623 2.31174 33.7375C3.30043 35.0337 4.5946 36.0613 6.07715 36.7273C7.60067 37.4211 9.25692 37.7697 10.929 37.7487C12.7456 37.7824 14.5367 37.3145 16.1078 36.3958C17.6212 35.4981 18.8608 34.1996 19.6918 32.6418C20.5428 31.026 20.9787 29.2215 20.9596 27.3927V19.5192C20.9932 17.6844 20.5434 15.8733 19.6559 14.2702C18.8215 12.7743 17.5939 11.5387 16.1078 10.6988C14.5501 9.81384 12.7869 9.36101 10.9984 9.3865V9.38423ZM43.0145 9.38423C41.224 9.37318 39.4625 9.83999 37.9096 10.7371C36.4093 11.6037 35.1707 12.8637 34.3256 14.3829C33.4473 15.9496 32.9974 17.7227 33.0219 19.5215C32.9947 21.3224 33.4054 23.1027 34.2181 24.7073C34.98 26.1936 36.132 27.4413 37.5489 28.3149C38.9678 29.2167 40.6153 29.6865 42.2932 29.6678H51.2308C51.6915 29.6629 52.1327 29.4796 52.4628 29.1559C52.6271 28.9957 52.7569 28.8031 52.844 28.5901C52.9311 28.3771 52.9737 28.1484 52.969 27.9181V19.535C52.9753 17.7333 52.5119 15.9615 51.625 14.3965C50.7799 12.8773 49.5413 11.6172 48.041 10.7506C46.5152 9.8555 44.7805 9.38477 43.0145 9.3865V9.38423ZM67.7865 9.38423C67.5577 9.37951 67.3304 9.42234 67.1188 9.51001C66.9072 9.59769 66.7159 9.72829 66.5567 9.89376C66.3909 10.0534 66.2602 10.2463 66.173 10.4599C66.0859 10.6734 66.0441 10.9031 66.0505 11.1339V36.1388C66.0354 36.3868 66.0729 36.6351 66.1603 36.8674C66.2477 37.0997 66.3832 37.3105 66.5577 37.4862C66.7322 37.6618 66.9417 37.7982 67.1725 37.8862C67.4032 37.9742 67.6499 38.0119 67.8962 37.9967C68.1367 38.0069 68.3766 37.9668 68.601 37.8791C68.8253 37.7915 69.0293 37.658 69.1999 37.4871C69.3845 37.3163 69.5291 37.1063 69.6232 36.8723C69.7173 36.6384 69.7587 36.3863 69.7442 36.1343V26.2992C70.5652 27.3453 71.6196 28.1819 72.8219 28.7411C74.184 29.3842 75.6822 29.6807 77.1848 29.6044C78.6873 29.5281 80.1483 29.0814 81.4392 28.3036C82.8561 27.4301 84.0081 26.1823 84.77 24.6961C85.5941 23.0942 86.017 21.314 86.002 19.5102C86.0265 17.7115 85.5767 15.9384 84.6983 14.3717C83.8391 12.8504 82.5877 11.5907 81.0763 10.7258C79.5344 9.83336 77.7858 9.36666 76.0072 9.37294H67.7865V9.38423ZM106.007 9.38423C104.773 9.37921 103.548 9.58897 102.385 10.0043C101.325 10.3784 100.378 11.0187 99.6323 11.8644C98.9206 12.7065 98.546 13.7852 98.5818 14.8902C98.5818 17.8417 100.9 19.774 105.526 20.6489C106.86 20.845 108.149 21.277 109.334 21.925C109.66 22.1159 109.934 22.3863 110.129 22.7113C110.325 23.0363 110.437 23.4055 110.454 23.7852C110.454 24.1735 110.346 24.5541 110.141 24.8831C109.936 25.2122 109.643 25.4764 109.296 25.6453C108.316 26.1655 107.214 26.4049 106.108 26.3375C105.104 26.346 104.108 26.16 103.174 25.7896C102.386 25.5155 101.677 25.0509 101.108 24.4368C100.934 24.2406 100.723 24.0816 100.487 23.9689C100.25 23.8562 99.9943 23.7922 99.7331 23.7807C99.2673 23.81 98.823 23.9885 98.4653 24.2902C98.2341 24.4455 98.0462 24.6578 97.9196 24.9068C97.793 25.1559 97.7317 25.4334 97.7418 25.713C97.7346 25.9239 97.773 26.1339 97.8542 26.3285C97.9354 26.5232 98.0575 26.6978 98.2122 26.8403C99.1766 27.7661 100.343 28.4525 101.617 28.8447C103.107 29.3644 104.675 29.6237 106.251 29.6114C107.689 29.6484 109.118 29.3874 110.451 28.8447C111.533 28.3999 112.465 27.6537 113.139 26.6938C113.727 25.7824 114.039 24.7184 114.035 23.6319C114.048 22.9321 113.905 22.2382 113.617 21.6012C113.329 20.9641 112.904 20.3999 112.371 19.9499C110.714 18.7729 108.802 18.0108 106.794 17.7267C105.791 17.5622 104.808 17.2932 103.861 16.924C103.331 16.7534 102.856 16.4419 102.486 16.0222C102.227 15.6631 102.099 15.2251 102.123 14.782C102.121 14.4433 102.22 14.1117 102.407 13.8303C102.595 13.5489 102.862 13.3306 103.174 13.2037C104.033 12.7952 104.976 12.5952 105.927 12.6198C106.762 12.6147 107.593 12.7379 108.391 12.985C109.101 13.2411 109.754 13.6374 110.31 14.1507C110.534 14.3737 110.8 14.5498 111.093 14.6686C111.385 14.7874 111.698 14.8467 112.013 14.8429C112.374 14.8646 112.732 14.7621 113.027 14.552C113.21 14.425 113.36 14.2571 113.467 14.0614C113.574 13.8658 113.635 13.6478 113.643 13.4247C113.609 12.996 113.445 12.5883 113.173 12.2567C112.368 11.3206 111.348 10.5956 110.203 10.1441C108.867 9.61847 107.442 9.36111 106.007 9.3865V9.38423ZM157.285 9.38423C155.494 9.37289 153.732 9.8397 152.178 10.7371C150.678 11.6036 149.439 12.8636 148.594 14.3829C147.716 15.9496 147.266 17.7227 147.29 19.5215C147.263 21.3224 147.674 23.1027 148.486 24.7073C149.248 26.1936 150.4 27.4413 151.817 28.3149C153.236 29.2167 154.884 29.6865 156.562 29.6678H165.506C165.967 29.6629 166.408 29.4796 166.738 29.1559C166.902 28.9957 167.032 28.8031 167.119 28.5901C167.206 28.3771 167.249 28.1484 167.244 27.9181V19.535C167.25 17.7333 166.787 15.9615 165.9 14.3965C165.055 12.8773 163.816 11.6172 162.316 10.7506C160.789 9.85472 159.053 9.38397 157.285 9.3865V9.38423ZM189.12 9.38423C187.343 9.3549 185.592 9.80824 184.051 10.6965C182.565 11.5413 181.347 12.792 180.538 14.3041C179.696 15.9085 179.272 17.7024 179.309 19.517C179.27 21.3278 179.707 23.1168 180.576 24.7029C181.423 26.2109 182.662 27.458 184.16 28.3104C185.731 29.2008 187.51 29.6538 189.312 29.6226C191.72 29.7045 194.062 28.8271 195.831 27.1808C195.966 27.0553 196.075 26.9031 196.15 26.7336C196.224 26.5641 196.264 26.3809 196.265 26.1955C196.25 25.9402 196.18 25.6911 196.062 25.4649C195.943 25.2386 195.778 25.0404 195.578 24.8832C195.307 24.673 194.976 24.5574 194.635 24.554C194.144 24.5745 193.673 24.7531 193.291 25.0636C192.162 25.9629 190.745 26.4167 189.308 26.3398C188.13 26.3611 186.968 26.0586 185.948 25.4649C184.98 24.8919 184.19 24.0588 183.665 23.0592C183.115 21.9647 182.842 20.7502 182.87 19.5238C182.786 17.7056 183.409 15.9259 184.608 14.5633C185.185 13.9402 185.887 13.4486 186.668 13.1215C187.449 12.7944 188.29 12.6395 189.135 12.6671C189.967 12.6657 190.791 12.8265 191.561 13.1406C192.321 13.4616 193.001 13.9474 193.553 14.5633C193.722 14.775 193.938 14.9443 194.183 15.0581C194.428 15.1719 194.696 15.2271 194.966 15.2194C195.263 15.225 195.555 15.1359 195.799 14.9647C196.034 14.8243 196.23 14.6269 196.369 14.3905C196.507 14.1541 196.585 13.8863 196.595 13.6118C196.584 13.2639 196.456 12.93 196.232 12.6648C195.366 11.6167 194.278 10.7779 193.047 10.2104C191.816 9.64295 190.473 9.36139 189.12 9.3865V9.38423ZM10.9984 12.6648C12.1557 12.6467 13.2956 12.9494 14.2934 13.5397C15.2635 14.1261 16.0535 14.9712 16.5759 15.9816C17.1354 17.0742 17.4214 18.2878 17.4092 19.517C17.426 20.7466 17.1397 21.9613 16.5759 23.0523C16.0518 24.052 15.2614 24.8851 14.2934 25.4582C13.2956 26.0485 12.1557 26.3511 10.9984 26.333C9.82983 26.351 8.67841 26.0486 7.66756 25.4582C6.69957 24.8851 5.90918 24.052 5.38498 23.0523C4.80504 21.9674 4.51774 20.7485 4.55172 19.517C4.52198 18.2859 4.80902 17.068 5.38498 15.9816C5.90747 14.9712 6.69748 14.1261 7.66756 13.5397C8.67863 12.95 9.83004 12.6484 10.9984 12.6671V12.6648ZM43.0145 12.6648C44.1622 12.6612 45.2891 12.973 46.2737 13.5667C47.2448 14.1625 48.0434 15.0046 48.5898 16.0086C49.1451 17.0899 49.431 18.2908 49.4231 19.5079C49.4396 20.7261 49.1532 21.9291 48.5898 23.0073C48.0434 24.0113 47.2448 24.8533 46.2737 25.4492C45.2754 26.0225 44.1459 26.3241 42.9966 26.3241C41.8472 26.3241 40.7177 26.0225 39.7195 25.4492C38.7475 24.8536 37.9481 24.0116 37.4011 23.0073C36.8211 21.9354 36.5336 20.728 36.5678 19.5079C36.5422 18.2888 36.8292 17.0836 37.4011 16.0086C37.9481 15.0043 38.7475 14.1622 39.7195 13.5667C40.7153 12.9689 41.8551 12.6578 43.0145 12.6671V12.6648ZM76.0072 12.6648C77.1549 12.6611 78.2819 12.9729 79.2664 13.5667C80.2383 14.1622 81.0378 15.0043 81.5848 16.0086C82.168 17.0806 82.4674 18.2857 82.4539 19.5079C82.4762 20.7312 82.1763 21.9385 81.5848 23.0073C81.0378 24.0116 80.2383 24.8536 79.2664 25.4492C78.2681 26.0225 77.1386 26.3241 75.9893 26.3241C74.8399 26.3241 73.7105 26.0225 72.7122 25.4492C71.7421 24.8628 70.9521 24.0176 70.4297 23.0073C69.8497 21.9354 69.5621 20.728 69.5964 19.5079C69.5708 18.2888 69.8578 17.0836 70.4297 16.0086C70.9522 14.9983 71.7422 14.1532 72.7122 13.5667C73.708 12.9689 74.8478 12.6578 76.0072 12.6671V12.6648ZM157.285 12.6648C158.433 12.6612 159.56 12.973 160.544 13.5667C161.515 14.1625 162.314 15.0046 162.86 16.0086C163.416 17.0899 163.702 18.2908 163.694 19.5079C163.71 20.7261 163.424 21.9291 162.86 23.0073C162.314 24.0113 161.515 24.8533 160.544 25.4492C159.546 26.0225 158.416 26.3241 157.267 26.3241C156.118 26.3241 154.988 26.0225 153.99 25.4492C153.018 24.8536 152.219 24.0116 151.672 23.0073C151.092 21.9354 150.804 20.728 150.838 19.5079C150.813 18.2888 151.1 17.0836 151.672 16.0086C152.219 15.0043 153.018 14.1622 153.99 13.5667C154.986 12.9689 156.126 12.6578 157.285 12.6671V12.6648Z" stroke="#7C60FF" stroke-width="1.2" mask="url(#path-1-outside-1)"/>
<path d="M12.6052 68.9039L7.82336 56.869H5.80027L1 68.9039H2.98632L4.16339 65.8646H9.44184L10.6189 68.9039H12.6052ZM6.81181 59.0524L8.83492 64.2926H4.77032L6.81181 59.0524Z" fill="#39426A"/>
<path d="M20.0513 65.1834C20.0513 66.8777 18.6903 67.5066 17.5684 67.5066C16.4649 67.5066 15.6189 66.7031 15.6189 65.3581V60.7467H13.8165V65.4105C13.7981 67.7336 15.1039 69.1135 17.2742 69.1135C18.1754 69.1135 19.5548 68.6594 20.0513 67.6638V68.9039H21.8537V60.7467H20.0513V65.1834Z" fill="#39426A"/>
<path d="M27.0613 60.7467V57.69H25.259V60.7467H23.714V62.179H25.259V68.9039H27.0613V62.179H28.9005V60.7467H27.0613Z" fill="#39426A"/>
<path d="M34.387 69.1135C36.8332 69.1135 38.9114 67.4017 38.9114 64.8166C38.9114 62.2314 36.8332 60.5371 34.387 60.5371C31.9409 60.5371 29.881 62.2314 29.881 64.8166C29.881 67.4017 31.9409 69.1135 34.387 69.1135ZM34.387 67.5066C32.9157 67.5066 31.6834 66.4061 31.6834 64.8166C31.6834 63.2445 32.9157 62.1441 34.387 62.1441C35.8584 62.1441 37.109 63.2445 37.109 64.8166C37.109 66.4061 35.8584 67.5066 34.387 67.5066Z" fill="#39426A"/>
<path d="M51.2919 60.5371C50.4274 60.5371 49.0848 60.8341 48.3492 62.2489C47.8342 61.1659 46.7859 60.5371 45.5352 60.5371C44.3581 60.5371 43.1995 61.131 42.85 62.0917V60.7467H41.0476V68.9039H42.85V64.5197C42.85 62.8603 43.9903 62.179 45.1122 62.179C46.1789 62.179 46.9146 63 46.9146 64.3275V68.9039H48.7354V64.8341C48.7354 63.1223 49.4711 62.1616 50.8872 62.179C52.0459 62.179 52.7816 63 52.7816 64.3275V68.9039H54.6024V64.2402C54.6024 61.917 53.4437 60.5371 51.2919 60.5371Z" fill="#39426A"/>
<path d="M63.8526 61.9694C63.3008 61.0437 62.1238 60.5371 60.8731 60.5371C58.4454 60.5371 56.6246 62.3886 56.6246 64.8166C56.6246 67.3319 58.5558 69.1135 60.7996 69.1135C62.1238 69.1135 63.3008 68.4673 63.8526 67.524V68.9039H65.655V60.7467H63.8526V61.9694ZM61.1122 67.5066C59.6041 67.5066 58.4454 66.2838 58.4454 64.8166C58.4454 63.3668 59.6041 62.1441 61.0754 62.1441C62.4548 62.1441 63.8342 63.2445 63.8342 64.8166C63.8342 66.3537 62.5468 67.5066 61.1122 67.5066Z" fill="#39426A"/>
<path d="M70.8856 60.7467V57.69H69.0832V60.7467H67.5383V62.179H69.0832V68.9039H70.8856V62.179H72.7248V60.7467H70.8856Z" fill="#39426A"/>
<path d="M82.4598 64.7817C82.4598 62.214 80.6022 60.5371 78.1561 60.5371C75.71 60.5371 73.7237 62.214 73.7237 64.7991C73.7237 67.3843 75.6732 69.1135 78.1561 69.1135C79.793 69.1135 81.3379 68.3799 82.092 67.0175L80.6574 66.3362C80.1792 67.0873 79.2412 67.524 78.2297 67.524C76.8503 67.524 75.8204 66.8428 75.5813 65.5153H82.423C82.4414 65.2533 82.4598 65.0087 82.4598 64.7817ZM75.5997 64.1354C75.8571 62.7729 76.8503 62.1266 78.1745 62.1266C79.4987 62.1266 80.4735 62.8603 80.6574 64.1354H75.5997Z" fill="#39426A"/>
<path d="M90.5627 71V55H89.3856V71H90.5627Z" fill="#39426A"/>
<path d="M105.926 56.869H98.4409V68.9039H100.335V63.8035H104.768V62.1616H100.335V58.5109H105.926V56.869Z" fill="#39426A"/>
<path d="M113.268 65.1834C113.268 66.8777 111.907 67.5066 110.785 67.5066C109.681 67.5066 108.835 66.7031 108.835 65.3581V60.7467H107.033V65.4105C107.014 67.7336 108.32 69.1135 110.491 69.1135C111.392 69.1135 112.771 68.6594 113.268 67.6638V68.9039H115.07V60.7467H113.268V65.1834Z" fill="#39426A"/>
<path d="M122.356 60.5371C121.436 60.5371 120.057 60.9913 119.56 62.0044V60.7467H117.758V68.9039H119.56V64.5197C119.56 62.8253 120.921 62.214 122.043 62.214C123.147 62.214 123.993 63.0175 123.993 64.345V68.9039H125.795V64.2402C125.814 61.917 124.526 60.5371 122.356 60.5371Z" fill="#39426A"/>
<path d="M135.067 61.952C134.497 61.0262 133.302 60.5371 132.088 60.5371C129.771 60.5371 127.839 62.214 127.839 64.8166C127.839 67.4017 129.771 69.1135 132.106 69.1135C133.265 69.1135 134.497 68.607 135.067 67.6812V68.9039H136.87V56.31H135.067V61.952ZM132.309 67.5066C130.837 67.5066 129.642 66.3188 129.642 64.7991C129.642 63.262 130.837 62.1441 132.309 62.1441C133.633 62.1441 135.049 63.1572 135.049 64.7991C135.049 66.441 133.762 67.5066 132.309 67.5066Z" fill="#39426A"/>
<path d="M145.559 71V55H144.381V71H145.559Z" fill="#39426A"/>
<path d="M160.757 65.5677L155.276 56.869H153.437V68.9039H155.331V60.1354L160.867 68.9039H162.651V56.869H160.757V65.5677Z" fill="#39426A"/>
<path d="M173.7 64.7817C173.7 62.214 171.843 60.5371 169.397 60.5371C166.951 60.5371 164.964 62.214 164.964 64.7991C164.964 67.3843 166.914 69.1135 169.397 69.1135C171.034 69.1135 172.579 68.3799 173.333 67.0175L171.898 66.3362C171.42 67.0873 170.482 67.524 169.47 67.524C168.091 67.524 167.061 66.8428 166.822 65.5153H173.664C173.682 65.2533 173.7 65.0087 173.7 64.7817ZM166.84 64.1354C167.098 62.7729 168.091 62.1266 169.415 62.1266C170.739 62.1266 171.714 62.8603 171.898 64.1354H166.84Z" fill="#39426A"/>
<path d="M178.201 60.7467V57.69H176.399V60.7467H174.854V62.179H176.399V68.9039H178.201V62.179H180.04V60.7467H178.201Z" fill="#39426A"/>
<path d="M190.415 66.3188L188.355 60.7467H186.663L184.621 66.3188L182.561 60.7467H180.612L183.867 68.9039H185.357L187.509 63.0524L189.734 68.9039H191.261L194.406 60.7467H192.456L190.415 66.3188Z" fill="#39426A"/>
<path d="M199.806 69.1135C202.252 69.1135 204.33 67.4017 204.33 64.8166C204.33 62.2314 202.252 60.5371 199.806 60.5371C197.36 60.5371 195.3 62.2314 195.3 64.8166C195.3 67.4017 197.36 69.1135 199.806 69.1135ZM199.806 67.5066C198.334 67.5066 197.102 66.4061 197.102 64.8166C197.102 63.2445 198.334 62.1441 199.806 62.1441C201.277 62.1441 202.528 63.2445 202.528 64.8166C202.528 66.4061 201.277 67.5066 199.806 67.5066Z" fill="#39426A"/>
<path d="M210.696 60.5371C209.593 60.5371 208.728 61.1485 208.287 62.5808V60.7467H206.466V68.9039H208.287V65.9694C208.287 63.7686 209.023 62.179 210.586 62.179C210.935 62.179 211.377 62.2489 211.855 62.4585L212.168 60.8341C211.892 60.6769 211.285 60.5371 210.696 60.5371Z" fill="#39426A"/>
<path d="M217.126 64.2751L220.749 60.7467H218.303L215.489 63.524V56.31H213.686V68.9039H215.489V65.0262L219.241 68.9039H221.595L217.126 64.2751Z" fill="#39426A"/>
</svg>
