<svg width="226" height="74" viewBox="0 0 226 74" fill="none" xmlns="http://www.w3.org/2000/svg">
<mask id="path-1-outside-1" maskUnits="userSpaceOnUse" x="0" y="0" width="226" height="39" fill="black">
<rect fill="white" width="226" height="39"/>
<path d="M211.421 1.00111C211.181 0.99257 210.941 1.03337 210.717 1.12098C210.493 1.20858 210.289 1.34118 210.117 1.51071C209.957 1.68041 209.833 1.88099 209.752 2.10033C209.671 2.31967 209.636 2.55323 209.647 2.78691V27.6836C209.625 27.9237 209.656 28.1656 209.737 28.3924C209.818 28.6191 209.948 28.8251 210.118 28.9956C210.287 29.166 210.492 29.2969 210.717 29.3788C210.942 29.4607 211.182 29.4915 211.421 29.4693C211.653 29.4806 211.885 29.4445 212.103 29.3631C212.321 29.2817 212.52 29.1568 212.689 28.9959C212.857 28.8231 212.989 28.6176 213.076 28.3921C213.163 28.1665 213.203 27.9254 213.195 27.6836V22.1054L215.005 20.5023L221.886 29.0702C222.033 29.2789 222.229 29.448 222.456 29.5624C222.684 29.6769 222.936 29.7332 223.19 29.7264C223.614 29.7188 224.023 29.5644 224.348 29.289C224.554 29.1302 224.72 28.9252 224.833 28.6903C224.946 28.4554 225.003 28.1972 225 27.9361C225.007 27.5343 224.865 27.1443 224.601 26.8425L217.576 18.1664L224.24 12.1891C224.424 12.0409 224.572 11.8524 224.673 11.6379C224.773 11.4233 224.824 11.1885 224.821 10.9513C224.811 10.5291 224.643 10.1263 224.35 9.82392C224.209 9.65109 224.034 9.51 223.835 9.40983C223.636 9.30965 223.419 9.25262 223.197 9.24241C222.975 9.23221 222.753 9.26905 222.546 9.35058C222.34 9.43211 222.152 9.55651 221.996 9.71568L213.197 17.6253V2.78911C213.203 2.553 213.161 2.3182 213.074 2.09889C212.987 1.87957 212.857 1.68033 212.691 1.51332C212.525 1.34632 212.327 1.21504 212.109 1.12737C211.891 1.03971 211.658 0.997502 211.423 1.00338L211.421 1.00111ZM128.904 3.1882C128.664 3.18009 128.424 3.22132 128.2 3.3093C127.976 3.39729 127.772 3.53024 127.601 3.70007C127.431 3.87183 127.298 4.07707 127.211 4.3029C127.124 4.52873 127.084 4.77028 127.095 5.01232V22.3985C127.061 23.653 127.348 24.8953 127.928 26.0061C128.436 27.0551 129.227 27.9394 130.21 28.5584C131.188 29.1686 132.32 29.4818 133.47 29.4603H134.121C134.675 29.4939 135.219 29.3114 135.642 28.9508C135.839 28.795 135.997 28.5954 136.104 28.3676C136.211 28.1399 136.264 27.8903 136.258 27.6385C136.258 27.1594 136.091 26.6954 135.788 26.3263C135.655 26.1663 135.489 26.0377 135.301 25.9496C135.113 25.8615 134.909 25.8162 134.701 25.8167H133.47C133.089 25.8226 132.712 25.7361 132.372 25.5646C132.032 25.3931 131.737 25.1416 131.514 24.8313C130.964 24.1412 130.681 23.2736 130.719 22.3895V13.4021H133.797C134.248 13.4203 134.689 13.2637 135.029 12.9647C135.176 12.8239 135.294 12.6544 135.375 12.4665C135.456 12.2785 135.498 12.076 135.499 11.8712C135.502 11.6551 135.461 11.4407 135.381 11.2406C135.3 11.0404 135.18 10.8584 135.029 10.7055C134.689 10.4065 134.248 10.2499 133.797 10.2681H130.719V5.01907C130.73 4.77683 130.69 4.53497 130.603 4.30889C130.516 4.08281 130.383 3.87749 130.213 3.70592C130.043 3.53435 129.839 3.40029 129.614 3.31233C129.39 3.22437 129.15 3.18444 128.909 3.19501L128.904 3.1882ZM10.9984 9.38423C9.18692 9.35031 7.39918 9.8033 5.81954 10.6965C4.32573 11.5261 3.09563 12.7643 2.27141 14.2679C1.39561 15.8742 0.958175 17.6853 1.00359 19.517C0.95753 21.324 1.35531 23.1147 2.16166 24.7299C2.90784 26.2397 4.06865 27.5023 5.50632 28.3679C6.944 29.2335 8.59819 29.6659 10.2726 29.6136C11.7383 29.6387 13.1814 29.248 14.4368 28.4863C15.6863 27.7262 16.7116 26.6444 17.407 25.3522V27.1379C17.4445 28.5138 17.1461 29.878 16.5379 31.1108C16.0031 32.1436 15.2024 33.0126 14.2195 33.627C13.241 34.197 12.1264 34.487 10.9962 34.4658C9.84282 34.4869 8.698 34.2634 7.63618 33.8097C6.65388 33.3887 5.80266 32.7086 5.17222 31.8413C5.0024 31.6046 4.77927 31.4116 4.52113 31.2784C4.263 31.1451 3.97718 31.0754 3.68709 31.0747C3.32408 31.0776 2.97071 31.1925 2.67462 31.4039C2.44822 31.5404 2.25972 31.7323 2.12659 31.9617C1.99346 32.191 1.92 32.4506 1.91304 32.7161C1.9088 33.0959 2.05183 33.4623 2.31174 33.7375C3.30043 35.0337 4.5946 36.0613 6.07715 36.7273C7.60067 37.4211 9.25692 37.7697 10.929 37.7487C12.7456 37.7824 14.5367 37.3145 16.1078 36.3958C17.6212 35.4981 18.8608 34.1996 19.6918 32.6418C20.5428 31.026 20.9787 29.2215 20.9596 27.3927V19.5192C20.9932 17.6844 20.5434 15.8733 19.6559 14.2702C18.8215 12.7743 17.5939 11.5387 16.1078 10.6988C14.5501 9.81384 12.7869 9.36101 10.9984 9.3865V9.38423ZM43.0145 9.38423C41.224 9.37318 39.4625 9.83999 37.9096 10.7371C36.4093 11.6037 35.1707 12.8637 34.3256 14.3829C33.4473 15.9496 32.9974 17.7227 33.0219 19.5215C32.9947 21.3224 33.4054 23.1027 34.2181 24.7073C34.98 26.1936 36.132 27.4413 37.5489 28.3149C38.9678 29.2167 40.6153 29.6865 42.2932 29.6678H51.2308C51.6915 29.6629 52.1327 29.4796 52.4628 29.1559C52.6271 28.9957 52.7569 28.8031 52.844 28.5901C52.9311 28.3771 52.9737 28.1484 52.969 27.9181V19.535C52.9753 17.7333 52.5119 15.9615 51.625 14.3965C50.7799 12.8773 49.5413 11.6172 48.041 10.7506C46.5152 9.8555 44.7805 9.38477 43.0145 9.3865V9.38423ZM67.7865 9.38423C67.5577 9.37951 67.3304 9.42234 67.1188 9.51001C66.9072 9.59769 66.7159 9.72829 66.5567 9.89376C66.3909 10.0534 66.2602 10.2463 66.173 10.4599C66.0859 10.6734 66.0441 10.9031 66.0505 11.1339V36.1388C66.0354 36.3868 66.0729 36.6351 66.1603 36.8674C66.2477 37.0997 66.3832 37.3105 66.5577 37.4862C66.7322 37.6618 66.9417 37.7982 67.1725 37.8862C67.4032 37.9742 67.6499 38.0119 67.8962 37.9967C68.1367 38.0069 68.3766 37.9668 68.601 37.8791C68.8253 37.7915 69.0293 37.658 69.1999 37.4871C69.3845 37.3163 69.5291 37.1063 69.6232 36.8723C69.7173 36.6384 69.7587 36.3863 69.7442 36.1343V26.2992C70.5652 27.3453 71.6196 28.1819 72.8219 28.7411C74.184 29.3842 75.6822 29.6807 77.1848 29.6044C78.6873 29.5281 80.1483 29.0814 81.4392 28.3036C82.8561 27.4301 84.0081 26.1823 84.77 24.6961C85.5941 23.0942 86.017 21.314 86.002 19.5102C86.0265 17.7115 85.5767 15.9384 84.6983 14.3717C83.8391 12.8504 82.5877 11.5907 81.0763 10.7258C79.5344 9.83336 77.7858 9.36666 76.0072 9.37294H67.7865V9.38423ZM106.007 9.38423C104.773 9.37921 103.548 9.58897 102.385 10.0043C101.325 10.3784 100.378 11.0187 99.6323 11.8644C98.9206 12.7065 98.546 13.7852 98.5818 14.8902C98.5818 17.8417 100.9 19.774 105.526 20.6489C106.86 20.845 108.149 21.277 109.334 21.925C109.66 22.1159 109.934 22.3863 110.129 22.7113C110.325 23.0363 110.437 23.4055 110.454 23.7852C110.454 24.1735 110.346 24.5541 110.141 24.8831C109.936 25.2122 109.643 25.4764 109.296 25.6453C108.316 26.1655 107.214 26.4049 106.108 26.3375C105.104 26.346 104.108 26.16 103.174 25.7896C102.386 25.5155 101.677 25.0509 101.108 24.4368C100.934 24.2406 100.723 24.0816 100.487 23.9689C100.25 23.8562 99.9943 23.7922 99.7331 23.7807C99.2673 23.81 98.823 23.9885 98.4653 24.2902C98.2341 24.4455 98.0462 24.6578 97.9196 24.9068C97.793 25.1559 97.7317 25.4334 97.7418 25.713C97.7346 25.9239 97.773 26.1339 97.8542 26.3285C97.9354 26.5232 98.0575 26.6978 98.2122 26.8403C99.1766 27.7661 100.343 28.4525 101.617 28.8447C103.107 29.3644 104.675 29.6237 106.251 29.6114C107.689 29.6484 109.118 29.3874 110.451 28.8447C111.533 28.3999 112.465 27.6537 113.139 26.6938C113.727 25.7824 114.039 24.7184 114.035 23.6319C114.048 22.9321 113.905 22.2382 113.617 21.6012C113.329 20.9641 112.904 20.3999 112.371 19.9499C110.714 18.7729 108.802 18.0108 106.794 17.7267C105.791 17.5622 104.808 17.2932 103.861 16.924C103.331 16.7534 102.856 16.4419 102.486 16.0222C102.227 15.6631 102.099 15.2251 102.123 14.782C102.121 14.4433 102.22 14.1117 102.407 13.8303C102.595 13.5489 102.862 13.3306 103.174 13.2037C104.033 12.7952 104.976 12.5952 105.927 12.6198C106.762 12.6147 107.593 12.7379 108.391 12.985C109.101 13.2411 109.754 13.6374 110.31 14.1507C110.534 14.3737 110.8 14.5498 111.093 14.6686C111.385 14.7874 111.698 14.8467 112.013 14.8429C112.374 14.8646 112.732 14.7621 113.027 14.552C113.21 14.425 113.36 14.2571 113.467 14.0614C113.574 13.8658 113.635 13.6478 113.643 13.4247C113.609 12.996 113.445 12.5883 113.173 12.2567C112.368 11.3206 111.348 10.5956 110.203 10.1441C108.867 9.61847 107.442 9.36111 106.007 9.3865V9.38423ZM157.285 9.38423C155.494 9.37289 153.732 9.8397 152.178 10.7371C150.678 11.6036 149.439 12.8636 148.594 14.3829C147.716 15.9496 147.266 17.7227 147.29 19.5215C147.263 21.3224 147.674 23.1027 148.486 24.7073C149.248 26.1936 150.4 27.4413 151.817 28.3149C153.236 29.2167 154.884 29.6865 156.562 29.6678H165.506C165.967 29.6629 166.408 29.4796 166.738 29.1559C166.902 28.9957 167.032 28.8031 167.119 28.5901C167.206 28.3771 167.249 28.1484 167.244 27.9181V19.535C167.25 17.7333 166.787 15.9615 165.9 14.3965C165.055 12.8773 163.816 11.6172 162.316 10.7506C160.789 9.85472 159.053 9.38397 157.285 9.3865V9.38423ZM189.12 9.38423C187.343 9.3549 185.592 9.80824 184.051 10.6965C182.565 11.5413 181.347 12.792 180.538 14.3041C179.696 15.9085 179.272 17.7024 179.309 19.517C179.27 21.3278 179.707 23.1168 180.576 24.7029C181.423 26.2109 182.662 27.458 184.16 28.3104C185.731 29.2008 187.51 29.6538 189.312 29.6226C191.72 29.7045 194.062 28.8271 195.831 27.1808C195.966 27.0553 196.075 26.9031 196.15 26.7336C196.224 26.5641 196.264 26.3809 196.265 26.1955C196.25 25.9402 196.18 25.6911 196.062 25.4649C195.943 25.2386 195.778 25.0404 195.578 24.8832C195.307 24.673 194.976 24.5574 194.635 24.554C194.144 24.5745 193.673 24.7531 193.291 25.0636C192.162 25.9629 190.745 26.4167 189.308 26.3398C188.13 26.3611 186.968 26.0586 185.948 25.4649C184.98 24.8919 184.19 24.0588 183.665 23.0592C183.115 21.9647 182.842 20.7502 182.87 19.5238C182.786 17.7056 183.409 15.9259 184.608 14.5633C185.185 13.9402 185.887 13.4486 186.668 13.1215C187.449 12.7944 188.29 12.6395 189.135 12.6671C189.967 12.6657 190.791 12.8265 191.561 13.1406C192.321 13.4616 193.001 13.9474 193.553 14.5633C193.722 14.775 193.938 14.9443 194.183 15.0581C194.428 15.1719 194.696 15.2271 194.966 15.2194C195.263 15.225 195.555 15.1359 195.799 14.9647C196.034 14.8243 196.23 14.6269 196.369 14.3905C196.507 14.1541 196.585 13.8863 196.595 13.6118C196.584 13.2639 196.456 12.93 196.232 12.6648C195.366 11.6167 194.278 10.7779 193.047 10.2104C191.816 9.64295 190.473 9.36139 189.12 9.3865V9.38423ZM10.9984 12.6648C12.1557 12.6467 13.2956 12.9494 14.2934 13.5397C15.2635 14.1261 16.0535 14.9712 16.5759 15.9816C17.1354 17.0742 17.4214 18.2878 17.4092 19.517C17.426 20.7466 17.1397 21.9613 16.5759 23.0523C16.0518 24.052 15.2614 24.8851 14.2934 25.4582C13.2956 26.0485 12.1557 26.3511 10.9984 26.333C9.82983 26.351 8.67841 26.0486 7.66756 25.4582C6.69957 24.8851 5.90918 24.052 5.38498 23.0523C4.80504 21.9674 4.51774 20.7485 4.55172 19.517C4.52198 18.2859 4.80902 17.068 5.38498 15.9816C5.90747 14.9712 6.69748 14.1261 7.66756 13.5397C8.67863 12.95 9.83004 12.6484 10.9984 12.6671V12.6648ZM43.0145 12.6648C44.1622 12.6612 45.2891 12.973 46.2737 13.5667C47.2448 14.1625 48.0434 15.0046 48.5898 16.0086C49.1451 17.0899 49.431 18.2908 49.4231 19.5079C49.4396 20.7261 49.1532 21.9291 48.5898 23.0073C48.0434 24.0113 47.2448 24.8533 46.2737 25.4492C45.2754 26.0225 44.1459 26.3241 42.9966 26.3241C41.8472 26.3241 40.7177 26.0225 39.7195 25.4492C38.7475 24.8536 37.9481 24.0116 37.4011 23.0073C36.8211 21.9354 36.5336 20.728 36.5678 19.5079C36.5422 18.2888 36.8292 17.0836 37.4011 16.0086C37.9481 15.0043 38.7475 14.1622 39.7195 13.5667C40.7153 12.9689 41.8551 12.6578 43.0145 12.6671V12.6648ZM76.0072 12.6648C77.1549 12.6611 78.2819 12.9729 79.2664 13.5667C80.2383 14.1622 81.0378 15.0043 81.5848 16.0086C82.168 17.0806 82.4674 18.2857 82.4539 19.5079C82.4762 20.7312 82.1763 21.9385 81.5848 23.0073C81.0378 24.0116 80.2383 24.8536 79.2664 25.4492C78.2681 26.0225 77.1386 26.3241 75.9893 26.3241C74.8399 26.3241 73.7105 26.0225 72.7122 25.4492C71.7421 24.8628 70.9521 24.0176 70.4297 23.0073C69.8497 21.9354 69.5621 20.728 69.5964 19.5079C69.5708 18.2888 69.8578 17.0836 70.4297 16.0086C70.9522 14.9983 71.7422 14.1532 72.7122 13.5667C73.708 12.9689 74.8478 12.6578 76.0072 12.6671V12.6648ZM157.285 12.6648C158.433 12.6612 159.56 12.973 160.544 13.5667C161.515 14.1625 162.314 15.0046 162.86 16.0086C163.416 17.0899 163.702 18.2908 163.694 19.5079C163.71 20.7261 163.424 21.9291 162.86 23.0073C162.314 24.0113 161.515 24.8533 160.544 25.4492C159.546 26.0225 158.416 26.3241 157.267 26.3241C156.118 26.3241 154.988 26.0225 153.99 25.4492C153.018 24.8536 152.219 24.0116 151.672 23.0073C151.092 21.9354 150.804 20.728 150.838 19.5079C150.813 18.2888 151.1 17.0836 151.672 16.0086C152.219 15.0043 153.018 14.1622 153.99 13.5667C154.986 12.9689 156.126 12.6578 157.285 12.6671V12.6648Z"/>
</mask>
<path d="M211.421 1.00111C211.181 0.99257 210.941 1.03337 210.717 1.12098C210.493 1.20858 210.289 1.34118 210.117 1.51071C209.957 1.68041 209.833 1.88099 209.752 2.10033C209.671 2.31967 209.636 2.55323 209.647 2.78691V27.6836C209.625 27.9237 209.656 28.1656 209.737 28.3924C209.818 28.6191 209.948 28.8251 210.118 28.9956C210.287 29.166 210.492 29.2969 210.717 29.3788C210.942 29.4607 211.182 29.4915 211.421 29.4693C211.653 29.4806 211.885 29.4445 212.103 29.3631C212.321 29.2817 212.52 29.1568 212.689 28.9959C212.857 28.8231 212.989 28.6176 213.076 28.3921C213.163 28.1665 213.203 27.9254 213.195 27.6836V22.1054L215.005 20.5023L221.886 29.0702C222.033 29.2789 222.229 29.448 222.456 29.5624C222.684 29.6769 222.936 29.7332 223.19 29.7264C223.614 29.7188 224.023 29.5644 224.348 29.289C224.554 29.1302 224.72 28.9252 224.833 28.6903C224.946 28.4554 225.003 28.1972 225 27.9361C225.007 27.5343 224.865 27.1443 224.601 26.8425L217.576 18.1664L224.24 12.1891C224.424 12.0409 224.572 11.8524 224.673 11.6379C224.773 11.4233 224.824 11.1885 224.821 10.9513C224.811 10.5291 224.643 10.1263 224.35 9.82392C224.209 9.65109 224.034 9.51 223.835 9.40983C223.636 9.30965 223.419 9.25262 223.197 9.24241C222.975 9.23221 222.753 9.26905 222.546 9.35058C222.34 9.43211 222.152 9.55651 221.996 9.71568L213.197 17.6253V2.78911C213.203 2.553 213.161 2.3182 213.074 2.09889C212.987 1.87957 212.857 1.68033 212.691 1.51332C212.525 1.34632 212.327 1.21504 212.109 1.12737C211.891 1.03971 211.658 0.997502 211.423 1.00338L211.421 1.00111ZM128.904 3.1882C128.664 3.18009 128.424 3.22132 128.2 3.3093C127.976 3.39729 127.772 3.53024 127.601 3.70007C127.431 3.87183 127.298 4.07707 127.211 4.3029C127.124 4.52873 127.084 4.77028 127.095 5.01232V22.3985C127.061 23.653 127.348 24.8953 127.928 26.0061C128.436 27.0551 129.227 27.9394 130.21 28.5584C131.188 29.1686 132.32 29.4818 133.47 29.4603H134.121C134.675 29.4939 135.219 29.3114 135.642 28.9508C135.839 28.795 135.997 28.5954 136.104 28.3676C136.211 28.1399 136.264 27.8903 136.258 27.6385C136.258 27.1594 136.091 26.6954 135.788 26.3263C135.655 26.1663 135.489 26.0377 135.301 25.9496C135.113 25.8615 134.909 25.8162 134.701 25.8167H133.47C133.089 25.8226 132.712 25.7361 132.372 25.5646C132.032 25.3931 131.737 25.1416 131.514 24.8313C130.964 24.1412 130.681 23.2736 130.719 22.3895V13.4021H133.797C134.248 13.4203 134.689 13.2637 135.029 12.9647C135.176 12.8239 135.294 12.6544 135.375 12.4665C135.456 12.2785 135.498 12.076 135.499 11.8712C135.502 11.6551 135.461 11.4407 135.381 11.2406C135.3 11.0404 135.18 10.8584 135.029 10.7055C134.689 10.4065 134.248 10.2499 133.797 10.2681H130.719V5.01907C130.73 4.77683 130.69 4.53497 130.603 4.30889C130.516 4.08281 130.383 3.87749 130.213 3.70592C130.043 3.53435 129.839 3.40029 129.614 3.31233C129.39 3.22437 129.15 3.18444 128.909 3.19501L128.904 3.1882ZM10.9984 9.38423C9.18692 9.35031 7.39918 9.8033 5.81954 10.6965C4.32573 11.5261 3.09563 12.7643 2.27141 14.2679C1.39561 15.8742 0.958175 17.6853 1.00359 19.517C0.95753 21.324 1.35531 23.1147 2.16166 24.7299C2.90784 26.2397 4.06865 27.5023 5.50632 28.3679C6.944 29.2335 8.59819 29.6659 10.2726 29.6136C11.7383 29.6387 13.1814 29.248 14.4368 28.4863C15.6863 27.7262 16.7116 26.6444 17.407 25.3522V27.1379C17.4445 28.5138 17.1461 29.878 16.5379 31.1108C16.0031 32.1436 15.2024 33.0126 14.2195 33.627C13.241 34.197 12.1264 34.487 10.9962 34.4658C9.84282 34.4869 8.698 34.2634 7.63618 33.8097C6.65388 33.3887 5.80266 32.7086 5.17222 31.8413C5.0024 31.6046 4.77927 31.4116 4.52113 31.2784C4.263 31.1451 3.97718 31.0754 3.68709 31.0747C3.32408 31.0776 2.97071 31.1925 2.67462 31.4039C2.44822 31.5404 2.25972 31.7323 2.12659 31.9617C1.99346 32.191 1.92 32.4506 1.91304 32.7161C1.9088 33.0959 2.05183 33.4623 2.31174 33.7375C3.30043 35.0337 4.5946 36.0613 6.07715 36.7273C7.60067 37.4211 9.25692 37.7697 10.929 37.7487C12.7456 37.7824 14.5367 37.3145 16.1078 36.3958C17.6212 35.4981 18.8608 34.1996 19.6918 32.6418C20.5428 31.026 20.9787 29.2215 20.9596 27.3927V19.5192C20.9932 17.6844 20.5434 15.8733 19.6559 14.2702C18.8215 12.7743 17.5939 11.5387 16.1078 10.6988C14.5501 9.81384 12.7869 9.36101 10.9984 9.3865V9.38423ZM43.0145 9.38423C41.224 9.37318 39.4625 9.83999 37.9096 10.7371C36.4093 11.6037 35.1707 12.8637 34.3256 14.3829C33.4473 15.9496 32.9974 17.7227 33.0219 19.5215C32.9947 21.3224 33.4054 23.1027 34.2181 24.7073C34.98 26.1936 36.132 27.4413 37.5489 28.3149C38.9678 29.2167 40.6153 29.6865 42.2932 29.6678H51.2308C51.6915 29.6629 52.1327 29.4796 52.4628 29.1559C52.6271 28.9957 52.7569 28.8031 52.844 28.5901C52.9311 28.3771 52.9737 28.1484 52.969 27.9181V19.535C52.9753 17.7333 52.5119 15.9615 51.625 14.3965C50.7799 12.8773 49.5413 11.6172 48.041 10.7506C46.5152 9.8555 44.7805 9.38477 43.0145 9.3865V9.38423ZM67.7865 9.38423C67.5577 9.37951 67.3304 9.42234 67.1188 9.51001C66.9072 9.59769 66.7159 9.72829 66.5567 9.89376C66.3909 10.0534 66.2602 10.2463 66.173 10.4599C66.0859 10.6734 66.0441 10.9031 66.0505 11.1339V36.1388C66.0354 36.3868 66.0729 36.6351 66.1603 36.8674C66.2477 37.0997 66.3832 37.3105 66.5577 37.4862C66.7322 37.6618 66.9417 37.7982 67.1725 37.8862C67.4032 37.9742 67.6499 38.0119 67.8962 37.9967C68.1367 38.0069 68.3766 37.9668 68.601 37.8791C68.8253 37.7915 69.0293 37.658 69.1999 37.4871C69.3845 37.3163 69.5291 37.1063 69.6232 36.8723C69.7173 36.6384 69.7587 36.3863 69.7442 36.1343V26.2992C70.5652 27.3453 71.6196 28.1819 72.8219 28.7411C74.184 29.3842 75.6822 29.6807 77.1848 29.6044C78.6873 29.5281 80.1483 29.0814 81.4392 28.3036C82.8561 27.4301 84.0081 26.1823 84.77 24.6961C85.5941 23.0942 86.017 21.314 86.002 19.5102C86.0265 17.7115 85.5767 15.9384 84.6983 14.3717C83.8391 12.8504 82.5877 11.5907 81.0763 10.7258C79.5344 9.83336 77.7858 9.36666 76.0072 9.37294H67.7865V9.38423ZM106.007 9.38423C104.773 9.37921 103.548 9.58897 102.385 10.0043C101.325 10.3784 100.378 11.0187 99.6323 11.8644C98.9206 12.7065 98.546 13.7852 98.5818 14.8902C98.5818 17.8417 100.9 19.774 105.526 20.6489C106.86 20.845 108.149 21.277 109.334 21.925C109.66 22.1159 109.934 22.3863 110.129 22.7113C110.325 23.0363 110.437 23.4055 110.454 23.7852C110.454 24.1735 110.346 24.5541 110.141 24.8831C109.936 25.2122 109.643 25.4764 109.296 25.6453C108.316 26.1655 107.214 26.4049 106.108 26.3375C105.104 26.346 104.108 26.16 103.174 25.7896C102.386 25.5155 101.677 25.0509 101.108 24.4368C100.934 24.2406 100.723 24.0816 100.487 23.9689C100.25 23.8562 99.9943 23.7922 99.7331 23.7807C99.2673 23.81 98.823 23.9885 98.4653 24.2902C98.2341 24.4455 98.0462 24.6578 97.9196 24.9068C97.793 25.1559 97.7317 25.4334 97.7418 25.713C97.7346 25.9239 97.773 26.1339 97.8542 26.3285C97.9354 26.5232 98.0575 26.6978 98.2122 26.8403C99.1766 27.7661 100.343 28.4525 101.617 28.8447C103.107 29.3644 104.675 29.6237 106.251 29.6114C107.689 29.6484 109.118 29.3874 110.451 28.8447C111.533 28.3999 112.465 27.6537 113.139 26.6938C113.727 25.7824 114.039 24.7184 114.035 23.6319C114.048 22.9321 113.905 22.2382 113.617 21.6012C113.329 20.9641 112.904 20.3999 112.371 19.9499C110.714 18.7729 108.802 18.0108 106.794 17.7267C105.791 17.5622 104.808 17.2932 103.861 16.924C103.331 16.7534 102.856 16.4419 102.486 16.0222C102.227 15.6631 102.099 15.2251 102.123 14.782C102.121 14.4433 102.22 14.1117 102.407 13.8303C102.595 13.5489 102.862 13.3306 103.174 13.2037C104.033 12.7952 104.976 12.5952 105.927 12.6198C106.762 12.6147 107.593 12.7379 108.391 12.985C109.101 13.2411 109.754 13.6374 110.31 14.1507C110.534 14.3737 110.8 14.5498 111.093 14.6686C111.385 14.7874 111.698 14.8467 112.013 14.8429C112.374 14.8646 112.732 14.7621 113.027 14.552C113.21 14.425 113.36 14.2571 113.467 14.0614C113.574 13.8658 113.635 13.6478 113.643 13.4247C113.609 12.996 113.445 12.5883 113.173 12.2567C112.368 11.3206 111.348 10.5956 110.203 10.1441C108.867 9.61847 107.442 9.36111 106.007 9.3865V9.38423ZM157.285 9.38423C155.494 9.37289 153.732 9.8397 152.178 10.7371C150.678 11.6036 149.439 12.8636 148.594 14.3829C147.716 15.9496 147.266 17.7227 147.29 19.5215C147.263 21.3224 147.674 23.1027 148.486 24.7073C149.248 26.1936 150.4 27.4413 151.817 28.3149C153.236 29.2167 154.884 29.6865 156.562 29.6678H165.506C165.967 29.6629 166.408 29.4796 166.738 29.1559C166.902 28.9957 167.032 28.8031 167.119 28.5901C167.206 28.3771 167.249 28.1484 167.244 27.9181V19.535C167.25 17.7333 166.787 15.9615 165.9 14.3965C165.055 12.8773 163.816 11.6172 162.316 10.7506C160.789 9.85472 159.053 9.38397 157.285 9.3865V9.38423ZM189.12 9.38423C187.343 9.3549 185.592 9.80824 184.051 10.6965C182.565 11.5413 181.347 12.792 180.538 14.3041C179.696 15.9085 179.272 17.7024 179.309 19.517C179.27 21.3278 179.707 23.1168 180.576 24.7029C181.423 26.2109 182.662 27.458 184.16 28.3104C185.731 29.2008 187.51 29.6538 189.312 29.6226C191.72 29.7045 194.062 28.8271 195.831 27.1808C195.966 27.0553 196.075 26.9031 196.15 26.7336C196.224 26.5641 196.264 26.3809 196.265 26.1955C196.25 25.9402 196.18 25.6911 196.062 25.4649C195.943 25.2386 195.778 25.0404 195.578 24.8832C195.307 24.673 194.976 24.5574 194.635 24.554C194.144 24.5745 193.673 24.7531 193.291 25.0636C192.162 25.9629 190.745 26.4167 189.308 26.3398C188.13 26.3611 186.968 26.0586 185.948 25.4649C184.98 24.8919 184.19 24.0588 183.665 23.0592C183.115 21.9647 182.842 20.7502 182.87 19.5238C182.786 17.7056 183.409 15.9259 184.608 14.5633C185.185 13.9402 185.887 13.4486 186.668 13.1215C187.449 12.7944 188.29 12.6395 189.135 12.6671C189.967 12.6657 190.791 12.8265 191.561 13.1406C192.321 13.4616 193.001 13.9474 193.553 14.5633C193.722 14.775 193.938 14.9443 194.183 15.0581C194.428 15.1719 194.696 15.2271 194.966 15.2194C195.263 15.225 195.555 15.1359 195.799 14.9647C196.034 14.8243 196.23 14.6269 196.369 14.3905C196.507 14.1541 196.585 13.8863 196.595 13.6118C196.584 13.2639 196.456 12.93 196.232 12.6648C195.366 11.6167 194.278 10.7779 193.047 10.2104C191.816 9.64295 190.473 9.36139 189.12 9.3865V9.38423ZM10.9984 12.6648C12.1557 12.6467 13.2956 12.9494 14.2934 13.5397C15.2635 14.1261 16.0535 14.9712 16.5759 15.9816C17.1354 17.0742 17.4214 18.2878 17.4092 19.517C17.426 20.7466 17.1397 21.9613 16.5759 23.0523C16.0518 24.052 15.2614 24.8851 14.2934 25.4582C13.2956 26.0485 12.1557 26.3511 10.9984 26.333C9.82983 26.351 8.67841 26.0486 7.66756 25.4582C6.69957 24.8851 5.90918 24.052 5.38498 23.0523C4.80504 21.9674 4.51774 20.7485 4.55172 19.517C4.52198 18.2859 4.80902 17.068 5.38498 15.9816C5.90747 14.9712 6.69748 14.1261 7.66756 13.5397C8.67863 12.95 9.83004 12.6484 10.9984 12.6671V12.6648ZM43.0145 12.6648C44.1622 12.6612 45.2891 12.973 46.2737 13.5667C47.2448 14.1625 48.0434 15.0046 48.5898 16.0086C49.1451 17.0899 49.431 18.2908 49.4231 19.5079C49.4396 20.7261 49.1532 21.9291 48.5898 23.0073C48.0434 24.0113 47.2448 24.8533 46.2737 25.4492C45.2754 26.0225 44.1459 26.3241 42.9966 26.3241C41.8472 26.3241 40.7177 26.0225 39.7195 25.4492C38.7475 24.8536 37.9481 24.0116 37.4011 23.0073C36.8211 21.9354 36.5336 20.728 36.5678 19.5079C36.5422 18.2888 36.8292 17.0836 37.4011 16.0086C37.9481 15.0043 38.7475 14.1622 39.7195 13.5667C40.7153 12.9689 41.8551 12.6578 43.0145 12.6671V12.6648ZM76.0072 12.6648C77.1549 12.6611 78.2819 12.9729 79.2664 13.5667C80.2383 14.1622 81.0378 15.0043 81.5848 16.0086C82.168 17.0806 82.4674 18.2857 82.4539 19.5079C82.4762 20.7312 82.1763 21.9385 81.5848 23.0073C81.0378 24.0116 80.2383 24.8536 79.2664 25.4492C78.2681 26.0225 77.1386 26.3241 75.9893 26.3241C74.8399 26.3241 73.7105 26.0225 72.7122 25.4492C71.7421 24.8628 70.9521 24.0176 70.4297 23.0073C69.8497 21.9354 69.5621 20.728 69.5964 19.5079C69.5708 18.2888 69.8578 17.0836 70.4297 16.0086C70.9522 14.9983 71.7422 14.1532 72.7122 13.5667C73.708 12.9689 74.8478 12.6578 76.0072 12.6671V12.6648ZM157.285 12.6648C158.433 12.6612 159.56 12.973 160.544 13.5667C161.515 14.1625 162.314 15.0046 162.86 16.0086C163.416 17.0899 163.702 18.2908 163.694 19.5079C163.71 20.7261 163.424 21.9291 162.86 23.0073C162.314 24.0113 161.515 24.8533 160.544 25.4492C159.546 26.0225 158.416 26.3241 157.267 26.3241C156.118 26.3241 154.988 26.0225 153.99 25.4492C153.018 24.8536 152.219 24.0116 151.672 23.0073C151.092 21.9354 150.804 20.728 150.838 19.5079C150.813 18.2888 151.1 17.0836 151.672 16.0086C152.219 15.0043 153.018 14.1622 153.99 13.5667C154.986 12.9689 156.126 12.6578 157.285 12.6671V12.6648Z" fill="#7C60FF"/>
<path d="M211.421 1.00111C211.181 0.99257 210.941 1.03337 210.717 1.12098C210.493 1.20858 210.289 1.34118 210.117 1.51071C209.957 1.68041 209.833 1.88099 209.752 2.10033C209.671 2.31967 209.636 2.55323 209.647 2.78691V27.6836C209.625 27.9237 209.656 28.1656 209.737 28.3924C209.818 28.6191 209.948 28.8251 210.118 28.9956C210.287 29.166 210.492 29.2969 210.717 29.3788C210.942 29.4607 211.182 29.4915 211.421 29.4693C211.653 29.4806 211.885 29.4445 212.103 29.3631C212.321 29.2817 212.52 29.1568 212.689 28.9959C212.857 28.8231 212.989 28.6176 213.076 28.3921C213.163 28.1665 213.203 27.9254 213.195 27.6836V22.1054L215.005 20.5023L221.886 29.0702C222.033 29.2789 222.229 29.448 222.456 29.5624C222.684 29.6769 222.936 29.7332 223.19 29.7264C223.614 29.7188 224.023 29.5644 224.348 29.289C224.554 29.1302 224.72 28.9252 224.833 28.6903C224.946 28.4554 225.003 28.1972 225 27.9361C225.007 27.5343 224.865 27.1443 224.601 26.8425L217.576 18.1664L224.24 12.1891C224.424 12.0409 224.572 11.8524 224.673 11.6379C224.773 11.4233 224.824 11.1885 224.821 10.9513C224.811 10.5291 224.643 10.1263 224.35 9.82392C224.209 9.65109 224.034 9.51 223.835 9.40983C223.636 9.30965 223.419 9.25262 223.197 9.24241C222.975 9.23221 222.753 9.26905 222.546 9.35058C222.34 9.43211 222.152 9.55651 221.996 9.71568L213.197 17.6253V2.78911C213.203 2.553 213.161 2.3182 213.074 2.09889C212.987 1.87957 212.857 1.68033 212.691 1.51332C212.525 1.34632 212.327 1.21504 212.109 1.12737C211.891 1.03971 211.658 0.997502 211.423 1.00338L211.421 1.00111ZM128.904 3.1882C128.664 3.18009 128.424 3.22132 128.2 3.3093C127.976 3.39729 127.772 3.53024 127.601 3.70007C127.431 3.87183 127.298 4.07707 127.211 4.3029C127.124 4.52873 127.084 4.77028 127.095 5.01232V22.3985C127.061 23.653 127.348 24.8953 127.928 26.0061C128.436 27.0551 129.227 27.9394 130.21 28.5584C131.188 29.1686 132.32 29.4818 133.47 29.4603H134.121C134.675 29.4939 135.219 29.3114 135.642 28.9508C135.839 28.795 135.997 28.5954 136.104 28.3676C136.211 28.1399 136.264 27.8903 136.258 27.6385C136.258 27.1594 136.091 26.6954 135.788 26.3263C135.655 26.1663 135.489 26.0377 135.301 25.9496C135.113 25.8615 134.909 25.8162 134.701 25.8167H133.47C133.089 25.8226 132.712 25.7361 132.372 25.5646C132.032 25.3931 131.737 25.1416 131.514 24.8313C130.964 24.1412 130.681 23.2736 130.719 22.3895V13.4021H133.797C134.248 13.4203 134.689 13.2637 135.029 12.9647C135.176 12.8239 135.294 12.6544 135.375 12.4665C135.456 12.2785 135.498 12.076 135.499 11.8712C135.502 11.6551 135.461 11.4407 135.381 11.2406C135.3 11.0404 135.18 10.8584 135.029 10.7055C134.689 10.4065 134.248 10.2499 133.797 10.2681H130.719V5.01907C130.73 4.77683 130.69 4.53497 130.603 4.30889C130.516 4.08281 130.383 3.87749 130.213 3.70592C130.043 3.53435 129.839 3.40029 129.614 3.31233C129.39 3.22437 129.15 3.18444 128.909 3.19501L128.904 3.1882ZM10.9984 9.38423C9.18692 9.35031 7.39918 9.8033 5.81954 10.6965C4.32573 11.5261 3.09563 12.7643 2.27141 14.2679C1.39561 15.8742 0.958175 17.6853 1.00359 19.517C0.95753 21.324 1.35531 23.1147 2.16166 24.7299C2.90784 26.2397 4.06865 27.5023 5.50632 28.3679C6.944 29.2335 8.59819 29.6659 10.2726 29.6136C11.7383 29.6387 13.1814 29.248 14.4368 28.4863C15.6863 27.7262 16.7116 26.6444 17.407 25.3522V27.1379C17.4445 28.5138 17.1461 29.878 16.5379 31.1108C16.0031 32.1436 15.2024 33.0126 14.2195 33.627C13.241 34.197 12.1264 34.487 10.9962 34.4658C9.84282 34.4869 8.698 34.2634 7.63618 33.8097C6.65388 33.3887 5.80266 32.7086 5.17222 31.8413C5.0024 31.6046 4.77927 31.4116 4.52113 31.2784C4.263 31.1451 3.97718 31.0754 3.68709 31.0747C3.32408 31.0776 2.97071 31.1925 2.67462 31.4039C2.44822 31.5404 2.25972 31.7323 2.12659 31.9617C1.99346 32.191 1.92 32.4506 1.91304 32.7161C1.9088 33.0959 2.05183 33.4623 2.31174 33.7375C3.30043 35.0337 4.5946 36.0613 6.07715 36.7273C7.60067 37.4211 9.25692 37.7697 10.929 37.7487C12.7456 37.7824 14.5367 37.3145 16.1078 36.3958C17.6212 35.4981 18.8608 34.1996 19.6918 32.6418C20.5428 31.026 20.9787 29.2215 20.9596 27.3927V19.5192C20.9932 17.6844 20.5434 15.8733 19.6559 14.2702C18.8215 12.7743 17.5939 11.5387 16.1078 10.6988C14.5501 9.81384 12.7869 9.36101 10.9984 9.3865V9.38423ZM43.0145 9.38423C41.224 9.37318 39.4625 9.83999 37.9096 10.7371C36.4093 11.6037 35.1707 12.8637 34.3256 14.3829C33.4473 15.9496 32.9974 17.7227 33.0219 19.5215C32.9947 21.3224 33.4054 23.1027 34.2181 24.7073C34.98 26.1936 36.132 27.4413 37.5489 28.3149C38.9678 29.2167 40.6153 29.6865 42.2932 29.6678H51.2308C51.6915 29.6629 52.1327 29.4796 52.4628 29.1559C52.6271 28.9957 52.7569 28.8031 52.844 28.5901C52.9311 28.3771 52.9737 28.1484 52.969 27.9181V19.535C52.9753 17.7333 52.5119 15.9615 51.625 14.3965C50.7799 12.8773 49.5413 11.6172 48.041 10.7506C46.5152 9.8555 44.7805 9.38477 43.0145 9.3865V9.38423ZM67.7865 9.38423C67.5577 9.37951 67.3304 9.42234 67.1188 9.51001C66.9072 9.59769 66.7159 9.72829 66.5567 9.89376C66.3909 10.0534 66.2602 10.2463 66.173 10.4599C66.0859 10.6734 66.0441 10.9031 66.0505 11.1339V36.1388C66.0354 36.3868 66.0729 36.6351 66.1603 36.8674C66.2477 37.0997 66.3832 37.3105 66.5577 37.4862C66.7322 37.6618 66.9417 37.7982 67.1725 37.8862C67.4032 37.9742 67.6499 38.0119 67.8962 37.9967C68.1367 38.0069 68.3766 37.9668 68.601 37.8791C68.8253 37.7915 69.0293 37.658 69.1999 37.4871C69.3845 37.3163 69.5291 37.1063 69.6232 36.8723C69.7173 36.6384 69.7587 36.3863 69.7442 36.1343V26.2992C70.5652 27.3453 71.6196 28.1819 72.8219 28.7411C74.184 29.3842 75.6822 29.6807 77.1848 29.6044C78.6873 29.5281 80.1483 29.0814 81.4392 28.3036C82.8561 27.4301 84.0081 26.1823 84.77 24.6961C85.5941 23.0942 86.017 21.314 86.002 19.5102C86.0265 17.7115 85.5767 15.9384 84.6983 14.3717C83.8391 12.8504 82.5877 11.5907 81.0763 10.7258C79.5344 9.83336 77.7858 9.36666 76.0072 9.37294H67.7865V9.38423ZM106.007 9.38423C104.773 9.37921 103.548 9.58897 102.385 10.0043C101.325 10.3784 100.378 11.0187 99.6323 11.8644C98.9206 12.7065 98.546 13.7852 98.5818 14.8902C98.5818 17.8417 100.9 19.774 105.526 20.6489C106.86 20.845 108.149 21.277 109.334 21.925C109.66 22.1159 109.934 22.3863 110.129 22.7113C110.325 23.0363 110.437 23.4055 110.454 23.7852C110.454 24.1735 110.346 24.5541 110.141 24.8831C109.936 25.2122 109.643 25.4764 109.296 25.6453C108.316 26.1655 107.214 26.4049 106.108 26.3375C105.104 26.346 104.108 26.16 103.174 25.7896C102.386 25.5155 101.677 25.0509 101.108 24.4368C100.934 24.2406 100.723 24.0816 100.487 23.9689C100.25 23.8562 99.9943 23.7922 99.7331 23.7807C99.2673 23.81 98.823 23.9885 98.4653 24.2902C98.2341 24.4455 98.0462 24.6578 97.9196 24.9068C97.793 25.1559 97.7317 25.4334 97.7418 25.713C97.7346 25.9239 97.773 26.1339 97.8542 26.3285C97.9354 26.5232 98.0575 26.6978 98.2122 26.8403C99.1766 27.7661 100.343 28.4525 101.617 28.8447C103.107 29.3644 104.675 29.6237 106.251 29.6114C107.689 29.6484 109.118 29.3874 110.451 28.8447C111.533 28.3999 112.465 27.6537 113.139 26.6938C113.727 25.7824 114.039 24.7184 114.035 23.6319C114.048 22.9321 113.905 22.2382 113.617 21.6012C113.329 20.9641 112.904 20.3999 112.371 19.9499C110.714 18.7729 108.802 18.0108 106.794 17.7267C105.791 17.5622 104.808 17.2932 103.861 16.924C103.331 16.7534 102.856 16.4419 102.486 16.0222C102.227 15.6631 102.099 15.2251 102.123 14.782C102.121 14.4433 102.22 14.1117 102.407 13.8303C102.595 13.5489 102.862 13.3306 103.174 13.2037C104.033 12.7952 104.976 12.5952 105.927 12.6198C106.762 12.6147 107.593 12.7379 108.391 12.985C109.101 13.2411 109.754 13.6374 110.31 14.1507C110.534 14.3737 110.8 14.5498 111.093 14.6686C111.385 14.7874 111.698 14.8467 112.013 14.8429C112.374 14.8646 112.732 14.7621 113.027 14.552C113.21 14.425 113.36 14.2571 113.467 14.0614C113.574 13.8658 113.635 13.6478 113.643 13.4247C113.609 12.996 113.445 12.5883 113.173 12.2567C112.368 11.3206 111.348 10.5956 110.203 10.1441C108.867 9.61847 107.442 9.36111 106.007 9.3865V9.38423ZM157.285 9.38423C155.494 9.37289 153.732 9.8397 152.178 10.7371C150.678 11.6036 149.439 12.8636 148.594 14.3829C147.716 15.9496 147.266 17.7227 147.29 19.5215C147.263 21.3224 147.674 23.1027 148.486 24.7073C149.248 26.1936 150.4 27.4413 151.817 28.3149C153.236 29.2167 154.884 29.6865 156.562 29.6678H165.506C165.967 29.6629 166.408 29.4796 166.738 29.1559C166.902 28.9957 167.032 28.8031 167.119 28.5901C167.206 28.3771 167.249 28.1484 167.244 27.9181V19.535C167.25 17.7333 166.787 15.9615 165.9 14.3965C165.055 12.8773 163.816 11.6172 162.316 10.7506C160.789 9.85472 159.053 9.38397 157.285 9.3865V9.38423ZM189.12 9.38423C187.343 9.3549 185.592 9.80824 184.051 10.6965C182.565 11.5413 181.347 12.792 180.538 14.3041C179.696 15.9085 179.272 17.7024 179.309 19.517C179.27 21.3278 179.707 23.1168 180.576 24.7029C181.423 26.2109 182.662 27.458 184.16 28.3104C185.731 29.2008 187.51 29.6538 189.312 29.6226C191.72 29.7045 194.062 28.8271 195.831 27.1808C195.966 27.0553 196.075 26.9031 196.15 26.7336C196.224 26.5641 196.264 26.3809 196.265 26.1955C196.25 25.9402 196.18 25.6911 196.062 25.4649C195.943 25.2386 195.778 25.0404 195.578 24.8832C195.307 24.673 194.976 24.5574 194.635 24.554C194.144 24.5745 193.673 24.7531 193.291 25.0636C192.162 25.9629 190.745 26.4167 189.308 26.3398C188.13 26.3611 186.968 26.0586 185.948 25.4649C184.98 24.8919 184.19 24.0588 183.665 23.0592C183.115 21.9647 182.842 20.7502 182.87 19.5238C182.786 17.7056 183.409 15.9259 184.608 14.5633C185.185 13.9402 185.887 13.4486 186.668 13.1215C187.449 12.7944 188.29 12.6395 189.135 12.6671C189.967 12.6657 190.791 12.8265 191.561 13.1406C192.321 13.4616 193.001 13.9474 193.553 14.5633C193.722 14.775 193.938 14.9443 194.183 15.0581C194.428 15.1719 194.696 15.2271 194.966 15.2194C195.263 15.225 195.555 15.1359 195.799 14.9647C196.034 14.8243 196.23 14.6269 196.369 14.3905C196.507 14.1541 196.585 13.8863 196.595 13.6118C196.584 13.2639 196.456 12.93 196.232 12.6648C195.366 11.6167 194.278 10.7779 193.047 10.2104C191.816 9.64295 190.473 9.36139 189.12 9.3865V9.38423ZM10.9984 12.6648C12.1557 12.6467 13.2956 12.9494 14.2934 13.5397C15.2635 14.1261 16.0535 14.9712 16.5759 15.9816C17.1354 17.0742 17.4214 18.2878 17.4092 19.517C17.426 20.7466 17.1397 21.9613 16.5759 23.0523C16.0518 24.052 15.2614 24.8851 14.2934 25.4582C13.2956 26.0485 12.1557 26.3511 10.9984 26.333C9.82983 26.351 8.67841 26.0486 7.66756 25.4582C6.69957 24.8851 5.90918 24.052 5.38498 23.0523C4.80504 21.9674 4.51774 20.7485 4.55172 19.517C4.52198 18.2859 4.80902 17.068 5.38498 15.9816C5.90747 14.9712 6.69748 14.1261 7.66756 13.5397C8.67863 12.95 9.83004 12.6484 10.9984 12.6671V12.6648ZM43.0145 12.6648C44.1622 12.6612 45.2891 12.973 46.2737 13.5667C47.2448 14.1625 48.0434 15.0046 48.5898 16.0086C49.1451 17.0899 49.431 18.2908 49.4231 19.5079C49.4396 20.7261 49.1532 21.9291 48.5898 23.0073C48.0434 24.0113 47.2448 24.8533 46.2737 25.4492C45.2754 26.0225 44.1459 26.3241 42.9966 26.3241C41.8472 26.3241 40.7177 26.0225 39.7195 25.4492C38.7475 24.8536 37.9481 24.0116 37.4011 23.0073C36.8211 21.9354 36.5336 20.728 36.5678 19.5079C36.5422 18.2888 36.8292 17.0836 37.4011 16.0086C37.9481 15.0043 38.7475 14.1622 39.7195 13.5667C40.7153 12.9689 41.8551 12.6578 43.0145 12.6671V12.6648ZM76.0072 12.6648C77.1549 12.6611 78.2819 12.9729 79.2664 13.5667C80.2383 14.1622 81.0378 15.0043 81.5848 16.0086C82.168 17.0806 82.4674 18.2857 82.4539 19.5079C82.4762 20.7312 82.1763 21.9385 81.5848 23.0073C81.0378 24.0116 80.2383 24.8536 79.2664 25.4492C78.2681 26.0225 77.1386 26.3241 75.9893 26.3241C74.8399 26.3241 73.7105 26.0225 72.7122 25.4492C71.7421 24.8628 70.9521 24.0176 70.4297 23.0073C69.8497 21.9354 69.5621 20.728 69.5964 19.5079C69.5708 18.2888 69.8578 17.0836 70.4297 16.0086C70.9522 14.9983 71.7422 14.1532 72.7122 13.5667C73.708 12.9689 74.8478 12.6578 76.0072 12.6671V12.6648ZM157.285 12.6648C158.433 12.6612 159.56 12.973 160.544 13.5667C161.515 14.1625 162.314 15.0046 162.86 16.0086C163.416 17.0899 163.702 18.2908 163.694 19.5079C163.71 20.7261 163.424 21.9291 162.86 23.0073C162.314 24.0113 161.515 24.8533 160.544 25.4492C159.546 26.0225 158.416 26.3241 157.267 26.3241C156.118 26.3241 154.988 26.0225 153.99 25.4492C153.018 24.8536 152.219 24.0116 151.672 23.0073C151.092 21.9354 150.804 20.728 150.838 19.5079C150.813 18.2888 151.1 17.0836 151.672 16.0086C152.219 15.0043 153.018 14.1622 153.99 13.5667C154.986 12.9689 156.126 12.6578 157.285 12.6671V12.6648Z" stroke="#7C60FF" stroke-width="1.2" mask="url(#path-1-outside-1)"/>
<path d="M23 56.926V69.328H27.824C31.37 69.328 33.44 66.664 33.44 63.154C33.44 59.626 31.37 56.926 27.824 56.926H23ZM24.854 67.636V58.618H27.824C30.308 58.618 31.586 60.634 31.586 63.154C31.586 65.674 30.308 67.636 27.824 67.636H24.854Z" fill="#39426A"/>
<path d="M36.7119 58.996C37.3779 58.996 37.9179 58.51 37.9179 57.862C37.9179 57.214 37.3779 56.728 36.7119 56.728C36.0639 56.728 35.5059 57.214 35.5059 57.862C35.5059 58.51 36.0639 58.996 36.7119 58.996ZM37.5939 69.328V60.922H35.8299V69.328H37.5939Z" fill="#39426A"/>
<path d="M47.064 62.146C46.488 61.21 45.318 60.706 44.148 60.706C41.88 60.706 39.99 62.434 39.99 65.116C39.99 67.78 41.88 69.544 44.166 69.544C45.282 69.544 46.488 69.022 47.064 68.104V68.32C47.064 70.984 45.966 71.992 44.202 71.992C43.284 71.992 42.312 71.47 41.844 70.57L40.35 71.308C41.142 72.802 42.618 73.63 44.202 73.63C47.028 73.63 48.828 72.082 48.828 68.176V60.922H47.064V62.146ZM44.364 67.888C42.924 67.888 41.754 66.664 41.754 65.098C41.754 63.514 42.924 62.362 44.364 62.362C45.66 62.362 47.046 63.406 47.046 65.098C47.046 66.79 45.786 67.888 44.364 67.888Z" fill="#39426A"/>
<path d="M52.6152 58.996C53.2812 58.996 53.8212 58.51 53.8212 57.862C53.8212 57.214 53.2812 56.728 52.6152 56.728C51.9672 56.728 51.4092 57.214 51.4092 57.862C51.4092 58.51 51.9672 58.996 52.6152 58.996ZM53.4972 69.328V60.922H51.7332V69.328H53.4972Z" fill="#39426A"/>
<path d="M58.8813 60.922V57.772H57.1173V60.922H55.6053V62.398H57.1173V69.328H58.8813V62.398H60.6813V60.922H58.8813Z" fill="#39426A"/>
<path d="M63.5087 58.996C64.1747 58.996 64.7147 58.51 64.7147 57.862C64.7147 57.214 64.1747 56.728 63.5087 56.728C62.8607 56.728 62.3027 57.214 62.3027 57.862C62.3027 58.51 62.8607 58.996 63.5087 58.996ZM64.3907 69.328V60.922H62.6267V69.328H64.3907Z" fill="#39426A"/>
<path d="M67.0028 60.922V62.578H71.5748L66.7148 67.888V69.328H74.1488V67.672H69.1988L74.1488 62.362V60.922H67.0028Z" fill="#39426A"/>
<path d="M84.4838 65.08C84.4838 62.434 82.6658 60.706 80.2718 60.706C77.8778 60.706 75.9338 62.434 75.9338 65.098C75.9338 67.762 77.8418 69.544 80.2718 69.544C81.8738 69.544 83.3858 68.788 84.1238 67.384L82.7198 66.682C82.2518 67.456 81.3338 67.906 80.3438 67.906C78.9938 67.906 77.9858 67.204 77.7518 65.836H84.4478C84.4658 65.566 84.4838 65.314 84.4838 65.08ZM77.7698 64.414C78.0218 63.01 78.9938 62.344 80.2898 62.344C81.5858 62.344 82.5398 63.1 82.7198 64.414H77.7698Z" fill="#39426A"/>
<path d="M92.954 71.488V55H91.802V71.488H92.954Z" fill="#39426A"/>
<path d="M108.53 56.926H101.204V69.328H103.058V64.072H107.396V62.38H103.058V58.618H108.53V56.926Z" fill="#39426A"/>
<path d="M115.985 65.494C115.985 67.24 114.653 67.888 113.555 67.888C112.475 67.888 111.647 67.06 111.647 65.674V60.922H109.883V65.728C109.865 68.122 111.143 69.544 113.267 69.544C114.149 69.544 115.499 69.076 115.985 68.05V69.328H117.749V60.922H115.985V65.494Z" fill="#39426A"/>
<path d="M125.15 60.706C124.25 60.706 122.9 61.174 122.414 62.218V60.922H120.65V69.328H122.414V64.81C122.414 63.064 123.746 62.434 124.844 62.434C125.924 62.434 126.752 63.262 126.752 64.63V69.328H128.516V64.522C128.534 62.128 127.274 60.706 125.15 60.706Z" fill="#39426A"/>
<path d="M137.861 62.164C137.303 61.21 136.133 60.706 134.945 60.706C132.677 60.706 130.787 62.434 130.787 65.116C130.787 67.78 132.677 69.544 134.963 69.544C136.097 69.544 137.303 69.022 137.861 68.068V69.328H139.625V56.35H137.861V62.164ZM135.161 67.888C133.721 67.888 132.551 66.664 132.551 65.098C132.551 63.514 133.721 62.362 135.161 62.362C136.457 62.362 137.843 63.406 137.843 65.098C137.843 66.79 136.583 67.888 135.161 67.888Z" fill="#39426A"/>
<path d="M148.668 71.488V55H147.516V71.488H148.668Z" fill="#39426A"/>
<path d="M154.989 56.926V58.618H158.679V69.328H160.533V58.618H164.223V56.926H154.989Z" fill="#39426A"/>
<path d="M168.65 60.706C167.57 60.706 166.724 61.336 166.292 62.812V60.922H164.51V69.328H166.292V66.304C166.292 64.036 167.012 62.398 168.542 62.398C168.884 62.398 169.316 62.47 169.784 62.686L170.09 61.012C169.82 60.85 169.226 60.706 168.65 60.706Z" fill="#39426A"/>
<path d="M178.117 62.182C177.577 61.228 176.425 60.706 175.201 60.706C172.825 60.706 171.043 62.614 171.043 65.116C171.043 67.708 172.933 69.544 175.129 69.544C176.425 69.544 177.577 68.878 178.117 67.906V69.328H179.881V60.922H178.117V62.182ZM175.435 67.888C173.959 67.888 172.825 66.628 172.825 65.116C172.825 63.622 173.959 62.362 175.399 62.362C176.749 62.362 178.099 63.496 178.099 65.116C178.099 66.7 176.839 67.888 175.435 67.888Z" fill="#39426A"/>
<path d="M189.356 62.164C188.798 61.21 187.628 60.706 186.44 60.706C184.172 60.706 182.282 62.434 182.282 65.116C182.282 67.78 184.172 69.544 186.458 69.544C187.592 69.544 188.798 69.022 189.356 68.068V69.328H191.12V56.35H189.356V62.164ZM186.656 67.888C185.216 67.888 184.046 66.664 184.046 65.098C184.046 63.514 185.216 62.362 186.656 62.362C187.952 62.362 189.338 63.406 189.338 65.098C189.338 66.79 188.078 67.888 186.656 67.888Z" fill="#39426A"/>
<path d="M202.053 65.08C202.053 62.434 200.235 60.706 197.841 60.706C195.447 60.706 193.503 62.434 193.503 65.098C193.503 67.762 195.411 69.544 197.841 69.544C199.443 69.544 200.955 68.788 201.693 67.384L200.289 66.682C199.821 67.456 198.903 67.906 197.913 67.906C196.563 67.906 195.555 67.204 195.321 65.836H202.017C202.035 65.566 202.053 65.314 202.053 65.08ZM195.339 64.414C195.591 63.01 196.563 62.344 197.859 62.344C199.155 62.344 200.109 63.1 200.289 64.414H195.339Z" fill="#39426A"/>
</svg>
