<svg xmlns="http://www.w3.org/2000/svg" width="100" height="16.408" viewBox="0 0 100 16.408">
  <path id="gapStackLighterWatermark" d="M287.814,331.8a.791.791,0,0,0-.582.226.768.768,0,0,0-.21.566v11.042a.728.728,0,0,0,.792.792.769.769,0,0,0,.566-.21.792.792,0,0,0,.226-.582v-2.474l.808-.711,3.072,3.8a.691.691,0,0,0,.582.291.825.825,0,0,0,.517-.194.743.743,0,0,0,.291-.6.715.715,0,0,0-.178-.485l-3.136-3.848,2.975-2.651a.69.69,0,0,0,.259-.549.74.74,0,0,0-.21-.5.708.708,0,0,0-1.051-.048l-3.928,3.508v-6.58a.773.773,0,0,0-.792-.792Zm-36.838.97a.792.792,0,0,0-.582.227.779.779,0,0,0-.226.582v7.711a3.249,3.249,0,0,0,.372,1.6,2.766,2.766,0,0,0,1.019,1.132,2.667,2.667,0,0,0,1.455.4h.291a.961.961,0,0,0,.679-.226.721.721,0,0,0,.275-.582.915.915,0,0,0-.21-.582.63.63,0,0,0-.485-.226h-.55a1.058,1.058,0,0,1-.873-.437,1.62,1.62,0,0,1-.355-1.083V337.3h1.374a.788.788,0,0,0,.55-.194.672.672,0,0,0,.21-.485.719.719,0,0,0-.21-.517.788.788,0,0,0-.55-.194h-1.374v-2.328a.775.775,0,0,0-.808-.809Zm-52.637,2.748a4.548,4.548,0,0,0-2.312.582,4.036,4.036,0,0,0-1.584,1.584,4.6,4.6,0,0,0-.566,2.328,4.871,4.871,0,0,0,.517,2.312,3.909,3.909,0,0,0,3.621,2.166,3.486,3.486,0,0,0,1.859-.5,3.662,3.662,0,0,0,1.326-1.39v.792a3.731,3.731,0,0,1-.388,1.762,2.881,2.881,0,0,1-1.035,1.116,2.77,2.77,0,0,1-1.439.372,3.668,3.668,0,0,1-1.5-.291,2.649,2.649,0,0,1-1.1-.873.82.82,0,0,0-.663-.34.792.792,0,0,0-.452.146.7.7,0,0,0-.34.582.647.647,0,0,0,.178.453,4.359,4.359,0,0,0,1.681,1.326,5.1,5.1,0,0,0,2.166.453,4.44,4.44,0,0,0,2.312-.6,4.286,4.286,0,0,0,1.6-1.665,4.861,4.861,0,0,0,.566-2.328v-3.492a4.608,4.608,0,0,0-.582-2.328,4.143,4.143,0,0,0-1.584-1.584A4.511,4.511,0,0,0,198.339,335.519Zm14.293,0a4.523,4.523,0,0,0-2.279.6,4.269,4.269,0,0,0-1.6,1.617,4.511,4.511,0,0,0-.582,2.279,4.9,4.9,0,0,0,.534,2.3,4.059,4.059,0,0,0,1.487,1.6,3.886,3.886,0,0,0,2.118.6H216.3a.8.8,0,0,0,.55-.227.743.743,0,0,0,.226-.549v-3.718a4.567,4.567,0,0,0-.6-2.279,4.269,4.269,0,0,0-1.6-1.617A4.448,4.448,0,0,0,212.632,335.519Zm11.059,0a.743.743,0,0,0-.549.226.733.733,0,0,0-.226.55v11.09a.778.778,0,0,0,.824.824.779.779,0,0,0,.582-.226.756.756,0,0,0,.243-.6V343.02a3.761,3.761,0,0,0,1.374,1.083,4.1,4.1,0,0,0,3.847-.194,4.059,4.059,0,0,0,1.487-1.6,4.912,4.912,0,0,0,.55-2.3,4.511,4.511,0,0,0-.582-2.279,4.311,4.311,0,0,0-1.617-1.617,4.508,4.508,0,0,0-2.263-.6h-3.67Zm17.063,0a4.778,4.778,0,0,0-1.617.275,2.946,2.946,0,0,0-1.229.825,1.972,1.972,0,0,0-.469,1.342c0,1.309,1.035,2.166,3.1,2.554a5.107,5.107,0,0,1,1.7.566,1.007,1.007,0,0,1,.5.825.915.915,0,0,1-.517.825,2.7,2.7,0,0,1-1.423.307,3.494,3.494,0,0,1-1.31-.243,2.276,2.276,0,0,1-.922-.6.875.875,0,0,0-.614-.291.976.976,0,0,0-.566.226.727.727,0,0,0-.323.631.648.648,0,0,0,.21.5,3.822,3.822,0,0,0,1.52.889,6.174,6.174,0,0,0,2.069.34,4.682,4.682,0,0,0,1.875-.34,2.739,2.739,0,0,0,1.2-.954,2.48,2.48,0,0,0,.4-1.358,2.082,2.082,0,0,0-.743-1.633,5.693,5.693,0,0,0-2.49-.986,6.536,6.536,0,0,1-1.309-.356,1.382,1.382,0,0,1-.614-.4.855.855,0,0,1-.162-.55.75.75,0,0,1,.469-.7,2.716,2.716,0,0,1,1.229-.259,3.666,3.666,0,0,1,1.1.162,2.532,2.532,0,0,1,.857.517,1.063,1.063,0,0,0,.76.307.712.712,0,0,0,.453-.129.639.639,0,0,0,.275-.5.93.93,0,0,0-.21-.518,3.388,3.388,0,0,0-1.326-.937A4.908,4.908,0,0,0,240.754,335.519Zm22.892,0a4.524,4.524,0,0,0-2.28.6,4.268,4.268,0,0,0-1.6,1.617,4.511,4.511,0,0,0-.582,2.279,4.9,4.9,0,0,0,.534,2.3,4.059,4.059,0,0,0,1.487,1.6,3.886,3.886,0,0,0,2.118.6h3.993a.8.8,0,0,0,.55-.227.743.743,0,0,0,.226-.549v-3.718a4.567,4.567,0,0,0-.6-2.279,4.269,4.269,0,0,0-1.6-1.617A4.448,4.448,0,0,0,263.646,335.519Zm14.212,0a4.41,4.41,0,0,0-2.263.582,4.036,4.036,0,0,0-1.568,1.6,4.743,4.743,0,0,0-.549,2.312,4.561,4.561,0,0,0,.566,2.3,4.227,4.227,0,0,0,1.6,1.6,4.529,4.529,0,0,0,2.3.582,4.083,4.083,0,0,0,2.91-1.083.6.6,0,0,0,.194-.437.8.8,0,0,0-.307-.582.7.7,0,0,0-.421-.146,1.023,1.023,0,0,0-.6.226,2.639,2.639,0,0,1-1.778.566,2.893,2.893,0,0,1-1.5-.388,2.7,2.7,0,0,1-1.019-1.067,3.3,3.3,0,0,1-.355-1.568,3.1,3.1,0,0,1,.776-2.2,2.644,2.644,0,0,1,2.021-.841,2.873,2.873,0,0,1,1.083.21,2.5,2.5,0,0,1,.889.631.782.782,0,0,0,.631.291.63.63,0,0,0,.372-.113.727.727,0,0,0,.355-.6.681.681,0,0,0-.162-.42A4.032,4.032,0,0,0,277.858,335.519Zm-79.519,1.455a2.817,2.817,0,0,1,1.471.388,2.738,2.738,0,0,1,1.019,1.083,3.35,3.35,0,0,1,.372,1.568,3.3,3.3,0,0,1-.372,1.568,2.7,2.7,0,0,1-1.019,1.067,2.817,2.817,0,0,1-1.471.388,2.875,2.875,0,0,1-1.487-.388,2.7,2.7,0,0,1-1.019-1.067,3.126,3.126,0,0,1-.372-1.568,3.167,3.167,0,0,1,.372-1.568,2.738,2.738,0,0,1,1.019-1.083A2.875,2.875,0,0,1,198.339,336.974Zm14.293,0a2.814,2.814,0,0,1,1.455.4,2.9,2.9,0,0,1,1.034,1.083,3.332,3.332,0,0,1,.372,1.552,3.239,3.239,0,0,1-.372,1.552,2.9,2.9,0,0,1-1.034,1.083,2.952,2.952,0,0,1-2.926,0,2.9,2.9,0,0,1-1.035-1.083,3.064,3.064,0,0,1-.372-1.552,3.147,3.147,0,0,1,.372-1.552,2.9,2.9,0,0,1,1.035-1.083A2.828,2.828,0,0,1,212.632,336.974Zm14.729,0a2.813,2.813,0,0,1,1.455.4,2.9,2.9,0,0,1,1.035,1.083,3.158,3.158,0,0,1,.388,1.552,3.073,3.073,0,0,1-.388,1.552,2.9,2.9,0,0,1-1.035,1.083,2.952,2.952,0,0,1-2.926,0,2.738,2.738,0,0,1-1.019-1.083,3.064,3.064,0,0,1-.372-1.552,3.147,3.147,0,0,1,.372-1.552,2.739,2.739,0,0,1,1.019-1.083A2.828,2.828,0,0,1,227.361,336.974Zm36.285,0a2.814,2.814,0,0,1,1.455.4,2.9,2.9,0,0,1,1.034,1.083,3.332,3.332,0,0,1,.372,1.552,3.239,3.239,0,0,1-.372,1.552,2.9,2.9,0,0,1-1.034,1.083,2.952,2.952,0,0,1-2.926,0,2.9,2.9,0,0,1-1.035-1.083,3.064,3.064,0,0,1-.372-1.552,3.147,3.147,0,0,1,.372-1.552,2.9,2.9,0,0,1,1.035-1.083A2.828,2.828,0,0,1,263.646,336.974Z" transform="translate(-193.877 -331.801)" fill="#7c60ff"/>
</svg>
