<svg width="137" height="24" viewBox="0 0 137 24" fill="none" xmlns="http://www.w3.org/2000/svg">
<mask id="path-1-outside-1" maskUnits="userSpaceOnUse" x="0" y="0" width="137" height="24" fill="black">
<rect fill="white" width="137" height="24"/>
<path d="M127.816 1.00066C127.671 0.995582 127.527 1.01984 127.392 1.07193C127.257 1.12402 127.134 1.20287 127.03 1.30366C126.934 1.40457 126.859 1.52383 126.811 1.65425C126.762 1.78467 126.74 1.92354 126.747 2.06248V16.8659C126.734 17.0087 126.752 17.1525 126.801 17.2874C126.85 17.4222 126.929 17.5447 127.031 17.646C127.133 17.7474 127.256 17.8252 127.392 17.8739C127.528 17.9226 127.672 17.9409 127.816 17.9277C127.956 17.9344 128.096 17.9129 128.227 17.8645C128.359 17.8162 128.479 17.7419 128.58 17.6462C128.682 17.5434 128.761 17.4213 128.814 17.2872C128.866 17.153 128.89 17.0097 128.885 16.8659V13.5492L129.976 12.596L134.123 17.6904C134.212 17.8145 134.33 17.915 134.467 17.9831C134.604 18.0511 134.756 18.0846 134.909 18.0806C135.165 18.0761 135.411 17.9842 135.607 17.8205C135.731 17.7261 135.831 17.6041 135.899 17.4645C135.968 17.3248 136.002 17.1713 136 17.0161C136.004 16.7772 135.918 16.5453 135.76 16.3658L131.526 11.207L135.542 7.65297C135.653 7.56488 135.742 7.45278 135.803 7.32521C135.863 7.19765 135.894 7.05801 135.892 6.91698C135.886 6.66596 135.785 6.42642 135.608 6.24665C135.523 6.14389 135.418 6.06 135.298 6.00044C135.178 5.94087 135.047 5.90696 134.913 5.9009C134.78 5.89483 134.646 5.91673 134.521 5.96521C134.397 6.01369 134.284 6.08765 134.19 6.1823L128.887 10.8853V2.06379C128.89 1.9234 128.865 1.7838 128.813 1.65339C128.76 1.52299 128.681 1.40452 128.581 1.30522C128.481 1.20592 128.362 1.12786 128.231 1.07574C128.1 1.02361 127.959 0.998515 127.818 1.00201L127.816 1.00066ZM78.0853 2.30109C77.9404 2.29627 77.796 2.32078 77.6609 2.3731C77.5258 2.42542 77.4029 2.50447 77.2996 2.60545C77.1973 2.70758 77.1174 2.82961 77.0648 2.96389C77.0123 3.09817 76.9884 3.24179 76.9945 3.3857V13.7234C76.9741 14.4694 77.147 15.208 77.4967 15.8685C77.8032 16.4922 78.2798 17.018 78.8723 17.3861C79.4614 17.7489 80.1435 17.9351 80.8365 17.9223H81.2294C81.5628 17.9423 81.8911 17.8338 82.146 17.6194C82.2645 17.5268 82.3598 17.4081 82.4242 17.2726C82.4886 17.1372 82.5205 16.9889 82.5173 16.8391C82.5169 16.5542 82.4166 16.2784 82.2338 16.0589C82.1537 15.9637 82.0536 15.8873 81.9404 15.8349C81.8272 15.7825 81.7039 15.7555 81.579 15.7559H80.8365C80.6072 15.7594 80.3803 15.708 80.1751 15.606C79.97 15.504 79.7926 15.3545 79.658 15.17C79.3264 14.7596 79.1561 14.2437 79.1787 13.7181V8.37423H81.0336C81.3055 8.38503 81.5712 8.29195 81.7761 8.11414C81.8652 8.03042 81.9362 7.92965 81.985 7.81789C82.0337 7.70613 82.0591 7.58573 82.0596 7.46395C82.0613 7.33549 82.037 7.20801 81.9883 7.08898C81.9397 6.96995 81.8675 6.86178 81.7761 6.77084C81.5712 6.59303 81.3055 6.49995 81.0336 6.51075H79.1787V3.38971C79.1852 3.24568 79.1615 3.10187 79.109 2.96745C79.0565 2.83302 78.9764 2.71094 78.8738 2.60892C78.7712 2.50691 78.6484 2.4272 78.5131 2.3749C78.3778 2.3226 78.233 2.29886 78.088 2.30514L78.0853 2.30109ZM7.02583 5.98522C5.93408 5.96505 4.85665 6.23439 3.90463 6.76548C3.00434 7.25878 2.26299 7.99498 1.76625 8.88904C1.23843 9.8441 0.974793 10.921 1.00216 12.0101C0.974404 13.0846 1.21414 14.1493 1.70011 15.1097C2.14981 16.0074 2.84941 16.7581 3.71586 17.2728C4.58232 17.7875 5.57927 18.0446 6.58842 18.0135C7.47174 18.0284 8.34144 17.7961 9.09805 17.3432C9.8511 16.8913 10.4691 16.248 10.8881 15.4797V16.5415C10.9108 17.3596 10.7309 18.1707 10.3643 18.9037C10.0421 19.5178 9.55948 20.0345 8.9671 20.3999C8.37739 20.7387 7.70567 20.9112 7.02447 20.8986C6.32938 20.9112 5.63942 20.7782 4.99948 20.5085C4.40747 20.2581 3.89446 19.8538 3.51451 19.3381C3.41216 19.1973 3.27768 19.0826 3.12211 19.0034C2.96654 18.9241 2.79429 18.8826 2.61945 18.8823C2.40068 18.884 2.1877 18.9523 2.00926 19.078C1.87281 19.1592 1.75921 19.2732 1.67897 19.4096C1.59874 19.546 1.55447 19.7003 1.55027 19.8582C1.54772 20.084 1.63391 20.3019 1.79056 20.4656C2.38642 21.2363 3.16639 21.8473 4.05989 22.2432C4.97808 22.6558 5.97627 22.8631 6.98397 22.8506C8.07882 22.8706 9.15827 22.5924 10.1051 22.0462C11.0172 21.5124 11.7643 20.7403 12.2651 19.814C12.778 18.8533 13.0407 17.7803 13.0292 16.693V12.0114C13.0495 10.9204 12.7784 9.84357 12.2435 8.89039C11.7406 8.00096 11.0008 7.26626 10.1051 6.76683C9.16633 6.24066 8.10372 5.97141 7.02583 5.98657V5.98522ZM26.3212 5.98522C25.2421 5.97865 24.1805 6.25621 23.2446 6.78962C22.3404 7.30492 21.5939 8.05409 21.0846 8.95741C20.5553 9.88894 20.2841 10.9433 20.2989 12.0128C20.2825 13.0836 20.53 14.1421 21.0198 15.0963C21.479 15.98 22.1733 16.7219 23.0273 17.2413C23.8824 17.7775 24.8753 18.0569 25.8865 18.0457H31.273C31.5507 18.0428 31.8166 17.9338 32.0155 17.7413C32.1146 17.6461 32.1928 17.5316 32.2453 17.4049C32.2978 17.2783 32.3234 17.1423 32.3206 17.0054V12.0208C32.3244 10.9495 32.0451 9.89601 31.5106 8.96547C31.0013 8.06215 30.2548 7.31294 29.3506 6.79763C28.4311 6.26543 27.3856 5.98554 26.3212 5.98657V5.98522ZM41.2508 5.98522C41.1129 5.98241 40.9759 6.00788 40.8484 6.06001C40.7209 6.11214 40.6056 6.1898 40.5096 6.28818C40.4097 6.3831 40.331 6.49777 40.2784 6.62478C40.2258 6.75178 40.2007 6.88831 40.2045 7.02556V21.8934C40.1955 22.0408 40.218 22.1884 40.2707 22.3265C40.3234 22.4647 40.405 22.59 40.5102 22.6945C40.6154 22.7989 40.7416 22.88 40.8807 22.9323C41.0198 22.9846 41.1685 23.0071 41.3169 22.9981C41.4619 23.0041 41.6065 22.9803 41.7417 22.9281C41.8769 22.876 41.9998 22.7966 42.1026 22.6951C42.2139 22.5935 42.301 22.4686 42.3577 22.3295C42.4145 22.1904 42.4394 22.0405 42.4307 21.8907V16.0427C42.9254 16.6648 43.5609 17.1622 44.2855 17.4947C45.1064 17.8771 46.0094 18.0534 46.9149 18.008C47.8205 17.9627 48.701 17.6971 49.479 17.2346C50.3329 16.7152 51.0272 15.9733 51.4864 15.0895C51.9831 14.1371 52.2379 13.0786 52.2289 12.0061C52.2437 10.9365 51.9726 9.88227 51.4432 8.95074C50.9253 8.04616 50.1711 7.29719 49.2603 6.78291C48.331 6.25227 47.2771 5.97477 46.2052 5.97851H41.2508V5.98522ZM64.2857 5.98522C63.542 5.98223 62.8035 6.10696 62.1027 6.35389C61.4639 6.57633 60.8928 6.95704 60.4436 7.45994C60.0146 7.96063 59.7889 8.60203 59.8104 9.25906C59.8104 11.014 61.2077 12.1629 63.9954 12.6831C64.7995 12.7998 65.5764 13.0566 66.2904 13.4419C66.4871 13.5554 66.652 13.7162 66.7699 13.9094C66.8879 14.1027 66.9551 14.3222 66.9654 14.5479C66.9657 14.7788 66.9003 15.0051 66.7768 15.2008C66.6534 15.3965 66.4768 15.5535 66.2674 15.654C65.6771 15.9633 65.0126 16.1056 64.3464 16.0655C63.7413 16.0706 63.1409 15.96 62.5779 15.7398C62.103 15.5768 61.6757 15.3005 61.3332 14.9354C61.2282 14.8188 61.1008 14.7242 60.9585 14.6572C60.8161 14.5902 60.6617 14.5521 60.5043 14.5453C60.2236 14.5627 59.9558 14.6688 59.7402 14.8482C59.6009 14.9406 59.4877 15.0668 59.4114 15.2149C59.335 15.3629 59.2981 15.528 59.3042 15.6942C59.2999 15.8196 59.323 15.9445 59.3719 16.0602C59.4209 16.1759 59.4945 16.2798 59.5877 16.3645C60.169 16.915 60.8716 17.3231 61.6397 17.5563C62.5378 17.8653 63.4824 18.0195 64.4328 18.0122C65.2991 18.0342 66.1607 17.879 66.9641 17.5563C67.6156 17.2918 68.1776 16.8482 68.584 16.2774C68.9383 15.7355 69.126 15.1029 69.124 14.4568C69.1317 14.0407 69.0457 13.6281 68.8721 13.2493C68.6986 12.8705 68.4419 12.5351 68.121 12.2675C67.1223 11.5677 65.9699 11.1145 64.7595 10.9456C64.1554 10.8478 63.5632 10.6879 62.9924 10.4683C62.6725 10.3669 62.3862 10.1817 62.1635 9.93209C62.0073 9.71863 61.93 9.45817 61.9448 9.19471C61.9435 8.9933 62.0032 8.79616 62.1161 8.62884C62.229 8.46151 62.3899 8.33174 62.5779 8.25628C63.096 8.01339 63.6643 7.89446 64.2371 7.90905C64.7403 7.90604 65.241 7.97926 65.722 8.12621C66.1503 8.2785 66.5436 8.51414 66.879 8.81933C67.0141 8.95195 67.1743 9.05663 67.3504 9.12728C67.5266 9.19793 67.715 9.23316 67.905 9.23092C68.1227 9.24384 68.3383 9.18285 68.5165 9.05798C68.6265 8.98245 68.7173 8.88259 68.7817 8.76626C68.8461 8.64993 68.8824 8.52031 68.8878 8.38765C68.8672 8.13277 68.7682 7.89033 68.6043 7.69319C68.1189 7.13656 67.5046 6.70548 66.8142 6.43702C66.009 6.1245 65.15 5.97147 64.2857 5.98657V5.98522ZM95.1896 5.98522C94.1101 5.97848 93.048 6.25604 92.1117 6.78962C91.2074 7.30486 90.4609 8.05405 89.9517 8.95741C89.4223 9.88894 89.1512 10.9433 89.166 12.0128C89.1496 13.0836 89.3971 14.1421 89.8869 15.0963C90.3461 15.98 91.0403 16.7219 91.8943 17.2413C92.7494 17.7775 93.7423 18.0569 94.7536 18.0457H100.144C100.422 18.0428 100.688 17.9338 100.887 17.7413C100.986 17.6461 101.064 17.5316 101.116 17.4049C101.169 17.2783 101.195 17.1423 101.192 17.0054V12.0208C101.196 10.9495 100.916 9.89601 100.382 8.96547C99.8724 8.06215 99.1259 7.31294 98.2217 6.79763C97.3014 6.26497 96.2549 5.98506 95.1896 5.98657V5.98522ZM114.376 5.98522C113.305 5.96778 112.25 6.23733 111.321 6.76548C110.425 7.2678 109.692 8.01147 109.204 8.91052C108.696 9.86452 108.441 10.9312 108.463 12.0101C108.44 13.0868 108.703 14.1505 109.227 15.0936C109.737 15.9903 110.484 16.7318 111.387 17.2386C112.334 17.7681 113.405 18.0374 114.492 18.0189C115.943 18.0675 117.354 17.5458 118.42 16.567C118.502 16.4924 118.567 16.4018 118.613 16.301C118.658 16.2002 118.681 16.0914 118.682 15.9811C118.673 15.8293 118.631 15.6812 118.559 15.5467C118.488 15.4121 118.389 15.2943 118.268 15.2008C118.105 15.0758 117.905 15.0071 117.699 15.0051C117.404 15.0173 117.12 15.1235 116.889 15.3081C116.209 15.8428 115.356 16.1127 114.489 16.0669C113.779 16.0796 113.079 15.8997 112.464 15.5467C111.881 15.206 111.404 14.7107 111.088 14.1163C110.757 13.4655 110.592 12.7434 110.609 12.0141C110.558 10.933 110.934 9.87487 111.657 9.06468C112.004 8.69418 112.427 8.40187 112.898 8.20739C113.369 8.01291 113.876 7.92077 114.385 7.93719C114.886 7.93637 115.383 8.03196 115.847 8.21872C116.305 8.40959 116.715 8.69846 117.047 9.06468C117.149 9.19051 117.279 9.29118 117.427 9.35885C117.575 9.42653 117.736 9.45936 117.899 9.45479C118.078 9.45814 118.254 9.40515 118.401 9.30333C118.543 9.21986 118.661 9.10246 118.744 8.96191C118.828 8.82136 118.875 8.66215 118.881 8.49894C118.874 8.29205 118.797 8.09349 118.662 7.93584C118.14 7.31264 117.484 6.81388 116.742 6.47646C116 6.13905 115.192 5.97164 114.376 5.98657V5.98522ZM7.02583 7.93584C7.72328 7.92509 8.41027 8.10504 9.01165 8.45602C9.5963 8.8047 10.0724 9.30722 10.3873 9.90795C10.7244 10.5576 10.8968 11.2792 10.8895 12.0101C10.8996 12.7412 10.727 13.4635 10.3873 14.1122C10.0714 14.7066 9.59504 15.202 9.01165 15.5427C8.41027 15.8937 7.72328 16.0736 7.02583 16.0629C6.32155 16.0736 5.62761 15.8938 5.01839 15.5427C4.43501 15.202 3.95866 14.7066 3.64274 14.1122C3.29321 13.4671 3.12007 12.7423 3.14055 12.0101C3.12262 11.2781 3.29561 10.5539 3.64274 9.90795C3.95763 9.30722 4.43375 8.8047 5.01839 8.45602C5.62775 8.10541 6.32168 7.92607 7.02583 7.93719V7.93584ZM26.3212 7.93584C27.0129 7.93368 27.6921 8.11909 28.2855 8.4721C28.8707 8.82638 29.3521 9.32705 29.6814 9.92403C30.016 10.567 30.1883 11.281 30.1835 12.0047C30.1935 12.729 30.0209 13.4443 29.6814 14.0854C29.3521 14.6824 28.8707 15.1831 28.2855 15.5373C27.6838 15.8783 27.0031 16.0576 26.3104 16.0576C25.6177 16.0576 24.937 15.8783 24.3354 15.5373C23.7496 15.1832 23.2678 14.6826 22.9382 14.0854C22.5886 13.4481 22.4153 12.7302 22.436 12.0047C22.4205 11.2798 22.5935 10.5632 22.9382 9.92403C23.2678 9.32688 23.7496 8.82619 24.3354 8.4721C24.9356 8.11667 25.6225 7.93166 26.3212 7.93719V7.93584ZM46.2052 7.93584C46.8969 7.93361 47.5761 8.11903 48.1695 8.4721C48.7552 8.82619 49.237 9.32688 49.5667 9.92403C49.9182 10.5615 50.0986 11.278 50.0905 12.0047C50.1039 12.732 49.9232 13.4499 49.5667 14.0854C49.237 14.6826 48.7552 15.1832 48.1695 15.5373C47.5678 15.8783 46.8871 16.0576 46.1944 16.0576C45.5018 16.0576 44.821 15.8783 44.2194 15.5373C43.6348 15.1887 43.1587 14.6861 42.8438 14.0854C42.4942 13.4481 42.3209 12.7302 42.3416 12.0047C42.3261 11.2798 42.4991 10.5632 42.8438 9.92403C43.1587 9.32334 43.6348 8.82083 44.2194 8.4721C44.8196 8.11667 45.5065 7.93166 46.2052 7.93719V7.93584ZM95.1896 7.93584C95.8813 7.93368 96.5605 8.11909 97.1539 8.4721C97.7391 8.82638 98.2205 9.32705 98.5498 9.92403C98.8844 10.567 99.0567 11.281 99.0519 12.0047C99.0619 12.729 98.8893 13.4443 98.5498 14.0854C98.2205 14.6824 97.7391 15.1831 97.1539 15.5373C96.5523 15.8783 95.8715 16.0576 95.1788 16.0576C94.4862 16.0576 93.8054 15.8783 93.2038 15.5373C92.618 15.1832 92.1362 14.6826 91.8066 14.0854C91.457 13.4481 91.2837 12.7302 91.3044 12.0047C91.289 11.2798 91.4619 10.5632 91.8066 9.92403C92.1362 9.32688 92.618 8.82619 93.2038 8.4721C93.804 8.11667 94.4909 7.93166 95.1896 7.93719V7.93584Z"/>
</mask>
<path d="M127.816 1.00066C127.671 0.995582 127.527 1.01984 127.392 1.07193C127.257 1.12402 127.134 1.20287 127.03 1.30366C126.934 1.40457 126.859 1.52383 126.811 1.65425C126.762 1.78467 126.74 1.92354 126.747 2.06248V16.8659C126.734 17.0087 126.752 17.1525 126.801 17.2874C126.85 17.4222 126.929 17.5447 127.031 17.646C127.133 17.7474 127.256 17.8252 127.392 17.8739C127.528 17.9226 127.672 17.9409 127.816 17.9277C127.956 17.9344 128.096 17.9129 128.227 17.8645C128.359 17.8162 128.479 17.7419 128.58 17.6462C128.682 17.5434 128.761 17.4213 128.814 17.2872C128.866 17.153 128.89 17.0097 128.885 16.8659V13.5492L129.976 12.596L134.123 17.6904C134.212 17.8145 134.33 17.915 134.467 17.9831C134.604 18.0511 134.756 18.0846 134.909 18.0806C135.165 18.0761 135.411 17.9842 135.607 17.8205C135.731 17.7261 135.831 17.6041 135.899 17.4645C135.968 17.3248 136.002 17.1713 136 17.0161C136.004 16.7772 135.918 16.5453 135.76 16.3658L131.526 11.207L135.542 7.65297C135.653 7.56488 135.742 7.45278 135.803 7.32521C135.863 7.19765 135.894 7.05801 135.892 6.91698C135.886 6.66596 135.785 6.42642 135.608 6.24665C135.523 6.14389 135.418 6.06 135.298 6.00044C135.178 5.94087 135.047 5.90696 134.913 5.9009C134.78 5.89483 134.646 5.91673 134.521 5.96521C134.397 6.01369 134.284 6.08765 134.19 6.1823L128.887 10.8853V2.06379C128.89 1.9234 128.865 1.7838 128.813 1.65339C128.76 1.52299 128.681 1.40452 128.581 1.30522C128.481 1.20592 128.362 1.12786 128.231 1.07574C128.1 1.02361 127.959 0.998515 127.818 1.00201L127.816 1.00066ZM78.0853 2.30109C77.9404 2.29627 77.796 2.32078 77.6609 2.3731C77.5258 2.42542 77.4029 2.50447 77.2996 2.60545C77.1973 2.70758 77.1174 2.82961 77.0648 2.96389C77.0123 3.09817 76.9884 3.24179 76.9945 3.3857V13.7234C76.9741 14.4694 77.147 15.208 77.4967 15.8685C77.8032 16.4922 78.2798 17.018 78.8723 17.3861C79.4614 17.7489 80.1435 17.9351 80.8365 17.9223H81.2294C81.5628 17.9423 81.8911 17.8338 82.146 17.6194C82.2645 17.5268 82.3598 17.4081 82.4242 17.2726C82.4886 17.1372 82.5205 16.9889 82.5173 16.8391C82.5169 16.5542 82.4166 16.2784 82.2338 16.0589C82.1537 15.9637 82.0536 15.8873 81.9404 15.8349C81.8272 15.7825 81.7039 15.7555 81.579 15.7559H80.8365C80.6072 15.7594 80.3803 15.708 80.1751 15.606C79.97 15.504 79.7926 15.3545 79.658 15.17C79.3264 14.7596 79.1561 14.2437 79.1787 13.7181V8.37423H81.0336C81.3055 8.38503 81.5712 8.29195 81.7761 8.11414C81.8652 8.03042 81.9362 7.92965 81.985 7.81789C82.0337 7.70613 82.0591 7.58573 82.0596 7.46395C82.0613 7.33549 82.037 7.20801 81.9883 7.08898C81.9397 6.96995 81.8675 6.86178 81.7761 6.77084C81.5712 6.59303 81.3055 6.49995 81.0336 6.51075H79.1787V3.38971C79.1852 3.24568 79.1615 3.10187 79.109 2.96745C79.0565 2.83302 78.9764 2.71094 78.8738 2.60892C78.7712 2.50691 78.6484 2.4272 78.5131 2.3749C78.3778 2.3226 78.233 2.29886 78.088 2.30514L78.0853 2.30109ZM7.02583 5.98522C5.93408 5.96505 4.85665 6.23439 3.90463 6.76548C3.00434 7.25878 2.26299 7.99498 1.76625 8.88904C1.23843 9.8441 0.974793 10.921 1.00216 12.0101C0.974404 13.0846 1.21414 14.1493 1.70011 15.1097C2.14981 16.0074 2.84941 16.7581 3.71586 17.2728C4.58232 17.7875 5.57927 18.0446 6.58842 18.0135C7.47174 18.0284 8.34144 17.7961 9.09805 17.3432C9.8511 16.8913 10.4691 16.248 10.8881 15.4797V16.5415C10.9108 17.3596 10.7309 18.1707 10.3643 18.9037C10.0421 19.5178 9.55948 20.0345 8.9671 20.3999C8.37739 20.7387 7.70567 20.9112 7.02447 20.8986C6.32938 20.9112 5.63942 20.7782 4.99948 20.5085C4.40747 20.2581 3.89446 19.8538 3.51451 19.3381C3.41216 19.1973 3.27768 19.0826 3.12211 19.0034C2.96654 18.9241 2.79429 18.8826 2.61945 18.8823C2.40068 18.884 2.1877 18.9523 2.00926 19.078C1.87281 19.1592 1.75921 19.2732 1.67897 19.4096C1.59874 19.546 1.55447 19.7003 1.55027 19.8582C1.54772 20.084 1.63391 20.3019 1.79056 20.4656C2.38642 21.2363 3.16639 21.8473 4.05989 22.2432C4.97808 22.6558 5.97627 22.8631 6.98397 22.8506C8.07882 22.8706 9.15827 22.5924 10.1051 22.0462C11.0172 21.5124 11.7643 20.7403 12.2651 19.814C12.778 18.8533 13.0407 17.7803 13.0292 16.693V12.0114C13.0495 10.9204 12.7784 9.84357 12.2435 8.89039C11.7406 8.00096 11.0008 7.26626 10.1051 6.76683C9.16633 6.24066 8.10372 5.97141 7.02583 5.98657V5.98522ZM26.3212 5.98522C25.2421 5.97865 24.1805 6.25621 23.2446 6.78962C22.3404 7.30492 21.5939 8.05409 21.0846 8.95741C20.5553 9.88894 20.2841 10.9433 20.2989 12.0128C20.2825 13.0836 20.53 14.1421 21.0198 15.0963C21.479 15.98 22.1733 16.7219 23.0273 17.2413C23.8824 17.7775 24.8753 18.0569 25.8865 18.0457H31.273C31.5507 18.0428 31.8166 17.9338 32.0155 17.7413C32.1146 17.6461 32.1928 17.5316 32.2453 17.4049C32.2978 17.2783 32.3234 17.1423 32.3206 17.0054V12.0208C32.3244 10.9495 32.0451 9.89601 31.5106 8.96547C31.0013 8.06215 30.2548 7.31294 29.3506 6.79763C28.4311 6.26543 27.3856 5.98554 26.3212 5.98657V5.98522ZM41.2508 5.98522C41.1129 5.98241 40.9759 6.00788 40.8484 6.06001C40.7209 6.11214 40.6056 6.1898 40.5096 6.28818C40.4097 6.3831 40.331 6.49777 40.2784 6.62478C40.2258 6.75178 40.2007 6.88831 40.2045 7.02556V21.8934C40.1955 22.0408 40.218 22.1884 40.2707 22.3265C40.3234 22.4647 40.405 22.59 40.5102 22.6945C40.6154 22.7989 40.7416 22.88 40.8807 22.9323C41.0198 22.9846 41.1685 23.0071 41.3169 22.9981C41.4619 23.0041 41.6065 22.9803 41.7417 22.9281C41.8769 22.876 41.9998 22.7966 42.1026 22.6951C42.2139 22.5935 42.301 22.4686 42.3577 22.3295C42.4145 22.1904 42.4394 22.0405 42.4307 21.8907V16.0427C42.9254 16.6648 43.5609 17.1622 44.2855 17.4947C45.1064 17.8771 46.0094 18.0534 46.9149 18.008C47.8205 17.9627 48.701 17.6971 49.479 17.2346C50.3329 16.7152 51.0272 15.9733 51.4864 15.0895C51.9831 14.1371 52.2379 13.0786 52.2289 12.0061C52.2437 10.9365 51.9726 9.88227 51.4432 8.95074C50.9253 8.04616 50.1711 7.29719 49.2603 6.78291C48.331 6.25227 47.2771 5.97477 46.2052 5.97851H41.2508V5.98522ZM64.2857 5.98522C63.542 5.98223 62.8035 6.10696 62.1027 6.35389C61.4639 6.57633 60.8928 6.95704 60.4436 7.45994C60.0146 7.96063 59.7889 8.60203 59.8104 9.25906C59.8104 11.014 61.2077 12.1629 63.9954 12.6831C64.7995 12.7998 65.5764 13.0566 66.2904 13.4419C66.4871 13.5554 66.652 13.7162 66.7699 13.9094C66.8879 14.1027 66.9551 14.3222 66.9654 14.5479C66.9657 14.7788 66.9003 15.0051 66.7768 15.2008C66.6534 15.3965 66.4768 15.5535 66.2674 15.654C65.6771 15.9633 65.0126 16.1056 64.3464 16.0655C63.7413 16.0706 63.1409 15.96 62.5779 15.7398C62.103 15.5768 61.6757 15.3005 61.3332 14.9354C61.2282 14.8188 61.1008 14.7242 60.9585 14.6572C60.8161 14.5902 60.6617 14.5521 60.5043 14.5453C60.2236 14.5627 59.9558 14.6688 59.7402 14.8482C59.6009 14.9406 59.4877 15.0668 59.4114 15.2149C59.335 15.3629 59.2981 15.528 59.3042 15.6942C59.2999 15.8196 59.323 15.9445 59.3719 16.0602C59.4209 16.1759 59.4945 16.2798 59.5877 16.3645C60.169 16.915 60.8716 17.3231 61.6397 17.5563C62.5378 17.8653 63.4824 18.0195 64.4328 18.0122C65.2991 18.0342 66.1607 17.879 66.9641 17.5563C67.6156 17.2918 68.1776 16.8482 68.584 16.2774C68.9383 15.7355 69.126 15.1029 69.124 14.4568C69.1317 14.0407 69.0457 13.6281 68.8721 13.2493C68.6986 12.8705 68.4419 12.5351 68.121 12.2675C67.1223 11.5677 65.9699 11.1145 64.7595 10.9456C64.1554 10.8478 63.5632 10.6879 62.9924 10.4683C62.6725 10.3669 62.3862 10.1817 62.1635 9.93209C62.0073 9.71863 61.93 9.45817 61.9448 9.19471C61.9435 8.9933 62.0032 8.79616 62.1161 8.62884C62.229 8.46151 62.3899 8.33174 62.5779 8.25628C63.096 8.01339 63.6643 7.89446 64.2371 7.90905C64.7403 7.90604 65.241 7.97926 65.722 8.12621C66.1503 8.2785 66.5436 8.51414 66.879 8.81933C67.0141 8.95195 67.1743 9.05663 67.3504 9.12728C67.5266 9.19793 67.715 9.23316 67.905 9.23092C68.1227 9.24384 68.3383 9.18285 68.5165 9.05798C68.6265 8.98245 68.7173 8.88259 68.7817 8.76626C68.8461 8.64993 68.8824 8.52031 68.8878 8.38765C68.8672 8.13277 68.7682 7.89033 68.6043 7.69319C68.1189 7.13656 67.5046 6.70548 66.8142 6.43702C66.009 6.1245 65.15 5.97147 64.2857 5.98657V5.98522ZM95.1896 5.98522C94.1101 5.97848 93.048 6.25604 92.1117 6.78962C91.2074 7.30486 90.4609 8.05405 89.9517 8.95741C89.4223 9.88894 89.1512 10.9433 89.166 12.0128C89.1496 13.0836 89.3971 14.1421 89.8869 15.0963C90.3461 15.98 91.0403 16.7219 91.8943 17.2413C92.7494 17.7775 93.7423 18.0569 94.7536 18.0457H100.144C100.422 18.0428 100.688 17.9338 100.887 17.7413C100.986 17.6461 101.064 17.5316 101.116 17.4049C101.169 17.2783 101.195 17.1423 101.192 17.0054V12.0208C101.196 10.9495 100.916 9.89601 100.382 8.96547C99.8724 8.06215 99.1259 7.31294 98.2217 6.79763C97.3014 6.26497 96.2549 5.98506 95.1896 5.98657V5.98522ZM114.376 5.98522C113.305 5.96778 112.25 6.23733 111.321 6.76548C110.425 7.2678 109.692 8.01147 109.204 8.91052C108.696 9.86452 108.441 10.9312 108.463 12.0101C108.44 13.0868 108.703 14.1505 109.227 15.0936C109.737 15.9903 110.484 16.7318 111.387 17.2386C112.334 17.7681 113.405 18.0374 114.492 18.0189C115.943 18.0675 117.354 17.5458 118.42 16.567C118.502 16.4924 118.567 16.4018 118.613 16.301C118.658 16.2002 118.681 16.0914 118.682 15.9811C118.673 15.8293 118.631 15.6812 118.559 15.5467C118.488 15.4121 118.389 15.2943 118.268 15.2008C118.105 15.0758 117.905 15.0071 117.699 15.0051C117.404 15.0173 117.12 15.1235 116.889 15.3081C116.209 15.8428 115.356 16.1127 114.489 16.0669C113.779 16.0796 113.079 15.8997 112.464 15.5467C111.881 15.206 111.404 14.7107 111.088 14.1163C110.757 13.4655 110.592 12.7434 110.609 12.0141C110.558 10.933 110.934 9.87487 111.657 9.06468C112.004 8.69418 112.427 8.40187 112.898 8.20739C113.369 8.01291 113.876 7.92077 114.385 7.93719C114.886 7.93637 115.383 8.03196 115.847 8.21872C116.305 8.40959 116.715 8.69846 117.047 9.06468C117.149 9.19051 117.279 9.29118 117.427 9.35885C117.575 9.42653 117.736 9.45936 117.899 9.45479C118.078 9.45814 118.254 9.40515 118.401 9.30333C118.543 9.21986 118.661 9.10246 118.744 8.96191C118.828 8.82136 118.875 8.66215 118.881 8.49894C118.874 8.29205 118.797 8.09349 118.662 7.93584C118.14 7.31264 117.484 6.81388 116.742 6.47646C116 6.13905 115.192 5.97164 114.376 5.98657V5.98522ZM7.02583 7.93584C7.72328 7.92509 8.41027 8.10504 9.01165 8.45602C9.5963 8.8047 10.0724 9.30722 10.3873 9.90795C10.7244 10.5576 10.8968 11.2792 10.8895 12.0101C10.8996 12.7412 10.727 13.4635 10.3873 14.1122C10.0714 14.7066 9.59504 15.202 9.01165 15.5427C8.41027 15.8937 7.72328 16.0736 7.02583 16.0629C6.32155 16.0736 5.62761 15.8938 5.01839 15.5427C4.43501 15.202 3.95866 14.7066 3.64274 14.1122C3.29321 13.4671 3.12007 12.7423 3.14055 12.0101C3.12262 11.2781 3.29561 10.5539 3.64274 9.90795C3.95763 9.30722 4.43375 8.8047 5.01839 8.45602C5.62775 8.10541 6.32168 7.92607 7.02583 7.93719V7.93584ZM26.3212 7.93584C27.0129 7.93368 27.6921 8.11909 28.2855 8.4721C28.8707 8.82638 29.3521 9.32705 29.6814 9.92403C30.016 10.567 30.1883 11.281 30.1835 12.0047C30.1935 12.729 30.0209 13.4443 29.6814 14.0854C29.3521 14.6824 28.8707 15.1831 28.2855 15.5373C27.6838 15.8783 27.0031 16.0576 26.3104 16.0576C25.6177 16.0576 24.937 15.8783 24.3354 15.5373C23.7496 15.1832 23.2678 14.6826 22.9382 14.0854C22.5886 13.4481 22.4153 12.7302 22.436 12.0047C22.4205 11.2798 22.5935 10.5632 22.9382 9.92403C23.2678 9.32688 23.7496 8.82619 24.3354 8.4721C24.9356 8.11667 25.6225 7.93166 26.3212 7.93719V7.93584ZM46.2052 7.93584C46.8969 7.93361 47.5761 8.11903 48.1695 8.4721C48.7552 8.82619 49.237 9.32688 49.5667 9.92403C49.9182 10.5615 50.0986 11.278 50.0905 12.0047C50.1039 12.732 49.9232 13.4499 49.5667 14.0854C49.237 14.6826 48.7552 15.1832 48.1695 15.5373C47.5678 15.8783 46.8871 16.0576 46.1944 16.0576C45.5018 16.0576 44.821 15.8783 44.2194 15.5373C43.6348 15.1887 43.1587 14.6861 42.8438 14.0854C42.4942 13.4481 42.3209 12.7302 42.3416 12.0047C42.3261 11.2798 42.4991 10.5632 42.8438 9.92403C43.1587 9.32334 43.6348 8.82083 44.2194 8.4721C44.8196 8.11667 45.5065 7.93166 46.2052 7.93719V7.93584ZM95.1896 7.93584C95.8813 7.93368 96.5605 8.11909 97.1539 8.4721C97.7391 8.82638 98.2205 9.32705 98.5498 9.92403C98.8844 10.567 99.0567 11.281 99.0519 12.0047C99.0619 12.729 98.8893 13.4443 98.5498 14.0854C98.2205 14.6824 97.7391 15.1831 97.1539 15.5373C96.5523 15.8783 95.8715 16.0576 95.1788 16.0576C94.4862 16.0576 93.8054 15.8783 93.2038 15.5373C92.618 15.1832 92.1362 14.6826 91.8066 14.0854C91.457 13.4481 91.2837 12.7302 91.3044 12.0047C91.289 11.2798 91.4619 10.5632 91.8066 9.92403C92.1362 9.32688 92.618 8.82619 93.2038 8.4721C93.804 8.11667 94.4909 7.93166 95.1896 7.93719V7.93584Z" fill="#7C60FF"/>
<path d="M127.816 1.00066C127.671 0.995582 127.527 1.01984 127.392 1.07193C127.257 1.12402 127.134 1.20287 127.03 1.30366C126.934 1.40457 126.859 1.52383 126.811 1.65425C126.762 1.78467 126.74 1.92354 126.747 2.06248V16.8659C126.734 17.0087 126.752 17.1525 126.801 17.2874C126.85 17.4222 126.929 17.5447 127.031 17.646C127.133 17.7474 127.256 17.8252 127.392 17.8739C127.528 17.9226 127.672 17.9409 127.816 17.9277C127.956 17.9344 128.096 17.9129 128.227 17.8645C128.359 17.8162 128.479 17.7419 128.58 17.6462C128.682 17.5434 128.761 17.4213 128.814 17.2872C128.866 17.153 128.89 17.0097 128.885 16.8659V13.5492L129.976 12.596L134.123 17.6904C134.212 17.8145 134.33 17.915 134.467 17.9831C134.604 18.0511 134.756 18.0846 134.909 18.0806C135.165 18.0761 135.411 17.9842 135.607 17.8205C135.731 17.7261 135.831 17.6041 135.899 17.4645C135.968 17.3248 136.002 17.1713 136 17.0161C136.004 16.7772 135.918 16.5453 135.76 16.3658L131.526 11.207L135.542 7.65297C135.653 7.56488 135.742 7.45278 135.803 7.32521C135.863 7.19765 135.894 7.05801 135.892 6.91698C135.886 6.66596 135.785 6.42642 135.608 6.24665C135.523 6.14389 135.418 6.06 135.298 6.00044C135.178 5.94087 135.047 5.90696 134.913 5.9009C134.78 5.89483 134.646 5.91673 134.521 5.96521C134.397 6.01369 134.284 6.08765 134.19 6.1823L128.887 10.8853V2.06379C128.89 1.9234 128.865 1.7838 128.813 1.65339C128.76 1.52299 128.681 1.40452 128.581 1.30522C128.481 1.20592 128.362 1.12786 128.231 1.07574C128.1 1.02361 127.959 0.998515 127.818 1.00201L127.816 1.00066ZM78.0853 2.30109C77.9404 2.29627 77.796 2.32078 77.6609 2.3731C77.5258 2.42542 77.4029 2.50447 77.2996 2.60545C77.1973 2.70758 77.1174 2.82961 77.0648 2.96389C77.0123 3.09817 76.9884 3.24179 76.9945 3.3857V13.7234C76.9741 14.4694 77.147 15.208 77.4967 15.8685C77.8032 16.4922 78.2798 17.018 78.8723 17.3861C79.4614 17.7489 80.1435 17.9351 80.8365 17.9223H81.2294C81.5628 17.9423 81.8911 17.8338 82.146 17.6194C82.2645 17.5268 82.3598 17.4081 82.4242 17.2726C82.4886 17.1372 82.5205 16.9889 82.5173 16.8391C82.5169 16.5542 82.4166 16.2784 82.2338 16.0589C82.1537 15.9637 82.0536 15.8873 81.9404 15.8349C81.8272 15.7825 81.7039 15.7555 81.579 15.7559H80.8365C80.6072 15.7594 80.3803 15.708 80.1751 15.606C79.97 15.504 79.7926 15.3545 79.658 15.17C79.3264 14.7596 79.1561 14.2437 79.1787 13.7181V8.37423H81.0336C81.3055 8.38503 81.5712 8.29195 81.7761 8.11414C81.8652 8.03042 81.9362 7.92965 81.985 7.81789C82.0337 7.70613 82.0591 7.58573 82.0596 7.46395C82.0613 7.33549 82.037 7.20801 81.9883 7.08898C81.9397 6.96995 81.8675 6.86178 81.7761 6.77084C81.5712 6.59303 81.3055 6.49995 81.0336 6.51075H79.1787V3.38971C79.1852 3.24568 79.1615 3.10187 79.109 2.96745C79.0565 2.83302 78.9764 2.71094 78.8738 2.60892C78.7712 2.50691 78.6484 2.4272 78.5131 2.3749C78.3778 2.3226 78.233 2.29886 78.088 2.30514L78.0853 2.30109ZM7.02583 5.98522C5.93408 5.96505 4.85665 6.23439 3.90463 6.76548C3.00434 7.25878 2.26299 7.99498 1.76625 8.88904C1.23843 9.8441 0.974793 10.921 1.00216 12.0101C0.974404 13.0846 1.21414 14.1493 1.70011 15.1097C2.14981 16.0074 2.84941 16.7581 3.71586 17.2728C4.58232 17.7875 5.57927 18.0446 6.58842 18.0135C7.47174 18.0284 8.34144 17.7961 9.09805 17.3432C9.8511 16.8913 10.4691 16.248 10.8881 15.4797V16.5415C10.9108 17.3596 10.7309 18.1707 10.3643 18.9037C10.0421 19.5178 9.55948 20.0345 8.9671 20.3999C8.37739 20.7387 7.70567 20.9112 7.02447 20.8986C6.32938 20.9112 5.63942 20.7782 4.99948 20.5085C4.40747 20.2581 3.89446 19.8538 3.51451 19.3381C3.41216 19.1973 3.27768 19.0826 3.12211 19.0034C2.96654 18.9241 2.79429 18.8826 2.61945 18.8823C2.40068 18.884 2.1877 18.9523 2.00926 19.078C1.87281 19.1592 1.75921 19.2732 1.67897 19.4096C1.59874 19.546 1.55447 19.7003 1.55027 19.8582C1.54772 20.084 1.63391 20.3019 1.79056 20.4656C2.38642 21.2363 3.16639 21.8473 4.05989 22.2432C4.97808 22.6558 5.97627 22.8631 6.98397 22.8506C8.07882 22.8706 9.15827 22.5924 10.1051 22.0462C11.0172 21.5124 11.7643 20.7403 12.2651 19.814C12.778 18.8533 13.0407 17.7803 13.0292 16.693V12.0114C13.0495 10.9204 12.7784 9.84357 12.2435 8.89039C11.7406 8.00096 11.0008 7.26626 10.1051 6.76683C9.16633 6.24066 8.10372 5.97141 7.02583 5.98657V5.98522ZM26.3212 5.98522C25.2421 5.97865 24.1805 6.25621 23.2446 6.78962C22.3404 7.30492 21.5939 8.05409 21.0846 8.95741C20.5553 9.88894 20.2841 10.9433 20.2989 12.0128C20.2825 13.0836 20.53 14.1421 21.0198 15.0963C21.479 15.98 22.1733 16.7219 23.0273 17.2413C23.8824 17.7775 24.8753 18.0569 25.8865 18.0457H31.273C31.5507 18.0428 31.8166 17.9338 32.0155 17.7413C32.1146 17.6461 32.1928 17.5316 32.2453 17.4049C32.2978 17.2783 32.3234 17.1423 32.3206 17.0054V12.0208C32.3244 10.9495 32.0451 9.89601 31.5106 8.96547C31.0013 8.06215 30.2548 7.31294 29.3506 6.79763C28.4311 6.26543 27.3856 5.98554 26.3212 5.98657V5.98522ZM41.2508 5.98522C41.1129 5.98241 40.9759 6.00788 40.8484 6.06001C40.7209 6.11214 40.6056 6.1898 40.5096 6.28818C40.4097 6.3831 40.331 6.49777 40.2784 6.62478C40.2258 6.75178 40.2007 6.88831 40.2045 7.02556V21.8934C40.1955 22.0408 40.218 22.1884 40.2707 22.3265C40.3234 22.4647 40.405 22.59 40.5102 22.6945C40.6154 22.7989 40.7416 22.88 40.8807 22.9323C41.0198 22.9846 41.1685 23.0071 41.3169 22.9981C41.4619 23.0041 41.6065 22.9803 41.7417 22.9281C41.8769 22.876 41.9998 22.7966 42.1026 22.6951C42.2139 22.5935 42.301 22.4686 42.3577 22.3295C42.4145 22.1904 42.4394 22.0405 42.4307 21.8907V16.0427C42.9254 16.6648 43.5609 17.1622 44.2855 17.4947C45.1064 17.8771 46.0094 18.0534 46.9149 18.008C47.8205 17.9627 48.701 17.6971 49.479 17.2346C50.3329 16.7152 51.0272 15.9733 51.4864 15.0895C51.9831 14.1371 52.2379 13.0786 52.2289 12.0061C52.2437 10.9365 51.9726 9.88227 51.4432 8.95074C50.9253 8.04616 50.1711 7.29719 49.2603 6.78291C48.331 6.25227 47.2771 5.97477 46.2052 5.97851H41.2508V5.98522ZM64.2857 5.98522C63.542 5.98223 62.8035 6.10696 62.1027 6.35389C61.4639 6.57633 60.8928 6.95704 60.4436 7.45994C60.0146 7.96063 59.7889 8.60203 59.8104 9.25906C59.8104 11.014 61.2077 12.1629 63.9954 12.6831C64.7995 12.7998 65.5764 13.0566 66.2904 13.4419C66.4871 13.5554 66.652 13.7162 66.7699 13.9094C66.8879 14.1027 66.9551 14.3222 66.9654 14.5479C66.9657 14.7788 66.9003 15.0051 66.7768 15.2008C66.6534 15.3965 66.4768 15.5535 66.2674 15.654C65.6771 15.9633 65.0126 16.1056 64.3464 16.0655C63.7413 16.0706 63.1409 15.96 62.5779 15.7398C62.103 15.5768 61.6757 15.3005 61.3332 14.9354C61.2282 14.8188 61.1008 14.7242 60.9585 14.6572C60.8161 14.5902 60.6617 14.5521 60.5043 14.5453C60.2236 14.5627 59.9558 14.6688 59.7402 14.8482C59.6009 14.9406 59.4877 15.0668 59.4114 15.2149C59.335 15.3629 59.2981 15.528 59.3042 15.6942C59.2999 15.8196 59.323 15.9445 59.3719 16.0602C59.4209 16.1759 59.4945 16.2798 59.5877 16.3645C60.169 16.915 60.8716 17.3231 61.6397 17.5563C62.5378 17.8653 63.4824 18.0195 64.4328 18.0122C65.2991 18.0342 66.1607 17.879 66.9641 17.5563C67.6156 17.2918 68.1776 16.8482 68.584 16.2774C68.9383 15.7355 69.126 15.1029 69.124 14.4568C69.1317 14.0407 69.0457 13.6281 68.8721 13.2493C68.6986 12.8705 68.4419 12.5351 68.121 12.2675C67.1223 11.5677 65.9699 11.1145 64.7595 10.9456C64.1554 10.8478 63.5632 10.6879 62.9924 10.4683C62.6725 10.3669 62.3862 10.1817 62.1635 9.93209C62.0073 9.71863 61.93 9.45817 61.9448 9.19471C61.9435 8.9933 62.0032 8.79616 62.1161 8.62884C62.229 8.46151 62.3899 8.33174 62.5779 8.25628C63.096 8.01339 63.6643 7.89446 64.2371 7.90905C64.7403 7.90604 65.241 7.97926 65.722 8.12621C66.1503 8.2785 66.5436 8.51414 66.879 8.81933C67.0141 8.95195 67.1743 9.05663 67.3504 9.12728C67.5266 9.19793 67.715 9.23316 67.905 9.23092C68.1227 9.24384 68.3383 9.18285 68.5165 9.05798C68.6265 8.98245 68.7173 8.88259 68.7817 8.76626C68.8461 8.64993 68.8824 8.52031 68.8878 8.38765C68.8672 8.13277 68.7682 7.89033 68.6043 7.69319C68.1189 7.13656 67.5046 6.70548 66.8142 6.43702C66.009 6.1245 65.15 5.97147 64.2857 5.98657V5.98522ZM95.1896 5.98522C94.1101 5.97848 93.048 6.25604 92.1117 6.78962C91.2074 7.30486 90.4609 8.05405 89.9517 8.95741C89.4223 9.88894 89.1512 10.9433 89.166 12.0128C89.1496 13.0836 89.3971 14.1421 89.8869 15.0963C90.3461 15.98 91.0403 16.7219 91.8943 17.2413C92.7494 17.7775 93.7423 18.0569 94.7536 18.0457H100.144C100.422 18.0428 100.688 17.9338 100.887 17.7413C100.986 17.6461 101.064 17.5316 101.116 17.4049C101.169 17.2783 101.195 17.1423 101.192 17.0054V12.0208C101.196 10.9495 100.916 9.89601 100.382 8.96547C99.8724 8.06215 99.1259 7.31294 98.2217 6.79763C97.3014 6.26497 96.2549 5.98506 95.1896 5.98657V5.98522ZM114.376 5.98522C113.305 5.96778 112.25 6.23733 111.321 6.76548C110.425 7.2678 109.692 8.01147 109.204 8.91052C108.696 9.86452 108.441 10.9312 108.463 12.0101C108.44 13.0868 108.703 14.1505 109.227 15.0936C109.737 15.9903 110.484 16.7318 111.387 17.2386C112.334 17.7681 113.405 18.0374 114.492 18.0189C115.943 18.0675 117.354 17.5458 118.42 16.567C118.502 16.4924 118.567 16.4018 118.613 16.301C118.658 16.2002 118.681 16.0914 118.682 15.9811C118.673 15.8293 118.631 15.6812 118.559 15.5467C118.488 15.4121 118.389 15.2943 118.268 15.2008C118.105 15.0758 117.905 15.0071 117.699 15.0051C117.404 15.0173 117.12 15.1235 116.889 15.3081C116.209 15.8428 115.356 16.1127 114.489 16.0669C113.779 16.0796 113.079 15.8997 112.464 15.5467C111.881 15.206 111.404 14.7107 111.088 14.1163C110.757 13.4655 110.592 12.7434 110.609 12.0141C110.558 10.933 110.934 9.87487 111.657 9.06468C112.004 8.69418 112.427 8.40187 112.898 8.20739C113.369 8.01291 113.876 7.92077 114.385 7.93719C114.886 7.93637 115.383 8.03196 115.847 8.21872C116.305 8.40959 116.715 8.69846 117.047 9.06468C117.149 9.19051 117.279 9.29118 117.427 9.35885C117.575 9.42653 117.736 9.45936 117.899 9.45479C118.078 9.45814 118.254 9.40515 118.401 9.30333C118.543 9.21986 118.661 9.10246 118.744 8.96191C118.828 8.82136 118.875 8.66215 118.881 8.49894C118.874 8.29205 118.797 8.09349 118.662 7.93584C118.14 7.31264 117.484 6.81388 116.742 6.47646C116 6.13905 115.192 5.97164 114.376 5.98657V5.98522ZM7.02583 7.93584C7.72328 7.92509 8.41027 8.10504 9.01165 8.45602C9.5963 8.8047 10.0724 9.30722 10.3873 9.90795C10.7244 10.5576 10.8968 11.2792 10.8895 12.0101C10.8996 12.7412 10.727 13.4635 10.3873 14.1122C10.0714 14.7066 9.59504 15.202 9.01165 15.5427C8.41027 15.8937 7.72328 16.0736 7.02583 16.0629C6.32155 16.0736 5.62761 15.8938 5.01839 15.5427C4.43501 15.202 3.95866 14.7066 3.64274 14.1122C3.29321 13.4671 3.12007 12.7423 3.14055 12.0101C3.12262 11.2781 3.29561 10.5539 3.64274 9.90795C3.95763 9.30722 4.43375 8.8047 5.01839 8.45602C5.62775 8.10541 6.32168 7.92607 7.02583 7.93719V7.93584ZM26.3212 7.93584C27.0129 7.93368 27.6921 8.11909 28.2855 8.4721C28.8707 8.82638 29.3521 9.32705 29.6814 9.92403C30.016 10.567 30.1883 11.281 30.1835 12.0047C30.1935 12.729 30.0209 13.4443 29.6814 14.0854C29.3521 14.6824 28.8707 15.1831 28.2855 15.5373C27.6838 15.8783 27.0031 16.0576 26.3104 16.0576C25.6177 16.0576 24.937 15.8783 24.3354 15.5373C23.7496 15.1832 23.2678 14.6826 22.9382 14.0854C22.5886 13.4481 22.4153 12.7302 22.436 12.0047C22.4205 11.2798 22.5935 10.5632 22.9382 9.92403C23.2678 9.32688 23.7496 8.82619 24.3354 8.4721C24.9356 8.11667 25.6225 7.93166 26.3212 7.93719V7.93584ZM46.2052 7.93584C46.8969 7.93361 47.5761 8.11903 48.1695 8.4721C48.7552 8.82619 49.237 9.32688 49.5667 9.92403C49.9182 10.5615 50.0986 11.278 50.0905 12.0047C50.1039 12.732 49.9232 13.4499 49.5667 14.0854C49.237 14.6826 48.7552 15.1832 48.1695 15.5373C47.5678 15.8783 46.8871 16.0576 46.1944 16.0576C45.5018 16.0576 44.821 15.8783 44.2194 15.5373C43.6348 15.1887 43.1587 14.6861 42.8438 14.0854C42.4942 13.4481 42.3209 12.7302 42.3416 12.0047C42.3261 11.2798 42.4991 10.5632 42.8438 9.92403C43.1587 9.32334 43.6348 8.82083 44.2194 8.4721C44.8196 8.11667 45.5065 7.93166 46.2052 7.93719V7.93584ZM95.1896 7.93584C95.8813 7.93368 96.5605 8.11909 97.1539 8.4721C97.7391 8.82638 98.2205 9.32705 98.5498 9.92403C98.8844 10.567 99.0567 11.281 99.0519 12.0047C99.0619 12.729 98.8893 13.4443 98.5498 14.0854C98.2205 14.6824 97.7391 15.1831 97.1539 15.5373C96.5523 15.8783 95.8715 16.0576 95.1788 16.0576C94.4862 16.0576 93.8054 15.8783 93.2038 15.5373C92.618 15.1832 92.1362 14.6826 91.8066 14.0854C91.457 13.4481 91.2837 12.7302 91.3044 12.0047C91.289 11.2798 91.4619 10.5632 91.8066 9.92403C92.1362 9.32688 92.618 8.82619 93.2038 8.4721C93.804 8.11667 94.4909 7.93166 95.1896 7.93719V7.93584Z" stroke="#7C60FF" stroke-width="1.2" mask="url(#path-1-outside-1)"/>
</svg>
