<svg width="58" height="58" viewBox="0 0 58 58" fill="none" xmlns="http://www.w3.org/2000/svg">
<path d="M24 2.88675C27.094 1.10042 30.906 1.10042 34 2.88675L49.1147 11.6132C52.2087 13.3996 54.1147 16.7008 54.1147 20.2735V37.7265C54.1147 41.2992 52.2087 44.6004 49.1147 46.3868L34 55.1132C30.906 56.8996 27.094 56.8996 24 55.1132L8.88526 46.3868C5.79125 44.6004 3.88526 41.2992 3.88526 37.7265V20.2735C3.88526 16.7008 5.79125 13.3996 8.88526 11.6132L24 2.88675Z" fill="#FE9902" fill-opacity="0.7"/>
<circle cx="12.5" cy="26.5" r="4.5" fill="url(#paint0_linear)" fill-opacity="0.5"/>
<circle cx="29.5" cy="28.5" r="17.5" fill="url(#paint1_linear)" fill-opacity="0.5"/>
<path d="M22 26C22.2652 26 22.5196 26.1054 22.7071 26.2929C22.8946 26.4804 23 26.7348 23 27C24.5711 26.9977 26.097 27.5263 27.33 28.5H29.5C30.833 28.5 32.03 29.08 32.854 30H36C36.9453 29.9997 37.8712 30.2674 38.6705 30.772C39.4698 31.2767 40.1097 31.9975 40.516 32.851C38.151 35.972 34.322 38 30 38C27.21 38 24.85 37.397 22.94 36.342C22.87 36.5351 22.7422 36.7018 22.574 36.8196C22.4058 36.9374 22.2053 37.0003 22 37H19C18.7348 37 18.4804 36.8946 18.2929 36.7071C18.1054 36.5196 18 36.2652 18 36V27C18 26.7348 18.1054 26.4804 18.2929 26.2929C18.4804 26.1054 18.7348 26 19 26H22ZM23.001 29L23 34.022L23.045 34.054C24.84 35.314 27.178 36 30 36C33.004 36 35.799 34.844 37.835 32.87L37.968 32.737L37.848 32.637C37.3758 32.2672 36.8034 32.0477 36.205 32.007L36 32H33.889C33.961 32.322 34 32.656 34 33V34H25V32L31.79 31.999L31.756 31.921C31.5644 31.5205 31.2696 31.1783 30.9019 30.9295C30.5343 30.6806 30.107 30.5341 29.664 30.505L29.5 30.5H26.57C26.1053 30.0247 25.5503 29.6472 24.9375 29.3896C24.3248 29.132 23.6667 28.9995 23.002 29H23.001ZM21 28H20V35H21V28ZM35 22C35.7956 22 36.5587 22.3161 37.1213 22.8787C37.6839 23.4413 38 24.2044 38 25C38 25.7956 37.6839 26.5587 37.1213 27.1213C36.5587 27.6839 35.7956 28 35 28C34.2043 28 33.4413 27.6839 32.8787 27.1213C32.3161 26.5587 32 25.7956 32 25C32 24.2044 32.3161 23.4413 32.8787 22.8787C33.4413 22.3161 34.2043 22 35 22ZM35 24C34.7348 24 34.4804 24.1054 34.2929 24.2929C34.1054 24.4804 34 24.7348 34 25C34 25.2652 34.1054 25.5196 34.2929 25.7071C34.4804 25.8946 34.7348 26 35 26C35.2652 26 35.5196 25.8946 35.7071 25.7071C35.8946 25.5196 36 25.2652 36 25C36 24.7348 35.8946 24.4804 35.7071 24.2929C35.5196 24.1054 35.2652 24 35 24ZM28 19C28.7956 19 29.5587 19.3161 30.1213 19.8787C30.6839 20.4413 31 21.2044 31 22C31 22.7956 30.6839 23.5587 30.1213 24.1213C29.5587 24.6839 28.7956 25 28 25C27.2043 25 26.4413 24.6839 25.8787 24.1213C25.3161 23.5587 25 22.7956 25 22C25 21.2044 25.3161 20.4413 25.8787 19.8787C26.4413 19.3161 27.2043 19 28 19ZM28 21C27.7348 21 27.4804 21.1054 27.2929 21.2929C27.1054 21.4804 27 21.7348 27 22C27 22.2652 27.1054 22.5196 27.2929 22.7071C27.4804 22.8946 27.7348 23 28 23C28.2652 23 28.5196 22.8946 28.7071 22.7071C28.8946 22.5196 29 22.2652 29 22C29 21.7348 28.8946 21.4804 28.7071 21.2929C28.5196 21.1054 28.2652 21 28 21Z" fill="white"/>
<defs>
<linearGradient id="paint0_linear" x1="9.76786" y1="23.0446" x2="15.2321" y2="29.7946" gradientUnits="userSpaceOnUse">
<stop stop-color="#FFF4CC"/>
<stop offset="1" stop-color="#EC8E00"/>
</linearGradient>
<linearGradient id="paint1_linear" x1="18.875" y1="15.0625" x2="40.125" y2="41.3125" gradientUnits="userSpaceOnUse">
<stop stop-color="#FFF4CC"/>
<stop offset="1" stop-color="#EC8E00"/>
</linearGradient>
</defs>
</svg>
