<svg width="40" height="40" viewBox="0 0 40 40" fill="none" xmlns="http://www.w3.org/2000/svg">
<path d="M22.8917 36.325L15.3917 29.2417C15.1417 29.0067 15 28.6783 15 28.3333C15 27.9883 15.1417 27.66 15.3917 27.425L22.8917 20.3417C23.685 19.595 25 20.1517 25 21.25V25H33.75C35.8167 25 37.5 23.3183 37.5 21.25C37.5 20.56 38.06 20 38.75 20C39.44 20 40 20.56 40 21.25V23.75C40 28.115 36.4483 31.6667 32.0833 31.6667H25V35.4167C25 36.52 23.68 37.07 22.8917 36.325Z" fill="#186CC0"/>
<path d="M20 0C8.97167 0 0 8.97167 0 20C0 31.0283 8.97167 40 20 40C20.8633 40 21.71 39.9267 22.545 39.82C21.8883 39.64 21.1183 39.2367 20.6017 38.7483C12.715 31.2983 12.1233 31.1417 11.7483 29.1317C11.385 27.0967 12.2283 25.8267 13.6133 24.52C13.5017 23.605 13.4317 22.645 13.3867 21.6667H16.6333C16.6333 21.6667 20.8167 17.605 21.6667 17.1717V13.29C23.1333 13.2317 24.57 13.0983 25.9583 12.89C26.26 14.3633 26.4817 15.96 26.5867 17.66C27.9267 18.72 28.3333 20.0367 28.3333 21.6667H29.96C29.9817 21.1167 30 20.565 30 20C30 17.2133 29.74 14.5967 29.2683 12.2283C30.905 11.8183 32.4333 11.3067 33.7933 10.69C35.115 12.6467 36.0367 14.895 36.4317 17.3183C37.1133 16.915 37.9 16.6667 38.75 16.6667C39.0817 16.6667 39.4033 16.7067 39.715 16.7733C38.165 7.27833 29.9283 0 20 0ZM3.41833 18.3333C3.69833 15.52 4.68167 12.9083 6.18833 10.6817C7.55333 11.3033 9.08667 11.8167 10.7317 12.2283C10.3567 14.1167 10.1217 16.1667 10.04 18.3333H3.41833ZM8.44667 8.015C9.88833 6.625 11.5717 5.48667 13.4367 4.685C12.7067 5.925 12.075 7.37833 11.5583 9.00667C10.4483 8.73 9.40667 8.39833 8.44667 8.015ZM18.3333 3.975V9.95833C17.1583 9.90833 16.0133 9.8 14.9017 9.64833C15.8217 6.92667 17.05 4.93167 18.3333 3.975V3.975ZM13.4283 35.3C11.5683 34.4983 9.88667 33.37 8.44833 31.9833C9.41 31.6017 10.45 31.27 11.5583 30.9933C12.0733 32.6183 12.7017 34.065 13.4283 35.3ZM10.7317 27.7733C9.09333 28.1833 7.56333 28.695 6.20333 29.3117C4.695 27.0833 3.7 24.4817 3.42 21.6667H10.04C10.1217 23.8333 10.3567 25.885 10.7317 27.7733V27.7733ZM13.3717 18.3333C13.4567 16.3817 13.6933 14.5567 14.035 12.89C15.425 13.0967 16.865 13.2317 18.3333 13.29V18.3333H13.3717ZM21.6667 9.95833V3.96833C22.9483 4.925 24.1767 6.92667 25.095 9.64833C23.9833 9.8 22.84 9.90833 21.6667 9.95833ZM26.575 4.70667C28.43 5.51 30.1083 6.635 31.5417 8.02167C30.5833 8.40333 29.5467 8.73333 28.4417 9.00833C27.9283 7.38667 27.3 5.94167 26.575 4.70667V4.70667Z" fill="#186CC0"/>
</svg>
