<svg width="58" height="58" viewBox="0 0 58 58" fill="none" xmlns="http://www.w3.org/2000/svg">
<path d="M24 2.88675C27.094 1.10042 30.906 1.10042 34 2.88675L49.1147 11.6132C52.2087 13.3996 54.1147 16.7008 54.1147 20.2735V37.7265C54.1147 41.2992 52.2087 44.6004 49.1147 46.3868L34 55.1132C30.906 56.8996 27.094 56.8996 24 55.1132L8.88526 46.3868C5.79125 44.6004 3.88526 41.2992 3.88526 37.7265V20.2735C3.88526 16.7008 5.79125 13.3996 8.88526 11.6132L24 2.88675Z" fill="#39426A" fill-opacity="0.7"/>
<circle cx="28.5" cy="10.5" r="4.5" fill="url(#paint0_linear)" fill-opacity="0.5"/>
<circle cx="48.5" cy="19.5" r="4.5" fill="url(#paint1_linear)" fill-opacity="0.5"/>
<circle cx="29.5" cy="28.5" r="17.5" fill="url(#paint2_linear)" fill-opacity="0.5"/>
<path d="M30.0612 25.1102L31.4762 26.5252C32.1263 27.1753 32.642 27.947 32.9938 28.7963C33.3457 29.6456 33.5267 30.5559 33.5267 31.4752C33.5267 32.3945 33.3457 33.3049 32.9938 34.1542C32.642 35.0035 32.1263 35.7752 31.4762 36.4252L31.1222 36.7782C29.8094 38.0911 28.0288 38.8286 26.1722 38.8286C24.3156 38.8286 22.5351 38.0911 21.2222 36.7782C19.9094 35.4654 19.1719 33.6848 19.1719 31.8282C19.1719 29.9716 19.9094 28.1911 21.2222 26.8782L22.6372 28.2932C22.1696 28.7568 21.7981 29.3081 21.5442 29.9156C21.2902 30.5231 21.1587 31.1748 21.1573 31.8333C21.1558 32.4917 21.2844 33.144 21.5358 33.7526C21.7871 34.3612 22.1561 34.9142 22.6217 35.3798C23.0873 35.8453 23.6403 36.2144 24.2489 36.4657C24.8575 36.717 25.5097 36.8456 26.1682 36.8442C26.8266 36.8428 27.4783 36.7113 28.0858 36.4573C28.6933 36.2033 29.2447 35.8319 29.7082 35.3642L30.0622 35.0102C30.9996 34.0726 31.5262 32.8011 31.5262 31.4752C31.5262 30.1494 30.9996 28.8779 30.0622 27.9402L28.6472 26.5252L30.0622 25.1112L30.0612 25.1102ZM36.7792 31.1212L35.3652 29.7072C35.8329 29.2437 36.2043 28.6923 36.4583 28.0848C36.7123 27.4773 36.8438 26.8256 36.8452 26.1672C36.8466 25.5087 36.718 24.8565 36.4667 24.2479C36.2154 23.6393 35.8463 23.0863 35.3808 22.6207C34.9152 22.1551 34.3622 21.7861 33.7536 21.5348C33.145 21.2834 32.4927 21.1548 31.8343 21.1563C31.1758 21.1577 30.5241 21.2892 29.9166 21.5432C29.3091 21.7971 28.7578 22.1686 28.2942 22.6362L27.9402 22.9902C27.0029 23.9279 26.4763 25.1994 26.4763 26.5252C26.4763 27.8511 27.0029 29.1226 27.9402 30.0602L29.3552 31.4752L27.9402 32.8892L26.5262 31.4752C25.8761 30.8252 25.3605 30.0535 25.0086 29.2042C24.6568 28.3549 24.4757 27.4445 24.4757 26.5252C24.4757 25.6059 24.6568 24.6956 25.0086 23.8463C25.3605 22.997 25.8761 22.2253 26.5262 21.5752L26.8802 21.2222C28.1931 19.9094 29.9736 19.1719 31.8302 19.1719C33.6868 19.1719 35.4674 19.9094 36.7802 21.2222C38.0931 22.5351 38.8306 24.3156 38.8306 26.1722C38.8306 28.0288 38.0931 29.8094 36.7802 31.1222L36.7792 31.1212Z" fill="white"/>
<defs>
<linearGradient id="paint0_linear" x1="25.7679" y1="7.04464" x2="31.2321" y2="13.7946" gradientUnits="userSpaceOnUse">
<stop stop-color="#B9C0FF"/>
<stop offset="1" stop-color="#162152"/>
</linearGradient>
<linearGradient id="paint1_linear" x1="45.7679" y1="16.0446" x2="51.2321" y2="22.7946" gradientUnits="userSpaceOnUse">
<stop stop-color="#B9C0FF"/>
<stop offset="1" stop-color="#162152"/>
</linearGradient>
<linearGradient id="paint2_linear" x1="18.875" y1="15.0625" x2="40.125" y2="41.3125" gradientUnits="userSpaceOnUse">
<stop stop-color="#B9C0FF"/>
<stop offset="1" stop-color="#162152"/>
</linearGradient>
</defs>
</svg>
