<svg width="58" height="58" viewBox="0 0 58 58" fill="none" xmlns="http://www.w3.org/2000/svg">
<path d="M24 2.88675C27.094 1.10042 30.906 1.10042 34 2.88675L49.1147 11.6132C52.2087 13.3996 54.1147 16.7008 54.1147 20.2735V37.7265C54.1147 41.2992 52.2087 44.6004 49.1147 46.3868L34 55.1132C30.906 56.8996 27.094 56.8996 24 55.1132L8.88526 46.3868C5.79125 44.6004 3.88526 41.2992 3.88526 37.7265V20.2735C3.88526 16.7008 5.79125 13.3996 8.88526 11.6132L24 2.88675Z" fill="#7C60FF" fill-opacity="0.7"/>
<circle cx="12.5" cy="26.5" r="4.5" fill="url(#paint0_linear)" fill-opacity="0.5"/>
<circle cx="42.5" cy="39.5" r="4.5" fill="url(#paint1_linear)" fill-opacity="0.5"/>
<circle cx="29.5" cy="28.5" r="17.5" fill="url(#paint2_linear)" fill-opacity="0.5"/>
<path d="M33 33V32H30V29H33V31H35V33H34V35H32V37H30V34H32V33H33ZM38 37H34V35H36V33H38V37ZM20 19H28V27H20V19ZM22 21V25H26V21H22ZM30 19H38V27H30V19ZM32 21V25H36V21H32ZM20 29H28V37H20V29ZM22 31V35H26V31H22ZM35 29H38V31H35V29ZM23 22H25V24H23V22ZM23 32H25V34H23V32ZM33 22H35V24H33V22Z" fill="white"/>
<defs>
<linearGradient id="paint0_linear" x1="9.76786" y1="23.0446" x2="15.2321" y2="29.7946" gradientUnits="userSpaceOnUse">
<stop stop-color="#CAE4FF"/>
<stop offset="1" stop-color="#3D20C1"/>
</linearGradient>
<linearGradient id="paint1_linear" x1="39.7679" y1="36.0446" x2="45.2321" y2="42.7946" gradientUnits="userSpaceOnUse">
<stop stop-color="#CAE4FF"/>
<stop offset="1" stop-color="#3D20C1"/>
</linearGradient>
<linearGradient id="paint2_linear" x1="18.875" y1="15.0625" x2="40.125" y2="41.3125" gradientUnits="userSpaceOnUse">
<stop stop-color="#CAE4FF"/>
<stop offset="1" stop-color="#3D20C1"/>
</linearGradient>
</defs>
</svg>
