<svg width="58" height="58" viewBox="0 0 58 58" fill="none" xmlns="http://www.w3.org/2000/svg">
<path d="M24 2.88675C27.094 1.10042 30.906 1.10042 34 2.88675L49.1147 11.6132C52.2087 13.3996 54.1147 16.7008 54.1147 20.2735V37.7265C54.1147 41.2992 52.2087 44.6004 49.1147 46.3868L34 55.1132C30.906 56.8996 27.094 56.8996 24 55.1132L8.88526 46.3868C5.79125 44.6004 3.88526 41.2992 3.88526 37.7265V20.2735C3.88526 16.7008 5.79125 13.3996 8.88526 11.6132L24 2.88675Z" fill="#1E87F0" fill-opacity="0.7"/>
<circle cx="9.5" cy="19.5" r="4.5" fill="url(#paint0_linear)" fill-opacity="0.5"/>
<circle cx="29.5" cy="29.5" r="17.5" fill="url(#paint1_linear)" fill-opacity="0.5"/>
<path d="M25.965 35C25.8461 35.8343 25.4302 36.5977 24.7937 37.1499C24.1571 37.7022 23.3427 38.0063 22.5 38.0063C21.6573 38.0063 20.8429 37.7022 20.2063 37.1499C19.5698 36.5977 19.1539 35.8343 19.035 35H18V23C18 22.7348 18.1054 22.4804 18.2929 22.2929C18.4804 22.1054 18.7348 22 19 22H33C33.2652 22 33.5196 22.1054 33.7071 22.2929C33.8946 22.4804 34 22.7348 34 23V25H37L40 29.056V35H37.965C37.8461 35.8343 37.4302 36.5977 36.7937 37.1499C36.1571 37.7022 35.3427 38.0063 34.5 38.0063C33.6573 38.0063 32.8429 37.7022 32.2063 37.1499C31.5698 36.5977 31.1539 35.8343 31.035 35H25.965ZM32 24H20V32.05C20.3946 31.6472 20.8806 31.3457 21.4168 31.1711C21.9529 30.9966 22.5233 30.9541 23.0794 31.0474C23.6355 31.1407 24.1608 31.3669 24.6106 31.7069C25.0604 32.0469 25.4215 32.4905 25.663 33H31.337C31.505 32.647 31.73 32.326 32 32.05V24ZM34 30H38V29.715L35.992 27H34V30ZM34.5 36C34.898 36 35.2796 35.8419 35.561 35.5605C35.8424 35.2791 36.0005 34.8975 36.0005 34.4995C36.0005 34.1015 35.8424 33.7199 35.561 33.4385C35.2796 33.1571 34.898 32.999 34.5 32.999C34.102 32.999 33.7204 33.1571 33.439 33.4385C33.1576 33.7199 32.9995 34.1015 32.9995 34.4995C32.9995 34.8975 33.1576 35.2791 33.439 35.5605C33.7204 35.8419 34.102 36 34.5 36ZM24 34.5C24 34.303 23.9612 34.108 23.8858 33.926C23.8104 33.744 23.6999 33.5786 23.5607 33.4393C23.4214 33.3001 23.256 33.1896 23.074 33.1142C22.892 33.0388 22.697 33 22.5 33C22.303 33 22.108 33.0388 21.926 33.1142C21.744 33.1896 21.5786 33.3001 21.4393 33.4393C21.3001 33.5786 21.1896 33.744 21.1142 33.926C21.0388 34.108 21 34.303 21 34.5C21 34.8978 21.158 35.2794 21.4393 35.5607C21.7206 35.842 22.1022 36 22.5 36C22.8978 36 23.2794 35.842 23.5607 35.5607C23.842 35.2794 24 34.8978 24 34.5Z" fill="white"/>
<circle cx="32.5" cy="12.5" r="4.5" fill="url(#paint2_linear)" fill-opacity="0.5"/>
<defs>
<linearGradient id="paint0_linear" x1="6.76786" y1="16.0446" x2="12.2321" y2="22.7946" gradientUnits="userSpaceOnUse">
<stop stop-color="#AEFFD1"/>
<stop offset="1" stop-color="#1E87F0"/>
</linearGradient>
<linearGradient id="paint1_linear" x1="18.875" y1="16.0625" x2="40.125" y2="42.3125" gradientUnits="userSpaceOnUse">
<stop stop-color="#AEFFD1"/>
<stop offset="1" stop-color="#1E87F0"/>
</linearGradient>
<linearGradient id="paint2_linear" x1="29.7679" y1="9.04464" x2="35.2321" y2="15.7946" gradientUnits="userSpaceOnUse">
<stop stop-color="#AEFFD1"/>
<stop offset="1" stop-color="#1E87F0"/>
</linearGradient>
</defs>
</svg>
